{"glyphs":{"0":{"ha":542,"x_min":65,"x_max":476,"o":"m 476 747 l 476 122 q 445 31 476 63 q 347 0 414 0 l 196 0 q 97 31 128 0 q 65 122 65 63 l 65 747 q 97 838 65 807 q 196 869 128 869 l 347 869 q 445 838 414 869 q 476 747 476 807 m 350 142 l 350 728 q 342 760 350 753 q 308 768 335 768 l 233 768 q 201 760 210 768 q 193 728 193 753 l 193 142 q 201 110 193 118 q 233 101 210 101 l 308 101 q 342 110 335 101 q 350 142 350 118 z "},"1":{"ha":326,"x_min":28,"x_max":254,"o":"m 192 869 l 192 768 l 28 768 l 28 869 l 192 869 m 128 869 l 254 869 l 254 0 l 128 0 l 128 869 z "},"2":{"ha":456,"x_min":35,"x_max":419,"o":"m 160 728 l 160 586 l 35 586 l 35 747 q 65 838 35 807 q 164 869 96 869 l 283 869 q 383 838 351 869 q 414 747 414 807 l 414 660 q 403 562 414 604 q 365 469 392 519 l 178 101 l 419 101 l 419 0 l 36 0 l 36 97 l 249 497 q 280 578 272 542 q 288 664 288 615 l 288 728 q 280 760 288 753 q 246 768 272 768 l 201 768 q 168 760 176 768 q 160 728 160 753 z "},"3":{"ha":493,"x_min":40,"x_max":428,"o":"m 165 728 l 165 597 l 40 597 l 40 747 q 72 838 40 807 q 169 869 103 869 l 297 869 q 397 838 365 869 q 428 747 428 807 l 428 528 q 414 470 428 492 q 374 442 400 449 q 414 415 400 435 q 428 361 428 396 l 428 122 q 397 31 428 63 q 297 0 365 0 l 169 0 q 72 31 103 0 q 40 122 40 63 l 40 271 l 165 271 l 165 142 q 174 110 165 118 q 207 101 182 101 l 261 101 q 295 110 288 101 q 303 142 303 118 l 303 350 q 295 383 303 375 q 261 390 288 390 l 157 390 l 157 490 l 261 490 q 295 499 288 490 q 303 531 303 507 l 303 728 q 295 760 303 753 q 261 768 288 768 l 207 768 q 174 760 182 768 q 165 728 165 753 z "},"4":{"ha":504,"x_min":8,"x_max":504,"o":"m 58 172 l 58 275 l 504 275 l 504 172 l 58 172 m 8 172 l 8 276 l 258 869 l 383 869 l 83 172 l 8 172 m 307 442 l 426 442 l 426 0 l 307 0 l 307 442 z "},"5":{"ha":497,"x_min":56,"x_max":449,"o":"m 182 276 l 182 142 q 190 110 182 118 q 224 101 199 101 l 281 101 q 315 110 307 101 q 322 142 322 118 l 322 401 q 315 435 322 428 q 281 443 307 443 l 135 443 l 135 543 l 318 543 q 417 512 386 543 q 449 421 449 481 l 449 122 q 417 31 449 63 q 318 0 386 0 l 185 0 q 87 31 118 0 q 56 122 56 63 l 56 276 l 182 276 m 183 443 l 58 443 l 58 869 l 446 869 l 446 768 l 183 768 l 183 443 z "},"6":{"ha":531,"x_min":65,"x_max":472,"o":"m 347 142 l 347 360 q 340 392 347 385 q 306 400 332 400 l 151 400 l 151 500 l 343 500 q 441 469 410 500 q 472 376 472 438 l 472 122 q 441 31 472 63 q 343 0 410 0 l 263 0 l 263 101 l 306 101 q 340 110 332 101 q 347 142 347 118 m 192 728 l 192 142 q 200 110 192 118 q 232 101 208 101 l 275 101 l 275 0 l 196 0 q 97 31 128 0 q 65 122 65 63 l 65 747 q 97 838 65 807 q 196 869 128 869 l 274 869 l 274 768 l 232 768 q 200 760 208 768 q 192 728 192 753 m 344 597 l 344 728 q 336 760 344 753 q 303 768 328 768 l 258 768 l 258 869 l 339 869 q 437 838 406 869 q 468 747 468 807 l 468 597 l 344 597 z "},"7":{"ha":404,"x_min":8,"x_max":397,"o":"m 357 869 l 357 765 l 8 765 l 8 869 l 357 869 m 397 869 l 397 792 l 164 0 l 36 0 l 293 869 l 397 869 z "},"8":{"ha":540,"x_min":65,"x_max":475,"o":"m 189 350 l 189 142 q 197 108 189 117 q 229 100 206 100 l 272 100 l 272 0 l 194 0 q 97 31 128 0 q 65 122 65 63 l 65 356 q 79 411 65 392 q 119 438 93 431 q 79 466 93 444 q 65 524 65 488 l 65 747 q 97 838 65 807 q 194 869 128 869 l 275 869 l 275 769 l 229 769 q 197 762 206 769 q 189 729 189 754 l 189 526 q 197 494 189 503 q 229 486 206 486 l 278 486 l 278 390 l 229 390 q 197 383 206 390 q 189 350 189 375 m 351 526 l 351 729 q 344 762 351 754 q 311 769 336 769 l 267 769 l 267 869 l 346 869 q 444 838 413 869 q 475 747 475 807 l 475 524 q 461 466 475 488 q 421 438 447 444 q 461 411 447 431 q 475 356 475 392 l 475 122 q 444 31 475 63 q 346 0 413 0 l 260 0 l 260 100 l 311 100 q 344 108 336 100 q 351 142 351 117 l 351 350 q 344 383 351 375 q 311 390 336 390 l 263 390 l 263 486 l 311 486 q 344 494 336 486 q 351 526 351 503 z "},"9":{"ha":525,"x_min":53,"x_max":460,"o":"m 178 728 l 178 494 q 186 463 178 471 q 219 454 194 454 l 374 454 l 374 356 l 182 356 q 84 388 115 356 q 53 479 53 419 l 53 747 q 84 838 53 807 q 182 869 115 869 l 263 869 l 263 768 l 219 768 q 186 760 194 768 q 178 728 178 753 m 333 142 l 333 728 q 326 760 333 753 q 293 768 318 768 l 250 768 l 250 869 l 329 869 q 428 838 397 869 q 460 747 460 807 l 460 122 q 428 31 460 63 q 329 0 397 0 l 251 0 l 251 101 l 293 101 q 326 110 318 101 q 333 142 333 118 m 181 271 l 181 142 q 189 110 181 118 q 222 101 197 101 l 267 101 l 267 0 l 186 0 q 87 31 118 0 q 56 122 56 63 l 56 271 l 181 271 z "},"A":{"ha":535,"x_min":17,"x_max":518,"o":"m 408 303 l 408 201 l 124 201 l 124 303 l 408 303 m 518 0 l 392 0 l 261 761 l 143 0 l 17 0 l 171 869 l 353 869 l 518 0 z "},"Æ":{"ha":804,"x_min":15,"x_max":772,"o":"m 453 869 l 142 0 l 15 0 l 338 869 l 453 869 m 432 307 l 432 207 l 147 207 l 147 307 l 432 307 m 397 869 l 521 869 l 521 0 l 397 0 l 397 869 m 772 101 l 772 0 l 461 0 l 461 101 l 772 101 m 721 500 l 721 399 l 465 399 l 465 500 l 721 500 m 763 869 l 763 768 l 461 768 l 461 869 l 763 869 z "},"Á":{"ha":535,"x_min":17,"x_max":518,"o":"m 408 303 l 408 201 l 124 201 l 124 303 l 408 303 m 518 0 l 392 0 l 261 761 l 143 0 l 17 0 l 171 869 l 353 869 l 518 0 m 210 913 l 324 1096 l 463 1096 l 317 913 l 210 913 z "},"Ă":{"ha":535,"x_min":17,"x_max":518,"o":"m 408 303 l 408 201 l 124 201 l 124 303 l 408 303 m 518 0 l 392 0 l 261 761 l 143 0 l 17 0 l 171 869 l 353 869 l 518 0 m 346 1096 l 463 1096 l 463 1036 q 431 944 463 975 q 332 913 400 913 l 253 913 l 253 1003 l 304 1003 q 338 1010 331 1003 q 346 1043 346 1018 l 346 1096 m 61 1096 l 178 1096 l 178 1043 q 186 1010 178 1018 q 219 1003 194 1003 l 271 1003 l 271 913 l 192 913 q 92 944 124 913 q 61 1036 61 975 l 61 1096 z "},"Â":{"ha":535,"x_min":17,"x_max":518,"o":"m 408 303 l 408 201 l 124 201 l 124 303 l 408 303 m 518 0 l 392 0 l 261 761 l 143 0 l 17 0 l 171 869 l 353 869 l 518 0 m 58 913 l 192 1096 l 332 1096 l 464 913 l 335 913 l 261 1025 l 189 913 l 58 913 z "},"Ä":{"ha":535,"x_min":17,"x_max":518,"o":"m 60 913 l 60 1043 l 201 1043 l 201 913 l 60 913 m 324 913 l 324 1043 l 464 1043 l 464 913 l 324 913 m 408 303 l 408 201 l 124 201 l 124 303 l 408 303 m 518 0 l 392 0 l 261 761 l 143 0 l 17 0 l 171 869 l 353 869 l 518 0 z "},"À":{"ha":535,"x_min":17,"x_max":518,"o":"m 408 303 l 408 201 l 124 201 l 124 303 l 408 303 m 518 0 l 392 0 l 261 761 l 143 0 l 17 0 l 171 869 l 353 869 l 518 0 m 192 1096 l 306 913 l 199 913 l 53 1096 l 192 1096 z "},"Ā":{"ha":535,"x_min":17,"x_max":518,"o":"m 408 303 l 408 201 l 124 201 l 124 303 l 408 303 m 518 0 l 392 0 l 261 761 l 143 0 l 17 0 l 171 869 l 353 869 l 518 0 m 75 914 l 75 1008 l 449 1008 l 449 914 l 75 914 z "},"Ą":{"ha":535,"x_min":17,"x_max":543,"o":"m 408 303 l 408 201 l 124 201 l 124 303 l 408 303 m 518 0 l 392 0 l 261 761 l 143 0 l 17 0 l 171 869 l 353 869 l 518 0 m 289 -150 q 317 -62 289 -92 q 408 -32 346 -32 l 518 -32 l 518 -119 l 431 -119 q 399 -126 407 -119 q 390 -157 390 -132 l 390 -187 q 399 -217 390 -210 q 431 -225 407 -225 l 543 -225 l 543 -312 l 408 -312 q 317 -283 346 -312 q 289 -196 289 -253 l 289 -150 m 518 -37 l 419 -37 l 419 15 l 518 15 l 518 -37 z "},"Å":{"ha":535,"x_min":17,"x_max":518,"o":"m 408 303 l 408 201 l 124 201 l 124 303 l 408 303 m 518 0 l 392 0 l 261 761 l 143 0 l 17 0 l 171 869 l 353 869 l 518 0 m 408 1035 l 408 1011 q 385 938 408 963 q 307 914 361 914 l 217 914 q 140 938 164 914 q 115 1011 115 963 l 115 1035 q 140 1108 115 1083 q 217 1132 164 1132 l 307 1132 q 385 1108 361 1132 q 408 1035 408 1083 m 321 1018 l 321 1028 q 315 1056 321 1049 q 285 1063 308 1063 l 239 1063 q 209 1056 215 1063 q 203 1028 203 1049 l 203 1018 q 209 990 203 997 q 239 983 215 983 l 285 983 q 315 990 308 983 q 321 1018 321 997 z "},"Ã":{"ha":535,"x_min":17,"x_max":518,"o":"m 408 303 l 408 201 l 124 201 l 124 303 l 408 303 m 518 0 l 392 0 l 261 761 l 143 0 l 17 0 l 171 869 l 353 869 l 518 0 m 335 914 q 277 927 303 914 q 232 953 251 940 q 194 967 213 967 q 171 935 171 967 l 171 914 l 63 914 l 63 944 q 86 1026 63 996 q 171 1056 110 1056 l 183 1056 q 239 1042 214 1056 q 283 1016 264 1029 q 318 1003 303 1003 q 339 1009 333 1003 q 344 1036 344 1015 l 344 1056 l 451 1056 l 451 1024 q 429 943 451 972 q 344 914 407 914 l 335 914 z "},"B":{"ha":568,"x_min":72,"x_max":504,"o":"m 72 869 l 374 869 q 473 838 442 869 q 504 747 504 807 l 504 526 q 490 469 504 492 q 449 440 476 447 q 490 414 476 433 q 504 360 504 394 l 504 122 q 473 31 504 63 q 374 0 442 0 l 72 0 l 72 869 m 378 139 l 378 353 q 370 385 378 378 q 336 393 363 393 l 199 393 l 199 99 l 336 99 q 370 107 363 99 q 378 139 378 115 m 378 532 l 378 731 q 370 763 378 756 q 336 771 363 771 l 199 771 l 199 492 l 336 492 q 370 500 363 492 q 378 532 378 508 z "},"C":{"ha":524,"x_min":65,"x_max":472,"o":"m 192 731 l 192 138 q 200 106 192 114 q 233 97 208 97 l 272 97 l 272 -1 l 194 -1 q 97 30 128 -1 q 65 122 65 61 l 65 747 q 97 838 65 807 q 194 869 128 869 l 281 869 l 281 771 l 233 771 q 200 763 208 771 q 192 731 192 756 m 344 597 l 344 731 q 337 763 344 756 q 304 771 329 771 l 258 771 l 258 869 l 342 869 q 441 838 410 869 q 472 747 472 807 l 472 597 l 344 597 m 344 138 l 344 269 l 472 269 l 472 122 q 441 30 472 61 q 342 -1 410 -1 l 258 -1 l 258 97 l 304 97 q 337 106 329 97 q 344 138 344 114 z "},"Ć":{"ha":524,"x_min":65,"x_max":472,"o":"m 192 731 l 192 138 q 200 106 192 114 q 233 97 208 97 l 272 97 l 272 -1 l 194 -1 q 97 30 128 -1 q 65 122 65 61 l 65 747 q 97 838 65 807 q 194 869 128 869 l 281 869 l 281 771 l 233 771 q 200 763 208 771 q 192 731 192 756 m 344 597 l 344 731 q 337 763 344 756 q 304 771 329 771 l 258 771 l 258 869 l 342 869 q 441 838 410 869 q 472 747 472 807 l 472 597 l 344 597 m 344 138 l 344 269 l 472 269 l 472 122 q 441 30 472 61 q 342 -1 410 -1 l 258 -1 l 258 97 l 304 97 q 337 106 329 97 q 344 138 344 114 m 214 913 l 328 1096 l 467 1096 l 321 913 l 214 913 z "},"Č":{"ha":524,"x_min":65,"x_max":472,"o":"m 192 731 l 192 138 q 200 106 192 114 q 233 97 208 97 l 272 97 l 272 -1 l 194 -1 q 97 30 128 -1 q 65 122 65 61 l 65 747 q 97 838 65 807 q 194 869 128 869 l 281 869 l 281 771 l 233 771 q 200 763 208 771 q 192 731 192 756 m 344 597 l 344 731 q 337 763 344 756 q 304 771 329 771 l 258 771 l 258 869 l 342 869 q 441 838 410 869 q 472 747 472 807 l 472 597 l 344 597 m 344 138 l 344 269 l 472 269 l 472 122 q 441 30 472 61 q 342 -1 410 -1 l 258 -1 l 258 97 l 304 97 q 337 106 329 97 q 344 138 344 114 m 199 913 l 65 1096 l 196 1096 l 268 983 l 342 1096 l 471 1096 l 339 913 l 199 913 z "},"Ç":{"ha":524,"x_min":65,"x_max":472,"o":"m 192 731 l 192 138 q 200 106 192 114 q 233 97 208 97 l 272 97 l 272 -1 l 194 -1 q 97 30 128 -1 q 65 122 65 61 l 65 747 q 97 838 65 807 q 194 869 128 869 l 281 869 l 281 771 l 233 771 q 200 763 208 771 q 192 731 192 756 m 344 597 l 344 731 q 337 763 344 756 q 304 771 329 771 l 258 771 l 258 869 l 342 869 q 441 838 410 869 q 472 747 472 807 l 472 597 l 344 597 m 344 138 l 344 269 l 472 269 l 472 122 q 441 30 472 61 q 342 -1 410 -1 l 258 -1 l 258 97 l 304 97 q 337 106 329 97 q 344 138 344 114 m 213 -117 l 213 -69 l 331 -69 l 331 -126 q 294 -226 331 -193 q 190 -260 258 -260 l 111 -260 l 111 -162 l 167 -162 q 203 -151 193 -162 q 213 -117 213 -140 z "},"D":{"ha":572,"x_min":75,"x_max":507,"o":"m 381 544 l 381 731 q 372 763 381 756 q 339 771 364 771 l 135 771 l 135 869 l 378 869 q 476 838 444 869 q 507 747 507 807 l 507 544 l 381 544 m 381 139 l 381 576 l 507 576 l 507 122 q 476 31 507 63 q 378 0 444 0 l 135 0 l 135 99 l 339 99 q 372 107 364 99 q 381 139 381 115 m 75 869 l 201 869 l 201 0 l 75 0 l 75 869 z "},"Ď":{"ha":572,"x_min":75,"x_max":507,"o":"m 381 544 l 381 731 q 372 763 381 756 q 339 771 364 771 l 135 771 l 135 869 l 378 869 q 476 838 444 869 q 507 747 507 807 l 507 544 l 381 544 m 381 139 l 381 576 l 507 576 l 507 122 q 476 31 507 63 q 378 0 444 0 l 135 0 l 135 99 l 339 99 q 372 107 364 99 q 381 139 381 115 m 75 869 l 201 869 l 201 0 l 75 0 l 75 869 m 213 913 l 79 1096 l 210 1096 l 282 983 l 356 1096 l 485 1096 l 353 913 l 213 913 z "},"Đ":{"ha":575,"x_min":4,"x_max":507,"o":"m 381 544 l 381 728 q 372 760 381 753 q 339 768 364 768 l 135 768 l 135 869 l 378 869 q 476 838 444 869 q 507 747 507 807 l 507 544 l 381 544 m 381 142 l 381 576 l 507 576 l 507 122 q 476 31 507 63 q 378 0 444 0 l 135 0 l 135 101 l 339 101 q 372 110 364 101 q 381 142 381 118 m 75 869 l 201 869 l 201 0 l 75 0 l 75 869 m 306 488 l 306 389 l 4 389 l 4 488 l 306 488 z "},"E":{"ha":476,"x_min":72,"x_max":450,"o":"m 72 869 l 199 869 l 199 0 l 72 0 l 72 869 m 399 500 l 399 399 l 142 399 l 142 500 l 399 500 m 440 869 l 440 768 l 139 768 l 139 869 l 440 869 m 450 101 l 450 0 l 139 0 l 139 101 l 450 101 z "},"É":{"ha":476,"x_min":72,"x_max":451,"o":"m 72 869 l 199 869 l 199 0 l 72 0 l 72 869 m 399 500 l 399 399 l 142 399 l 142 500 l 399 500 m 440 869 l 440 768 l 139 768 l 139 869 l 440 869 m 450 101 l 450 0 l 139 0 l 139 101 l 450 101 m 199 913 l 313 1096 l 451 1096 l 306 913 l 199 913 z "},"Ě":{"ha":476,"x_min":53,"x_max":458,"o":"m 72 869 l 199 869 l 199 0 l 72 0 l 72 869 m 399 500 l 399 399 l 142 399 l 142 500 l 399 500 m 440 869 l 440 768 l 139 768 l 139 869 l 440 869 m 450 101 l 450 0 l 139 0 l 139 101 l 450 101 m 186 913 l 53 1096 l 183 1096 l 256 983 l 329 1096 l 458 1096 l 326 913 l 186 913 z "},"Ê":{"ha":476,"x_min":56,"x_max":461,"o":"m 72 869 l 199 869 l 199 0 l 72 0 l 72 869 m 399 500 l 399 399 l 142 399 l 142 500 l 399 500 m 440 869 l 440 768 l 139 768 l 139 869 l 440 869 m 450 101 l 450 0 l 139 0 l 139 101 l 450 101 m 56 913 l 189 1096 l 329 1096 l 461 913 l 332 913 l 258 1025 l 186 913 l 56 913 z "},"Ë":{"ha":492,"x_min":51,"x_max":456,"o":"m 51 913 l 51 1043 l 193 1043 l 193 913 l 51 913 m 315 913 l 315 1043 l 456 1043 l 456 913 l 315 913 m 72 869 l 199 869 l 199 0 l 72 0 l 72 869 m 399 500 l 399 399 l 142 399 l 142 500 l 399 500 m 440 869 l 440 768 l 139 768 l 139 869 l 440 869 m 450 101 l 450 0 l 139 0 l 139 101 l 450 101 z "},"Ė":{"ha":476,"x_min":72,"x_max":450,"o":"m 72 869 l 199 869 l 199 0 l 72 0 l 72 869 m 399 500 l 399 399 l 142 399 l 142 500 l 399 500 m 440 869 l 440 768 l 139 768 l 139 869 l 440 869 m 450 101 l 450 0 l 139 0 l 139 101 l 450 101 m 193 913 l 193 1046 l 342 1046 l 342 913 l 193 913 z "},"È":{"ha":476,"x_min":57,"x_max":450,"o":"m 72 869 l 199 869 l 199 0 l 72 0 l 72 869 m 399 500 l 399 399 l 142 399 l 142 500 l 399 500 m 440 869 l 440 768 l 139 768 l 139 869 l 440 869 m 450 101 l 450 0 l 139 0 l 139 101 l 450 101 m 196 1096 l 310 913 l 203 913 l 57 1096 l 196 1096 z "},"Ē":{"ha":476,"x_min":68,"x_max":450,"o":"m 72 869 l 199 869 l 199 0 l 72 0 l 72 869 m 399 500 l 399 399 l 142 399 l 142 500 l 399 500 m 440 869 l 440 768 l 139 768 l 139 869 l 440 869 m 450 101 l 450 0 l 139 0 l 139 101 l 450 101 m 68 932 l 68 1026 l 442 1026 l 442 932 l 68 932 z "},"Ę":{"ha":476,"x_min":72,"x_max":475,"o":"m 72 869 l 199 869 l 199 0 l 72 0 l 72 869 m 399 500 l 399 399 l 142 399 l 142 500 l 399 500 m 440 869 l 440 768 l 139 768 l 139 869 l 440 869 m 450 101 l 450 0 l 139 0 l 139 101 l 450 101 m 221 -150 q 249 -62 221 -92 q 340 -32 278 -32 l 450 -32 l 450 -119 l 363 -119 q 331 -126 339 -119 q 322 -157 322 -132 l 322 -187 q 331 -217 322 -210 q 363 -225 339 -225 l 475 -225 l 475 -312 l 340 -312 q 249 -283 278 -312 q 221 -196 221 -253 l 221 -150 m 450 -37 l 351 -37 l 351 15 l 450 15 l 450 -37 z "},"Ð":{"ha":572,"x_min":4,"x_max":507,"o":"m 381 544 l 381 731 q 372 763 381 756 q 339 771 364 771 l 135 771 l 135 869 l 378 869 q 476 838 444 869 q 507 747 507 807 l 507 544 l 381 544 m 381 139 l 381 576 l 507 576 l 507 122 q 476 31 507 63 q 378 0 444 0 l 135 0 l 135 99 l 339 99 q 372 107 364 99 q 381 139 381 115 m 75 869 l 201 869 l 201 0 l 75 0 l 75 869 m 306 488 l 306 389 l 4 389 l 4 488 l 306 488 z "},"F":{"ha":461,"x_min":72,"x_max":451,"o":"m 72 869 l 199 869 l 199 0 l 72 0 l 72 869 m 399 482 l 399 383 l 143 383 l 143 482 l 399 482 m 451 869 l 451 768 l 139 768 l 139 869 l 451 869 z "},"G":{"ha":531,"x_min":65,"x_max":472,"o":"m 192 731 l 192 138 q 200 106 192 114 q 233 97 208 97 l 272 97 l 272 -1 l 194 -1 q 97 30 128 -1 q 65 122 65 61 l 65 747 q 97 838 65 807 q 194 869 128 869 l 281 869 l 281 771 l 233 771 q 200 763 208 771 q 192 731 192 756 m 472 447 l 472 350 l 276 350 l 276 447 l 472 447 m 346 615 l 346 731 q 338 763 346 756 q 304 771 329 771 l 258 771 l 258 869 l 343 869 q 441 838 410 869 q 472 747 472 807 l 472 615 l 346 615 m 346 138 l 346 381 l 472 381 l 472 122 q 441 30 472 61 q 343 -1 410 -1 l 260 -1 l 260 97 l 304 97 q 338 106 329 97 q 346 138 346 114 z "},"Ğ":{"ha":531,"x_min":65,"x_max":472,"o":"m 192 731 l 192 138 q 200 106 192 114 q 233 97 208 97 l 272 97 l 272 -1 l 194 -1 q 97 30 128 -1 q 65 122 65 61 l 65 747 q 97 838 65 807 q 194 869 128 869 l 281 869 l 281 771 l 233 771 q 200 763 208 771 q 192 731 192 756 m 472 447 l 472 350 l 276 350 l 276 447 l 472 447 m 346 615 l 346 731 q 338 763 346 756 q 304 771 329 771 l 258 771 l 258 869 l 343 869 q 441 838 410 869 q 472 747 472 807 l 472 615 l 346 615 m 346 138 l 346 381 l 472 381 l 472 122 q 441 30 472 61 q 343 -1 410 -1 l 260 -1 l 260 97 l 304 97 q 338 106 329 97 q 346 138 346 114 m 353 1096 l 469 1096 l 469 1036 q 438 944 469 975 q 339 913 407 913 l 260 913 l 260 1003 l 311 1003 q 345 1010 338 1003 q 353 1043 353 1018 l 353 1096 m 68 1096 l 185 1096 l 185 1043 q 193 1010 185 1018 q 226 1003 201 1003 l 278 1003 l 278 913 l 199 913 q 99 944 131 913 q 68 1036 68 975 l 68 1096 z "},"Ģ":{"ha":531,"x_min":65,"x_max":472,"o":"m 192 731 l 192 138 q 200 106 192 114 q 233 97 208 97 l 272 97 l 272 -1 l 194 -1 q 97 30 128 -1 q 65 122 65 61 l 65 747 q 97 838 65 807 q 194 869 128 869 l 281 869 l 281 771 l 233 771 q 200 763 208 771 q 192 731 192 756 m 472 447 l 472 350 l 276 350 l 276 447 l 472 447 m 346 615 l 346 731 q 338 763 346 756 q 304 771 329 771 l 258 771 l 258 869 l 343 869 q 441 838 410 869 q 472 747 472 807 l 472 615 l 346 615 m 346 138 l 346 381 l 472 381 l 472 122 q 441 30 472 61 q 343 -1 410 -1 l 260 -1 l 260 97 l 304 97 q 338 106 329 97 q 346 138 346 114 m 206 -69 l 343 -69 l 343 -137 l 251 -319 l 206 -319 l 206 -69 z "},"H":{"ha":579,"x_min":72,"x_max":508,"o":"m 421 483 l 421 382 l 161 382 l 161 483 l 421 483 m 72 869 l 199 869 l 199 0 l 72 0 l 72 869 m 382 869 l 508 869 l 508 0 l 382 0 l 382 869 z "},"I":{"ha":292,"x_min":83,"x_max":208,"o":"m 83 869 l 208 869 l 208 0 l 83 0 l 83 869 z "},"Í":{"ha":292,"x_min":83,"x_max":349,"o":"m 83 869 l 208 869 l 208 0 l 83 0 l 83 869 m 96 913 l 210 1096 l 349 1096 l 203 913 l 96 913 z "},"Î":{"ha":292,"x_min":-56,"x_max":350,"o":"m 83 869 l 208 869 l 208 0 l 83 0 l 83 869 m -56 913 l 78 1096 l 218 1096 l 350 913 l 221 913 l 147 1025 l 75 913 l -56 913 z "},"Ï":{"ha":292,"x_min":-58,"x_max":346,"o":"m -58 913 l -58 1043 l 83 1043 l 83 913 l -58 913 m 206 913 l 206 1043 l 346 1043 l 346 913 l 206 913 m 83 869 l 208 869 l 208 0 l 83 0 l 83 869 z "},"İ":{"ha":292,"x_min":71,"x_max":219,"o":"m 83 869 l 208 869 l 208 0 l 83 0 l 83 869 m 71 931 l 71 1064 l 219 1064 l 219 931 l 71 931 z "},"Ì":{"ha":292,"x_min":-54,"x_max":208,"o":"m 83 869 l 208 869 l 208 0 l 83 0 l 83 869 m 85 1096 l 199 913 l 92 913 l -54 1096 l 85 1096 z "},"Ī":{"ha":292,"x_min":-42,"x_max":332,"o":"m 83 869 l 208 869 l 208 0 l 83 0 l 83 869 m -42 932 l -42 1026 l 332 1026 l 332 932 l -42 932 z "},"Į":{"ha":292,"x_min":-21,"x_max":233,"o":"m 83 869 l 208 869 l 208 0 l 83 0 l 83 869 m -21 -150 q 8 -62 -21 -92 q 99 -32 36 -32 l 208 -32 l 208 -119 l 121 -119 q 89 -126 97 -119 q 81 -157 81 -132 l 81 -187 q 89 -217 81 -210 q 121 -225 97 -225 l 233 -225 l 233 -312 l 99 -312 q 8 -283 36 -312 q -21 -196 -21 -253 l -21 -150 m 208 -37 l 110 -37 l 110 15 l 208 15 l 208 -37 z "},"J":{"ha":464,"x_min":19,"x_max":396,"o":"m 19 286 l 146 286 l 146 142 q 154 110 146 118 q 188 101 163 101 l 228 101 q 262 110 254 101 q 269 142 269 118 l 269 869 l 396 869 l 396 122 q 365 31 396 63 q 267 0 333 0 l 149 0 q 51 31 82 0 q 19 122 19 63 l 19 286 z "},"K":{"ha":533,"x_min":72,"x_max":521,"o":"m 206 433 l 338 433 l 518 0 l 382 0 l 206 433 m 338 433 l 206 433 l 385 869 l 521 869 l 338 433 m 72 869 l 197 869 l 197 0 l 72 0 l 72 869 z "},"Ķ":{"ha":533,"x_min":72,"x_max":521,"o":"m 206 433 l 338 433 l 518 0 l 382 0 l 206 433 m 338 433 l 206 433 l 385 869 l 521 869 l 338 433 m 72 869 l 197 869 l 197 0 l 72 0 l 72 869 m 206 -69 l 342 -69 l 342 -137 l 250 -319 l 206 -319 l 206 -69 z "},"L":{"ha":418,"x_min":72,"x_max":413,"o":"m 72 869 l 197 869 l 197 0 l 72 0 l 72 869 m 133 0 l 133 101 l 413 101 l 413 0 l 133 0 z "},"Ĺ":{"ha":418,"x_min":72,"x_max":413,"o":"m 72 869 l 197 869 l 197 0 l 72 0 l 72 869 m 133 0 l 133 101 l 413 101 l 413 0 l 133 0 m 82 913 l 196 1096 l 335 1096 l 189 913 l 82 913 z "},"Ļ":{"ha":418,"x_min":72,"x_max":413,"o":"m 72 869 l 197 869 l 197 0 l 72 0 l 72 869 m 133 0 l 133 101 l 413 101 l 413 0 l 133 0 m 172 -69 l 308 -69 l 308 -137 l 217 -319 l 172 -319 l 172 -69 z "},"Ł":{"ha":429,"x_min":-31,"x_max":415,"o":"m 339 572 l 339 475 l -31 301 l -31 400 l 339 572 m 75 869 l 200 869 l 200 0 l 75 0 l 75 869 m 138 0 l 138 101 l 415 101 l 415 0 l 138 0 z "},"M":{"ha":717,"x_min":72,"x_max":644,"o":"m 415 189 l 301 189 l 182 635 l 182 0 l 72 0 l 72 869 l 210 869 l 358 331 l 507 869 l 644 869 l 644 0 l 535 0 l 535 636 l 415 189 z "},"N":{"ha":569,"x_min":72,"x_max":497,"o":"m 382 869 l 497 869 l 497 0 l 371 0 l 188 626 l 188 0 l 72 0 l 72 869 l 204 869 l 382 260 l 382 869 z "},"Ń":{"ha":569,"x_min":72,"x_max":497,"o":"m 382 869 l 497 869 l 497 0 l 371 0 l 188 626 l 188 0 l 72 0 l 72 869 l 204 869 l 382 260 l 382 869 m 232 913 l 346 1096 l 485 1096 l 339 913 l 232 913 z "},"Ň":{"ha":569,"x_min":72,"x_max":497,"o":"m 382 869 l 497 869 l 497 0 l 371 0 l 188 626 l 188 0 l 72 0 l 72 869 l 204 869 l 382 260 l 382 869 m 218 913 l 85 1096 l 215 1096 l 288 983 l 361 1096 l 490 1096 l 358 913 l 218 913 z "},"Ņ":{"ha":569,"x_min":72,"x_max":497,"o":"m 382 869 l 497 869 l 497 0 l 371 0 l 188 626 l 188 0 l 72 0 l 72 869 l 204 869 l 382 260 l 382 869 m 204 -69 l 340 -69 l 340 -137 l 249 -319 l 204 -319 l 204 -69 z "},"Ñ":{"ha":569,"x_min":72,"x_max":497,"o":"m 382 869 l 497 869 l 497 0 l 371 0 l 188 626 l 188 0 l 72 0 l 72 869 l 204 869 l 382 260 l 382 869 m 363 914 q 305 927 331 914 q 260 953 279 940 q 222 967 240 967 q 199 935 199 967 l 199 914 l 90 914 l 90 944 q 114 1026 90 996 q 199 1056 138 1056 l 211 1056 q 267 1042 242 1056 q 311 1016 292 1029 q 346 1003 331 1003 q 367 1009 361 1003 q 372 1036 372 1015 l 372 1056 l 479 1056 l 479 1024 q 457 943 479 972 q 372 914 435 914 l 363 914 z "},"O":{"ha":546,"x_min":65,"x_max":481,"o":"m 354 264 l 354 728 q 347 760 354 753 q 313 768 339 768 l 267 768 l 267 869 l 350 869 q 449 838 418 869 q 481 747 481 807 l 481 264 l 354 264 m 354 142 l 354 322 l 481 322 l 481 122 q 449 31 481 63 q 350 0 418 0 l 258 0 l 258 101 l 313 101 q 347 110 339 101 q 354 142 354 118 m 192 728 l 192 263 l 65 263 l 65 747 q 97 838 65 807 q 196 869 128 869 l 279 869 l 279 768 l 233 768 q 200 760 208 768 q 192 728 192 753 m 192 332 l 192 142 q 200 110 192 118 q 233 101 208 101 l 276 101 l 276 0 l 196 0 q 97 31 128 0 q 65 122 65 63 l 65 332 l 192 332 z "},"Œ":{"ha":783,"x_min":74,"x_max":746,"o":"m 363 264 l 363 731 q 355 763 363 756 q 321 771 347 771 l 274 771 l 274 869 l 310 869 q 381 853 356 869 q 418 806 407 836 q 429 732 429 775 l 429 264 l 363 264 m 363 139 l 363 322 l 429 322 l 429 138 q 418 65 429 97 q 381 17 407 33 q 311 0 356 0 l 267 0 l 267 99 l 321 99 q 355 107 347 99 q 363 139 363 115 m 200 731 l 200 263 l 74 263 l 74 747 q 105 838 74 807 q 203 869 136 869 l 282 869 l 282 771 l 240 771 q 208 763 217 771 q 200 731 200 756 m 200 332 l 200 139 q 208 107 200 115 q 240 99 217 99 l 279 99 l 279 0 l 203 0 q 105 31 136 0 q 74 122 74 63 l 74 332 l 200 332 m 393 869 l 494 869 l 494 0 l 393 0 l 393 869 m 694 499 l 694 400 l 438 400 l 438 499 l 694 499 m 736 869 l 736 771 l 433 771 l 433 869 l 736 869 m 746 99 l 746 0 l 433 0 l 433 99 l 746 99 z "},"Ó":{"ha":546,"x_min":65,"x_max":481,"o":"m 354 264 l 354 728 q 347 760 354 753 q 313 768 339 768 l 267 768 l 267 869 l 350 869 q 449 838 418 869 q 481 747 481 807 l 481 264 l 354 264 m 354 142 l 354 322 l 481 322 l 481 122 q 449 31 481 63 q 350 0 418 0 l 258 0 l 258 101 l 313 101 q 347 110 339 101 q 354 142 354 118 m 192 728 l 192 263 l 65 263 l 65 747 q 97 838 65 807 q 196 869 128 869 l 279 869 l 279 768 l 233 768 q 200 760 208 768 q 192 728 192 753 m 192 332 l 192 142 q 200 110 192 118 q 233 101 208 101 l 276 101 l 276 0 l 196 0 q 97 31 128 0 q 65 122 65 63 l 65 332 l 192 332 m 211 913 l 325 1096 l 464 1096 l 318 913 l 211 913 z "},"Ô":{"ha":546,"x_min":65,"x_max":481,"o":"m 354 264 l 354 728 q 347 760 354 753 q 313 768 339 768 l 267 768 l 267 869 l 350 869 q 449 838 418 869 q 481 747 481 807 l 481 264 l 354 264 m 354 142 l 354 322 l 481 322 l 481 122 q 449 31 481 63 q 350 0 418 0 l 258 0 l 258 101 l 313 101 q 347 110 339 101 q 354 142 354 118 m 192 728 l 192 263 l 65 263 l 65 747 q 97 838 65 807 q 196 869 128 869 l 279 869 l 279 768 l 233 768 q 200 760 208 768 q 192 728 192 753 m 192 332 l 192 142 q 200 110 192 118 q 233 101 208 101 l 276 101 l 276 0 l 196 0 q 97 31 128 0 q 65 122 65 63 l 65 332 l 192 332 m 68 913 l 201 1096 l 342 1096 l 474 913 l 344 913 l 271 1025 l 199 913 l 68 913 z "},"Ö":{"ha":540,"x_min":65,"x_max":481,"o":"m 71 913 l 71 1043 l 213 1043 l 213 913 l 71 913 m 335 913 l 335 1043 l 475 1043 l 475 913 l 335 913 m 354 264 l 354 728 q 347 760 354 753 q 313 768 339 768 l 267 768 l 267 869 l 350 869 q 449 838 418 869 q 481 747 481 807 l 481 264 l 354 264 m 354 142 l 354 322 l 481 322 l 481 122 q 449 31 481 63 q 350 0 418 0 l 258 0 l 258 101 l 313 101 q 347 110 339 101 q 354 142 354 118 m 192 728 l 192 263 l 65 263 l 65 747 q 97 838 65 807 q 196 869 128 869 l 279 869 l 279 768 l 233 768 q 200 760 208 768 q 192 728 192 753 m 192 332 l 192 142 q 200 110 192 118 q 233 101 208 101 l 276 101 l 276 0 l 196 0 q 97 31 128 0 q 65 122 65 63 l 65 332 l 192 332 z "},"Ò":{"ha":546,"x_min":60,"x_max":481,"o":"m 354 264 l 354 728 q 347 760 354 753 q 313 768 339 768 l 267 768 l 267 869 l 350 869 q 449 838 418 869 q 481 747 481 807 l 481 264 l 354 264 m 354 142 l 354 322 l 481 322 l 481 122 q 449 31 481 63 q 350 0 418 0 l 258 0 l 258 101 l 313 101 q 347 110 339 101 q 354 142 354 118 m 192 728 l 192 263 l 65 263 l 65 747 q 97 838 65 807 q 196 869 128 869 l 279 869 l 279 768 l 233 768 q 200 760 208 768 q 192 728 192 753 m 192 332 l 192 142 q 200 110 192 118 q 233 101 208 101 l 276 101 l 276 0 l 196 0 q 97 31 128 0 q 65 122 65 63 l 65 332 l 192 332 m 199 1096 l 313 913 l 206 913 l 60 1096 l 199 1096 z "},"Ő":{"ha":540,"x_min":65,"x_max":547,"o":"m 308 913 l 422 1096 l 547 1096 l 400 913 l 308 913 m 143 913 l 257 1096 l 382 1096 l 235 913 l 143 913 m 354 264 l 354 728 q 347 760 354 753 q 313 768 339 768 l 267 768 l 267 869 l 350 869 q 449 838 418 869 q 481 747 481 807 l 481 264 l 354 264 m 354 142 l 354 322 l 481 322 l 481 122 q 449 31 481 63 q 350 0 418 0 l 258 0 l 258 101 l 313 101 q 347 110 339 101 q 354 142 354 118 m 192 728 l 192 263 l 65 263 l 65 747 q 97 838 65 807 q 196 869 128 869 l 279 869 l 279 768 l 233 768 q 200 760 208 768 q 192 728 192 753 m 192 332 l 192 142 q 200 110 192 118 q 233 101 208 101 l 276 101 l 276 0 l 196 0 q 97 31 128 0 q 65 122 65 63 l 65 332 l 192 332 z "},"Ō":{"ha":546,"x_min":65,"x_max":481,"o":"m 354 264 l 354 728 q 347 760 354 753 q 313 768 339 768 l 267 768 l 267 869 l 350 869 q 449 838 418 869 q 481 747 481 807 l 481 264 l 354 264 m 354 142 l 354 322 l 481 322 l 481 122 q 449 31 481 63 q 350 0 418 0 l 258 0 l 258 101 l 313 101 q 347 110 339 101 q 354 142 354 118 m 192 728 l 192 263 l 65 263 l 65 747 q 97 838 65 807 q 196 869 128 869 l 279 869 l 279 768 l 233 768 q 200 760 208 768 q 192 728 192 753 m 192 332 l 192 142 q 200 110 192 118 q 233 101 208 101 l 276 101 l 276 0 l 196 0 q 97 31 128 0 q 65 122 65 63 l 65 332 l 192 332 m 86 914 l 86 1008 l 460 1008 l 460 914 l 86 914 z "},"Ø":{"ha":557,"x_min":69,"x_max":489,"o":"m 486 747 l 486 122 q 455 31 486 63 q 356 0 424 0 l 201 0 q 102 31 133 0 q 71 122 71 63 l 71 747 q 102 838 71 807 q 201 869 133 869 l 356 869 q 455 838 424 869 q 486 747 486 807 m 364 136 l 364 735 q 356 767 364 760 q 321 775 347 775 l 235 775 q 201 767 210 775 q 193 735 193 760 l 193 136 q 201 103 193 111 q 235 94 210 94 l 321 94 q 356 103 347 94 q 364 136 364 111 m 415 897 l 489 897 l 143 -28 l 69 -28 l 415 897 z "},"Õ":{"ha":546,"x_min":65,"x_max":481,"o":"m 354 264 l 354 728 q 347 760 354 753 q 313 768 339 768 l 267 768 l 267 869 l 350 869 q 449 838 418 869 q 481 747 481 807 l 481 264 l 354 264 m 354 142 l 354 322 l 481 322 l 481 122 q 449 31 481 63 q 350 0 418 0 l 258 0 l 258 101 l 313 101 q 347 110 339 101 q 354 142 354 118 m 192 728 l 192 263 l 65 263 l 65 747 q 97 838 65 807 q 196 869 128 869 l 279 869 l 279 768 l 233 768 q 200 760 208 768 q 192 728 192 753 m 192 332 l 192 142 q 200 110 192 118 q 233 101 208 101 l 276 101 l 276 0 l 196 0 q 97 31 128 0 q 65 122 65 63 l 65 332 l 192 332 m 349 914 q 291 927 317 914 q 246 953 265 940 q 208 967 226 967 q 185 935 185 967 l 185 914 l 76 914 l 76 944 q 100 1026 76 996 q 185 1056 124 1056 l 197 1056 q 253 1042 228 1056 q 297 1016 278 1029 q 332 1003 317 1003 q 353 1009 347 1003 q 358 1036 358 1015 l 358 1056 l 465 1056 l 465 1024 q 443 943 465 972 q 358 914 421 914 l 349 914 z "},"P":{"ha":526,"x_min":72,"x_max":488,"o":"m 361 478 l 361 728 q 353 760 361 753 q 319 768 346 768 l 89 768 l 89 869 l 357 869 q 456 838 425 869 q 488 747 488 807 l 488 458 q 456 367 488 399 q 357 336 425 336 l 133 336 l 133 436 l 319 436 q 353 444 346 436 q 361 478 361 453 m 72 869 l 197 869 l 197 0 l 72 0 l 72 869 z "},"Q":{"ha":546,"x_min":65,"x_max":500,"o":"m 354 264 l 354 728 q 347 760 354 753 q 313 768 339 768 l 267 768 l 267 869 l 350 869 q 449 838 418 869 q 481 747 481 807 l 481 264 l 354 264 m 354 142 l 354 322 l 481 322 l 481 122 q 449 31 481 63 q 350 0 418 0 l 258 0 l 258 101 l 313 101 q 347 110 339 101 q 354 142 354 118 m 192 728 l 192 263 l 65 263 l 65 747 q 97 838 65 807 q 196 869 128 869 l 279 869 l 279 768 l 233 768 q 200 760 208 768 q 192 728 192 753 m 192 332 l 192 142 q 200 110 192 118 q 233 101 208 101 l 276 101 l 276 0 l 196 0 q 97 31 128 0 q 65 122 65 63 l 65 332 l 192 332 m 219 76 l 350 76 l 500 -126 l 367 -126 l 219 76 z "},"R":{"ha":550,"x_min":72,"x_max":532,"o":"m 361 492 l 361 728 q 353 760 361 753 q 319 768 346 768 l 89 768 l 89 869 l 357 869 q 456 838 425 869 q 488 747 488 807 l 488 475 q 456 383 488 414 q 357 351 425 351 l 133 351 l 133 451 l 319 451 q 353 460 346 451 q 361 492 361 468 m 72 869 l 197 869 l 197 0 l 72 0 l 72 869 m 247 401 l 375 401 l 532 0 l 396 0 l 247 401 z "},"Ŕ":{"ha":550,"x_min":72,"x_max":532,"o":"m 361 492 l 361 728 q 353 760 361 753 q 319 768 346 768 l 89 768 l 89 869 l 357 869 q 456 838 425 869 q 488 747 488 807 l 488 475 q 456 383 488 414 q 357 351 425 351 l 133 351 l 133 451 l 319 451 q 353 460 346 451 q 361 492 361 468 m 72 869 l 197 869 l 197 0 l 72 0 l 72 869 m 247 401 l 375 401 l 532 0 l 396 0 l 247 401 m 214 913 l 328 1096 l 467 1096 l 321 913 l 214 913 z "},"Ř":{"ha":550,"x_min":69,"x_max":532,"o":"m 361 492 l 361 728 q 353 760 361 753 q 319 768 346 768 l 89 768 l 89 869 l 357 869 q 456 838 425 869 q 488 747 488 807 l 488 475 q 456 383 488 414 q 357 351 425 351 l 133 351 l 133 451 l 319 451 q 353 460 346 451 q 361 492 361 468 m 72 869 l 197 869 l 197 0 l 72 0 l 72 869 m 247 401 l 375 401 l 532 0 l 396 0 l 247 401 m 203 913 l 69 1096 l 200 1096 l 272 983 l 346 1096 l 475 1096 l 343 913 l 203 913 z "},"Ŗ":{"ha":550,"x_min":72,"x_max":532,"o":"m 361 492 l 361 728 q 353 760 361 753 q 319 768 346 768 l 89 768 l 89 869 l 357 869 q 456 838 425 869 q 488 747 488 807 l 488 475 q 456 383 488 414 q 357 351 425 351 l 133 351 l 133 451 l 319 451 q 353 460 346 451 q 361 492 361 468 m 72 869 l 197 869 l 197 0 l 72 0 l 72 869 m 247 401 l 375 401 l 532 0 l 396 0 l 247 401 m 210 -69 l 347 -69 l 347 -137 l 256 -319 l 210 -319 l 210 -69 z "},"S":{"ha":503,"x_min":53,"x_max":450,"o":"m 322 142 l 322 354 q 315 387 322 379 q 282 394 307 394 l 179 394 q 83 426 113 394 q 53 518 53 458 l 53 747 q 84 838 53 807 q 182 869 115 869 l 318 869 q 417 838 386 869 q 447 747 447 807 l 447 619 l 321 619 l 321 728 q 313 760 321 753 q 279 768 306 768 l 221 768 q 188 760 196 768 q 179 728 179 753 l 179 535 q 188 503 179 511 q 221 494 196 494 l 322 494 q 419 463 389 494 q 450 372 450 432 l 450 122 q 419 31 450 63 q 321 0 388 0 l 185 0 q 87 31 118 0 q 56 122 56 63 l 56 250 l 182 250 l 182 142 q 190 110 182 118 q 224 101 199 101 l 282 101 q 315 110 307 101 q 322 142 322 118 z "},"Ś":{"ha":503,"x_min":53,"x_max":450,"o":"m 322 142 l 322 354 q 315 387 322 379 q 282 394 307 394 l 179 394 q 83 426 113 394 q 53 518 53 458 l 53 747 q 84 838 53 807 q 182 869 115 869 l 318 869 q 417 838 386 869 q 447 747 447 807 l 447 619 l 321 619 l 321 728 q 313 760 321 753 q 279 768 306 768 l 221 768 q 188 760 196 768 q 179 728 179 753 l 179 535 q 188 503 179 511 q 221 494 196 494 l 322 494 q 419 463 389 494 q 450 372 450 432 l 450 122 q 419 31 450 63 q 321 0 388 0 l 185 0 q 87 31 118 0 q 56 122 56 63 l 56 250 l 182 250 l 182 142 q 190 110 182 118 q 224 101 199 101 l 282 101 q 315 110 307 101 q 322 142 322 118 m 197 913 l 311 1096 l 450 1096 l 304 913 l 197 913 z "},"Š":{"ha":503,"x_min":50,"x_max":454,"o":"m 322 142 l 322 354 q 315 387 322 379 q 282 394 307 394 l 179 394 q 83 426 113 394 q 53 518 53 458 l 53 747 q 84 838 53 807 q 182 869 115 869 l 318 869 q 417 838 386 869 q 447 747 447 807 l 447 619 l 321 619 l 321 728 q 313 760 321 753 q 279 768 306 768 l 221 768 q 188 760 196 768 q 179 728 179 753 l 179 535 q 188 503 179 511 q 221 494 196 494 l 322 494 q 419 463 389 494 q 450 372 450 432 l 450 122 q 419 31 450 63 q 321 0 388 0 l 185 0 q 87 31 118 0 q 56 122 56 63 l 56 250 l 182 250 l 182 142 q 190 110 182 118 q 224 101 199 101 l 282 101 q 315 110 307 101 q 322 142 322 118 m 182 913 l 49 1096 l 179 1096 l 251 983 l 325 1096 l 454 1096 l 322 913 l 182 913 z "},"Ş":{"ha":503,"x_min":53,"x_max":450,"o":"m 322 142 l 322 354 q 315 387 322 379 q 282 394 307 394 l 179 394 q 83 426 113 394 q 53 518 53 458 l 53 747 q 84 838 53 807 q 182 869 115 869 l 318 869 q 417 838 386 869 q 447 747 447 807 l 447 619 l 321 619 l 321 728 q 313 760 321 753 q 279 768 306 768 l 221 768 q 188 760 196 768 q 179 728 179 753 l 179 535 q 188 503 179 511 q 221 494 196 494 l 322 494 q 419 463 389 494 q 450 372 450 432 l 450 122 q 419 31 450 63 q 321 0 388 0 l 185 0 q 87 31 118 0 q 56 122 56 63 l 56 250 l 182 250 l 182 142 q 190 110 182 118 q 224 101 199 101 l 282 101 q 315 110 307 101 q 322 142 322 118 m 185 -69 l 321 -69 l 321 -137 l 229 -319 l 185 -319 l 185 -69 z "},"Ș":{"ha":503,"x_min":53,"x_max":450,"o":"m 322 142 l 322 354 q 315 387 322 379 q 282 394 307 394 l 179 394 q 83 426 113 394 q 53 518 53 458 l 53 747 q 84 838 53 807 q 182 869 115 869 l 318 869 q 417 838 386 869 q 447 747 447 807 l 447 619 l 321 619 l 321 728 q 313 760 321 753 q 279 768 306 768 l 221 768 q 188 760 196 768 q 179 728 179 753 l 179 535 q 188 503 179 511 q 221 494 196 494 l 322 494 q 419 463 389 494 q 450 372 450 432 l 450 122 q 419 31 450 63 q 321 0 388 0 l 185 0 q 87 31 118 0 q 56 122 56 63 l 56 250 l 182 250 l 182 142 q 190 110 182 118 q 224 101 199 101 l 282 101 q 315 110 307 101 q 322 142 322 118 m 185 -69 l 321 -69 l 321 -137 l 229 -319 l 185 -319 l 185 -69 z "},"T":{"ha":431,"x_min":7,"x_max":424,"o":"m 153 853 l 278 853 l 278 0 l 153 0 l 153 853 m 424 869 l 424 768 l 7 768 l 7 869 l 424 869 z "},"Ť":{"ha":431,"x_min":7,"x_max":424,"o":"m 153 853 l 278 853 l 278 0 l 153 0 l 153 853 m 424 869 l 424 768 l 7 768 l 7 869 l 424 869 m 146 913 l 13 1096 l 143 1096 l 215 983 l 289 1096 l 418 1096 l 286 913 l 146 913 z "},"Ţ":{"ha":431,"x_min":7,"x_max":424,"o":"m 153 853 l 278 853 l 278 0 l 153 0 l 153 853 m 424 869 l 424 768 l 7 768 l 7 869 l 424 869 m 146 -69 l 282 -69 l 282 -137 l 190 -319 l 146 -319 l 146 -69 z "},"Ț":{"ha":431,"x_min":7,"x_max":424,"o":"m 153 853 l 278 853 l 278 0 l 153 0 l 153 853 m 424 869 l 424 768 l 7 768 l 7 869 l 424 869 m 149 -69 l 286 -69 l 286 -137 l 194 -319 l 149 -319 l 149 -69 z "},"Þ":{"ha":535,"x_min":74,"x_max":486,"o":"m 360 311 l 360 558 q 352 591 360 583 q 318 599 344 599 l 124 599 l 124 699 l 356 699 q 455 667 424 699 q 486 576 486 636 l 486 293 q 455 202 486 233 q 356 171 424 171 l 135 171 l 135 271 l 318 271 q 352 279 344 271 q 360 311 360 288 m 74 869 l 199 869 l 199 0 l 74 0 l 74 869 z "},"U":{"ha":551,"x_min":68,"x_max":483,"o":"m 357 142 l 357 869 l 483 869 l 483 122 q 452 31 483 63 q 353 0 421 0 l 261 0 l 261 101 l 317 101 q 349 110 342 101 q 357 142 357 118 m 194 869 l 194 142 q 203 110 194 118 q 236 101 211 101 l 279 101 l 279 0 l 199 0 q 99 31 131 0 q 68 122 68 63 l 68 869 l 194 869 z "},"Ú":{"ha":551,"x_min":68,"x_max":483,"o":"m 357 142 l 357 869 l 483 869 l 483 122 q 452 31 483 63 q 353 0 421 0 l 261 0 l 261 101 l 317 101 q 349 110 342 101 q 357 142 357 118 m 194 869 l 194 142 q 203 110 194 118 q 236 101 211 101 l 279 101 l 279 0 l 199 0 q 99 31 131 0 q 68 122 68 63 l 68 869 l 194 869 m 219 913 l 333 1096 l 472 1096 l 326 913 l 219 913 z "},"Û":{"ha":551,"x_min":68,"x_max":483,"o":"m 357 142 l 357 869 l 483 869 l 483 122 q 452 31 483 63 q 353 0 421 0 l 261 0 l 261 101 l 317 101 q 349 110 342 101 q 357 142 357 118 m 194 869 l 194 142 q 203 110 194 118 q 236 101 211 101 l 279 101 l 279 0 l 199 0 q 99 31 131 0 q 68 122 68 63 l 68 869 l 194 869 m 72 913 l 206 1096 l 346 1096 l 478 913 l 349 913 l 275 1025 l 203 913 l 72 913 z "},"Ü":{"ha":551,"x_min":68,"x_max":483,"o":"m 74 913 l 74 1043 l 215 1043 l 215 913 l 74 913 m 338 913 l 338 1043 l 478 1043 l 478 913 l 338 913 m 357 142 l 357 869 l 483 869 l 483 122 q 452 31 483 63 q 353 0 421 0 l 261 0 l 261 101 l 317 101 q 349 110 342 101 q 357 142 357 118 m 194 869 l 194 142 q 203 110 194 118 q 236 101 211 101 l 279 101 l 279 0 l 199 0 q 99 31 131 0 q 68 122 68 63 l 68 869 l 194 869 z "},"Ù":{"ha":551,"x_min":68,"x_max":483,"o":"m 357 142 l 357 869 l 483 869 l 483 122 q 452 31 483 63 q 353 0 421 0 l 261 0 l 261 101 l 317 101 q 349 110 342 101 q 357 142 357 118 m 194 869 l 194 142 q 203 110 194 118 q 236 101 211 101 l 279 101 l 279 0 l 199 0 q 99 31 131 0 q 68 122 68 63 l 68 869 l 194 869 m 215 1096 l 329 913 l 222 913 l 76 1096 l 215 1096 z "},"Ű":{"ha":546,"x_min":68,"x_max":544,"o":"m 306 913 l 419 1096 l 544 1096 l 397 913 l 306 913 m 140 913 l 254 1096 l 379 1096 l 232 913 l 140 913 m 357 142 l 357 869 l 483 869 l 483 122 q 452 31 483 63 q 353 0 421 0 l 261 0 l 261 101 l 317 101 q 349 110 342 101 q 357 142 357 118 m 194 869 l 194 142 q 203 110 194 118 q 236 101 211 101 l 279 101 l 279 0 l 199 0 q 99 31 131 0 q 68 122 68 63 l 68 869 l 194 869 z "},"Ū":{"ha":551,"x_min":68,"x_max":483,"o":"m 357 142 l 357 869 l 483 869 l 483 122 q 452 31 483 63 q 353 0 421 0 l 261 0 l 261 101 l 317 101 q 349 110 342 101 q 357 142 357 118 m 194 869 l 194 142 q 203 110 194 118 q 236 101 211 101 l 279 101 l 279 0 l 199 0 q 99 31 131 0 q 68 122 68 63 l 68 869 l 194 869 m 90 914 l 90 1008 l 464 1008 l 464 914 l 90 914 z "},"Ų":{"ha":551,"x_min":68,"x_max":483,"o":"m 357 142 l 357 869 l 483 869 l 483 122 q 452 31 483 63 q 353 0 421 0 l 261 0 l 261 101 l 317 101 q 349 110 342 101 q 357 142 357 118 m 194 869 l 194 142 q 203 110 194 118 q 236 101 211 101 l 279 101 l 279 0 l 199 0 q 99 31 131 0 q 68 122 68 63 l 68 869 l 194 869 m 107 -150 q 135 -62 107 -92 q 226 -32 164 -32 l 336 -32 l 336 -119 l 249 -119 q 217 -126 225 -119 q 208 -157 208 -132 l 208 -187 q 217 -217 208 -210 q 249 -225 225 -225 l 361 -225 l 361 -312 l 226 -312 q 135 -283 164 -312 q 107 -196 107 -253 l 107 -150 m 336 -37 l 238 -37 l 238 15 l 336 15 l 336 -37 z "},"Ů":{"ha":551,"x_min":68,"x_max":483,"o":"m 357 142 l 357 869 l 483 869 l 483 122 q 452 31 483 63 q 353 0 421 0 l 261 0 l 261 101 l 317 101 q 349 110 342 101 q 357 142 357 118 m 194 869 l 194 142 q 203 110 194 118 q 236 101 211 101 l 279 101 l 279 0 l 199 0 q 99 31 131 0 q 68 122 68 63 l 68 869 l 194 869 m 421 1035 l 421 1011 q 397 938 421 963 q 319 914 374 914 l 229 914 q 152 938 176 914 q 128 1011 128 963 l 128 1035 q 152 1108 128 1083 q 229 1132 176 1132 l 319 1132 q 397 1108 374 1132 q 421 1035 421 1083 m 333 1018 l 333 1028 q 327 1056 333 1049 q 297 1063 321 1063 l 251 1063 q 222 1056 228 1063 q 215 1028 215 1049 l 215 1018 q 222 990 215 997 q 251 983 228 983 l 297 983 q 327 990 321 983 q 333 1018 333 997 z "},"V":{"ha":506,"x_min":7,"x_max":499,"o":"m 369 869 l 499 869 l 342 0 l 164 0 l 7 869 l 136 869 l 253 115 l 369 869 z "},"W":{"ha":846,"x_min":14,"x_max":832,"o":"m 707 869 l 832 869 l 693 0 l 521 0 l 422 653 l 326 0 l 153 0 l 14 869 l 143 869 l 240 114 l 353 869 l 493 869 l 604 114 l 707 869 z "},"X":{"ha":518,"x_min":6,"x_max":513,"o":"m 326 444 l 513 0 l 375 0 l 258 331 l 142 0 l 6 0 l 189 444 l 18 869 l 157 869 l 258 557 l 358 869 l 496 869 l 326 444 z "},"Y":{"ha":501,"x_min":6,"x_max":496,"o":"m 314 261 l 196 261 l 6 869 l 133 869 l 254 390 l 368 869 l 496 869 l 314 261 m 192 331 l 318 331 l 318 0 l 192 0 l 192 331 z "},"Ý":{"ha":501,"x_min":6,"x_max":496,"o":"m 314 261 l 196 261 l 6 869 l 133 869 l 254 390 l 368 869 l 496 869 l 314 261 m 192 331 l 318 331 l 318 0 l 192 0 l 192 331 m 199 913 l 313 1096 l 451 1096 l 306 913 l 199 913 z "},"Ÿ":{"ha":496,"x_min":6,"x_max":496,"o":"m 50 918 l 50 1049 l 192 1049 l 192 918 l 50 918 m 314 918 l 314 1049 l 454 1049 l 454 918 l 314 918 m 314 261 l 196 261 l 6 869 l 133 869 l 254 390 l 368 869 l 496 869 l 314 261 m 192 331 l 318 331 l 318 0 l 192 0 l 192 331 z "},"Z":{"ha":435,"x_min":11,"x_max":424,"o":"m 424 871 l 424 769 l 26 769 l 26 871 l 424 871 m 296 769 l 424 769 l 139 101 l 11 101 l 296 769 m 417 101 l 417 0 l 11 0 l 11 101 l 417 101 z "},"Ź":{"ha":435,"x_min":11,"x_max":429,"o":"m 424 871 l 424 769 l 26 769 l 26 871 l 424 871 m 296 769 l 424 769 l 139 101 l 11 101 l 296 769 m 417 101 l 417 0 l 11 0 l 11 101 l 417 101 m 176 913 l 290 1096 l 429 1096 l 283 913 l 176 913 z "},"Ž":{"ha":435,"x_min":11,"x_max":426,"o":"m 424 871 l 424 769 l 26 769 l 26 871 l 424 871 m 296 769 l 424 769 l 139 101 l 11 101 l 296 769 m 417 101 l 417 0 l 11 0 l 11 101 l 417 101 m 156 913 l 22 1096 l 153 1096 l 225 983 l 299 1096 l 428 1096 l 296 913 l 156 913 z "},"Ż":{"ha":435,"x_min":11,"x_max":424,"o":"m 424 871 l 424 769 l 26 769 l 26 871 l 424 871 m 296 769 l 424 769 l 139 101 l 11 101 l 296 769 m 417 101 l 417 0 l 11 0 l 11 101 l 417 101 m 156 913 l 156 1046 l 304 1046 l 304 913 l 156 913 z "},"a":{"ha":500,"x_min":53,"x_max":439,"o":"m 178 315 l 53 315 l 53 554 q 83 647 53 615 q 178 678 114 678 l 228 678 q 294 656 269 678 q 319 583 319 633 l 319 490 l 314 490 l 314 528 q 303 565 314 554 q 268 576 292 576 l 219 576 q 186 569 194 576 q 178 536 178 561 l 178 315 m 439 0 l 314 0 l 314 581 l 314 590 l 314 678 l 439 678 l 439 0 m 53 363 l 178 363 l 178 142 q 186 110 178 118 q 219 101 194 101 l 268 101 q 303 112 292 101 q 314 150 314 122 l 314 186 l 319 186 l 319 94 q 294 22 319 44 q 228 0 269 0 l 178 0 q 83 31 114 0 q 53 122 53 63 l 53 363 z "},"á":{"ha":500,"x_min":53,"x_max":457,"o":"m 178 315 l 53 315 l 53 554 q 83 647 53 615 q 178 678 114 678 l 228 678 q 294 656 269 678 q 319 583 319 633 l 319 490 l 314 490 l 314 528 q 303 565 314 554 q 268 576 292 576 l 219 576 q 186 569 194 576 q 178 536 178 561 l 178 315 m 439 0 l 314 0 l 314 581 l 314 590 l 314 678 l 439 678 l 439 0 m 53 363 l 178 363 l 178 142 q 186 110 178 118 q 219 101 194 101 l 268 101 q 303 112 292 101 q 314 150 314 122 l 314 186 l 319 186 l 319 94 q 294 22 319 44 q 228 0 269 0 l 178 0 q 83 31 114 0 q 53 122 53 63 l 53 363 m 203 721 l 317 904 l 456 904 l 310 721 l 203 721 z "},"ă":{"ha":500,"x_min":53,"x_max":454,"o":"m 178 315 l 53 315 l 53 554 q 83 647 53 615 q 178 678 114 678 l 228 678 q 294 656 269 678 q 319 583 319 633 l 319 490 l 314 490 l 314 528 q 303 565 314 554 q 268 576 292 576 l 219 576 q 186 569 194 576 q 178 536 178 561 l 178 315 m 439 0 l 314 0 l 314 581 l 314 590 l 314 678 l 439 678 l 439 0 m 53 363 l 178 363 l 178 142 q 186 110 178 118 q 219 101 194 101 l 268 101 q 303 112 292 101 q 314 150 314 122 l 314 186 l 319 186 l 319 94 q 294 22 319 44 q 228 0 269 0 l 178 0 q 83 31 114 0 q 53 122 53 63 l 53 363 m 338 904 l 454 904 l 454 844 q 423 752 454 783 q 324 721 392 721 l 244 721 l 244 811 l 296 811 q 330 819 322 811 q 338 851 338 826 l 338 904 m 53 904 l 169 904 l 169 851 q 178 819 169 826 q 211 811 186 811 l 263 811 l 263 721 l 183 721 q 84 752 115 721 q 53 844 53 783 l 53 904 z "},"â":{"ha":500,"x_min":51,"x_max":456,"o":"m 178 315 l 53 315 l 53 554 q 83 647 53 615 q 178 678 114 678 l 228 678 q 294 656 269 678 q 319 583 319 633 l 319 490 l 314 490 l 314 528 q 303 565 314 554 q 268 576 292 576 l 219 576 q 186 569 194 576 q 178 536 178 561 l 178 315 m 439 0 l 314 0 l 314 581 l 314 590 l 314 678 l 439 678 l 439 0 m 53 363 l 178 363 l 178 142 q 186 110 178 118 q 219 101 194 101 l 268 101 q 303 112 292 101 q 314 150 314 122 l 314 186 l 319 186 l 319 94 q 294 22 319 44 q 228 0 269 0 l 178 0 q 83 31 114 0 q 53 122 53 63 l 53 363 m 50 721 l 183 904 l 324 904 l 456 721 l 326 721 l 253 833 l 181 721 l 50 721 z "},"ä":{"ha":500,"x_min":46,"x_max":450,"o":"m 46 751 l 46 882 l 188 882 l 188 751 l 46 751 m 310 751 l 310 882 l 450 882 l 450 751 l 310 751 m 178 315 l 53 315 l 53 554 q 83 647 53 615 q 178 678 114 678 l 228 678 q 294 656 269 678 q 319 583 319 633 l 319 490 l 314 490 l 314 528 q 303 565 314 554 q 268 576 292 576 l 219 576 q 186 569 194 576 q 178 536 178 561 l 178 315 m 439 0 l 314 0 l 314 581 l 314 590 l 314 678 l 439 678 l 439 0 m 53 363 l 178 363 l 178 142 q 186 110 178 118 q 219 101 194 101 l 268 101 q 303 112 292 101 q 314 150 314 122 l 314 186 l 319 186 l 319 94 q 294 22 319 44 q 228 0 269 0 l 178 0 q 83 31 114 0 q 53 122 53 63 l 53 363 z "},"æ":{"ha":774,"x_min":60,"x_max":717,"o":"m 365 406 l 399 319 l 185 233 l 60 281 l 365 406 m 60 281 l 185 233 l 185 142 q 193 110 185 118 q 226 101 201 101 l 275 101 q 308 110 297 101 q 321 143 319 119 l 321 535 q 275 576 317 576 l 226 576 q 193 569 201 576 q 185 536 185 561 l 185 432 l 60 432 l 60 554 q 90 647 60 615 q 185 678 121 678 l 283 678 q 345 660 319 678 q 379 619 371 643 q 413 660 388 643 q 478 678 438 678 l 586 678 q 685 647 654 678 q 717 554 717 615 l 717 306 l 592 306 l 592 538 q 584 570 592 563 q 551 578 576 578 l 486 578 q 453 570 461 578 q 444 538 444 563 l 444 140 q 453 108 444 117 q 486 100 461 100 l 547 100 q 581 108 574 100 q 589 140 589 117 l 589 196 l 713 196 l 713 122 q 681 31 713 63 q 583 0 650 0 l 476 0 q 413 18 438 0 q 378 58 388 36 q 344 18 369 36 q 282 0 319 0 l 185 0 q 90 31 121 0 q 60 122 60 63 l 60 281 m 701 393 l 701 299 l 365 299 l 365 393 l 701 393 z "},"à":{"ha":500,"x_min":53,"x_max":439,"o":"m 178 315 l 53 315 l 53 554 q 83 647 53 615 q 178 678 114 678 l 228 678 q 294 656 269 678 q 319 583 319 633 l 319 490 l 314 490 l 314 528 q 303 565 314 554 q 268 576 292 576 l 219 576 q 186 569 194 576 q 178 536 178 561 l 178 315 m 439 0 l 314 0 l 314 581 l 314 590 l 314 678 l 439 678 l 439 0 m 53 363 l 178 363 l 178 142 q 186 110 178 118 q 219 101 194 101 l 268 101 q 303 112 292 101 q 314 150 314 122 l 314 186 l 319 186 l 319 94 q 294 22 319 44 q 228 0 269 0 l 178 0 q 83 31 114 0 q 53 122 53 63 l 53 363 m 226 904 l 340 721 l 233 721 l 88 904 l 226 904 z "},"ā":{"ha":500,"x_min":53,"x_max":439,"o":"m 178 315 l 53 315 l 53 554 q 83 647 53 615 q 178 678 114 678 l 228 678 q 294 656 269 678 q 319 583 319 633 l 319 490 l 314 490 l 314 528 q 303 565 314 554 q 268 576 292 576 l 219 576 q 186 569 194 576 q 178 536 178 561 l 178 315 m 439 0 l 314 0 l 314 581 l 314 590 l 314 678 l 439 678 l 439 0 m 53 363 l 178 363 l 178 142 q 186 110 178 118 q 219 101 194 101 l 268 101 q 303 112 292 101 q 314 150 314 122 l 314 186 l 319 186 l 319 94 q 294 22 319 44 q 228 0 269 0 l 178 0 q 83 31 114 0 q 53 122 53 63 l 53 363 m 58 765 l 58 860 l 432 860 l 432 765 l 58 765 z "},"ą":{"ha":500,"x_min":53,"x_max":464,"o":"m 178 315 l 53 315 l 53 554 q 83 647 53 615 q 178 678 114 678 l 228 678 q 294 656 269 678 q 319 583 319 633 l 319 490 l 314 490 l 314 528 q 303 565 314 554 q 268 576 292 576 l 219 576 q 186 569 194 576 q 178 536 178 561 l 178 315 m 439 0 l 314 0 l 314 581 l 314 590 l 314 678 l 439 678 l 439 0 m 53 363 l 178 363 l 178 142 q 186 110 178 118 q 219 101 194 101 l 268 101 q 303 112 292 101 q 314 150 314 122 l 314 186 l 319 186 l 319 94 q 294 22 319 44 q 228 0 269 0 l 178 0 q 83 31 114 0 q 53 122 53 63 l 53 363 m 210 -150 q 238 -62 210 -92 q 329 -32 267 -32 l 439 -32 l 439 -119 l 351 -119 q 319 -126 328 -119 q 311 -157 311 -132 l 311 -187 q 319 -217 311 -210 q 351 -225 328 -225 l 464 -225 l 464 -312 l 329 -312 q 238 -283 267 -312 q 210 -196 210 -253 l 210 -150 m 439 -37 l 340 -37 l 340 15 l 439 15 l 439 -37 z "},"å":{"ha":500,"x_min":53,"x_max":439,"o":"m 178 315 l 53 315 l 53 554 q 83 647 53 615 q 178 678 114 678 l 228 678 q 294 656 269 678 q 319 583 319 633 l 319 490 l 314 490 l 314 528 q 303 565 314 554 q 268 576 292 576 l 219 576 q 186 569 194 576 q 178 536 178 561 l 178 315 m 439 0 l 314 0 l 314 581 l 314 590 l 314 678 l 439 678 l 439 0 m 53 363 l 178 363 l 178 142 q 186 110 178 118 q 219 101 194 101 l 268 101 q 303 112 292 101 q 314 150 314 122 l 314 186 l 319 186 l 319 94 q 294 22 319 44 q 228 0 269 0 l 178 0 q 83 31 114 0 q 53 122 53 63 l 53 363 m 401 854 l 401 831 q 378 758 401 782 q 300 733 354 733 l 210 733 q 133 758 157 733 q 108 831 108 782 l 108 854 q 133 927 108 903 q 210 951 157 951 l 300 951 q 378 927 354 951 q 401 854 401 903 m 314 838 l 314 847 q 308 875 314 868 q 278 882 301 882 l 232 882 q 202 875 208 882 q 196 847 196 868 l 196 838 q 202 810 196 817 q 232 803 208 803 l 278 803 q 308 810 301 803 q 314 838 314 817 z "},"ã":{"ha":500,"x_min":50,"x_max":439,"o":"m 178 315 l 53 315 l 53 554 q 83 647 53 615 q 178 678 114 678 l 228 678 q 294 656 269 678 q 319 583 319 633 l 319 490 l 314 490 l 314 528 q 303 565 314 554 q 268 576 292 576 l 219 576 q 186 569 194 576 q 178 536 178 561 l 178 315 m 439 0 l 314 0 l 314 581 l 314 590 l 314 678 l 439 678 l 439 0 m 53 363 l 178 363 l 178 142 q 186 110 178 118 q 219 101 194 101 l 268 101 q 303 112 292 101 q 314 150 314 122 l 314 186 l 319 186 l 319 94 q 294 22 319 44 q 228 0 269 0 l 178 0 q 83 31 114 0 q 53 122 53 63 l 53 363 m 321 742 q 263 755 289 742 q 218 781 238 768 q 181 794 199 794 q 157 763 157 794 l 157 742 l 49 742 l 49 772 q 72 853 49 824 q 157 883 96 883 l 169 883 q 225 870 200 883 q 269 844 250 857 q 304 831 289 831 q 325 837 319 831 q 331 864 331 843 l 331 883 l 438 883 l 438 851 q 415 771 438 800 q 331 742 393 742 l 321 742 z "},"b":{"ha":500,"x_min":61,"x_max":447,"o":"m 322 363 l 447 363 l 447 122 q 417 31 447 63 q 322 0 386 0 l 272 0 q 206 22 231 0 q 181 94 181 44 l 181 182 l 186 182 l 186 150 q 197 112 186 122 q 232 101 208 101 l 281 101 q 314 110 306 101 q 322 142 322 118 l 322 363 m 447 317 l 322 317 l 322 538 q 314 570 322 563 q 281 578 306 578 l 232 578 q 197 567 208 578 q 186 529 186 556 l 186 485 l 181 485 l 181 585 q 206 657 181 635 q 272 679 231 679 l 322 679 q 417 648 386 679 q 447 556 447 617 l 447 317 m 61 929 l 186 929 l 186 93 l 186 86 l 186 0 l 61 0 l 61 929 z "},"c":{"ha":489,"x_min":53,"x_max":444,"o":"m 178 536 l 178 142 q 186 110 178 118 q 219 101 194 101 l 251 101 l 251 0 l 182 0 q 84 31 115 0 q 53 122 53 63 l 53 554 q 84 647 53 615 q 182 678 115 678 l 258 678 l 258 576 l 219 576 q 186 569 194 576 q 178 536 178 561 m 321 464 l 321 536 q 313 569 321 561 q 279 576 304 576 l 239 576 l 239 678 l 314 678 q 413 647 382 678 q 444 554 444 615 l 444 464 l 321 464 m 321 142 l 321 214 l 444 214 l 444 122 q 413 31 444 63 q 314 0 382 0 l 239 0 l 239 101 l 279 101 q 313 110 304 101 q 321 142 321 118 z "},"ć":{"ha":489,"x_min":53,"x_max":446,"o":"m 178 536 l 178 142 q 186 110 178 118 q 219 101 194 101 l 251 101 l 251 0 l 182 0 q 84 31 115 0 q 53 122 53 63 l 53 554 q 84 647 53 615 q 182 678 115 678 l 258 678 l 258 576 l 219 576 q 186 569 194 576 q 178 536 178 561 m 321 464 l 321 536 q 313 569 321 561 q 279 576 304 576 l 239 576 l 239 678 l 314 678 q 413 647 382 678 q 444 554 444 615 l 444 464 l 321 464 m 321 142 l 321 214 l 444 214 l 444 122 q 413 31 444 63 q 314 0 382 0 l 239 0 l 239 101 l 279 101 q 313 110 304 101 q 321 142 321 118 m 193 721 l 307 904 l 446 904 l 300 721 l 193 721 z "},"č":{"ha":489,"x_min":46,"x_max":451,"o":"m 178 536 l 178 142 q 186 110 178 118 q 219 101 194 101 l 251 101 l 251 0 l 182 0 q 84 31 115 0 q 53 122 53 63 l 53 554 q 84 647 53 615 q 182 678 115 678 l 258 678 l 258 576 l 219 576 q 186 569 194 576 q 178 536 178 561 m 321 464 l 321 536 q 313 569 321 561 q 279 576 304 576 l 239 576 l 239 678 l 314 678 q 413 647 382 678 q 444 554 444 615 l 444 464 l 321 464 m 321 142 l 321 214 l 444 214 l 444 122 q 413 31 444 63 q 314 0 382 0 l 239 0 l 239 101 l 279 101 q 313 110 304 101 q 321 142 321 118 m 179 721 l 46 904 l 176 904 l 249 792 l 322 904 l 451 904 l 319 721 l 179 721 z "},"ç":{"ha":489,"x_min":53,"x_max":444,"o":"m 178 536 l 178 142 q 186 110 178 118 q 219 101 194 101 l 251 101 l 251 0 l 182 0 q 84 31 115 0 q 53 122 53 63 l 53 554 q 84 647 53 615 q 182 678 115 678 l 258 678 l 258 576 l 219 576 q 186 569 194 576 q 178 536 178 561 m 321 464 l 321 536 q 313 569 321 561 q 279 576 304 576 l 239 576 l 239 678 l 314 678 q 413 647 382 678 q 444 554 444 615 l 444 464 l 321 464 m 321 142 l 321 214 l 444 214 l 444 122 q 413 31 444 63 q 314 0 382 0 l 239 0 l 239 101 l 279 101 q 313 110 304 101 q 321 142 321 118 m 194 -117 l 194 -69 l 313 -69 l 313 -126 q 276 -226 313 -193 q 172 -260 240 -260 l 93 -260 l 93 -162 l 149 -162 q 185 -151 175 -162 q 194 -117 194 -140 z "},"d":{"ha":500,"x_min":53,"x_max":439,"o":"m 178 317 l 53 317 l 53 556 q 83 648 53 617 q 178 679 114 679 l 228 679 q 294 657 269 679 q 319 585 319 635 l 319 485 l 314 485 l 314 529 q 303 567 314 556 q 268 578 292 578 l 219 578 q 186 570 194 578 q 178 538 178 563 l 178 317 m 314 929 l 439 929 l 439 0 l 314 0 l 314 86 l 314 93 l 314 929 m 53 363 l 178 363 l 178 142 q 186 110 178 118 q 219 101 194 101 l 268 101 q 303 112 292 101 q 314 150 314 122 l 314 182 l 319 182 l 319 94 q 294 22 319 44 q 228 0 269 0 l 178 0 q 83 31 114 0 q 53 122 53 63 l 53 363 z "},"ď":{"ha":540,"x_min":53,"x_max":601,"o":"m 500 929 l 601 929 l 601 864 l 542 692 l 500 692 l 500 929 m 178 317 l 53 317 l 53 556 q 83 648 53 617 q 178 679 114 679 l 228 679 q 294 657 269 679 q 319 585 319 635 l 319 485 l 314 485 l 314 529 q 303 567 314 556 q 268 578 292 578 l 219 578 q 186 570 194 578 q 178 538 178 563 l 178 317 m 314 929 l 439 929 l 439 0 l 314 0 l 314 86 l 314 93 l 314 929 m 53 363 l 178 363 l 178 142 q 186 110 178 118 q 219 101 194 101 l 268 101 q 303 112 292 101 q 314 150 314 122 l 314 182 l 319 182 l 319 94 q 294 22 319 44 q 228 0 269 0 l 178 0 q 83 31 114 0 q 53 122 53 63 l 53 363 z "},"đ":{"ha":507,"x_min":60,"x_max":510,"o":"m 185 315 l 60 315 l 60 554 q 90 647 60 615 q 185 678 121 678 l 235 678 q 301 656 276 678 q 326 583 326 633 l 326 483 l 321 483 l 321 528 q 310 565 321 554 q 275 576 299 576 l 226 576 q 193 569 201 576 q 185 536 185 561 l 185 315 m 321 929 l 446 929 l 446 0 l 321 0 l 321 86 l 321 93 l 321 929 m 60 363 l 185 363 l 185 142 q 193 110 185 118 q 226 101 201 101 l 275 101 q 310 112 299 101 q 321 150 321 122 l 321 182 l 326 182 l 326 94 q 301 22 326 44 q 235 0 276 0 l 185 0 q 90 31 121 0 q 60 122 60 63 l 60 363 m 510 843 l 510 757 l 210 757 l 210 843 l 510 843 z "},"ı":{"ha":247,"x_min":61,"x_max":186,"o":"m 186 0 l 61 0 l 61 678 l 186 678 l 186 0 z "},"e":{"ha":500,"x_min":58,"x_max":454,"o":"m 181 539 l 181 139 q 189 107 181 115 q 222 99 197 99 l 257 99 l 257 0 l 188 0 q 90 31 121 0 q 58 122 58 63 l 58 554 q 90 647 58 615 q 188 678 121 678 l 264 678 l 264 579 l 222 579 q 189 572 197 579 q 181 539 181 564 m 331 318 l 331 539 q 323 572 331 564 q 290 579 315 579 l 246 579 l 246 678 l 324 678 q 423 647 392 678 q 454 554 454 615 l 454 318 l 331 318 m 328 140 l 328 196 l 450 196 l 450 122 q 419 31 450 63 q 321 0 389 0 l 246 0 l 246 99 l 286 99 q 320 107 313 99 q 328 140 328 115 m 454 392 l 454 300 l 103 300 l 103 392 l 454 392 z "},"é":{"ha":500,"x_min":58,"x_max":454,"o":"m 181 539 l 181 139 q 189 107 181 115 q 222 99 197 99 l 257 99 l 257 0 l 188 0 q 90 31 121 0 q 58 122 58 63 l 58 554 q 90 647 58 615 q 188 678 121 678 l 264 678 l 264 579 l 222 579 q 189 572 197 579 q 181 539 181 564 m 331 318 l 331 539 q 323 572 331 564 q 290 579 315 579 l 246 579 l 246 678 l 324 678 q 423 647 392 678 q 454 554 454 615 l 454 318 l 331 318 m 328 140 l 328 196 l 450 196 l 450 122 q 419 31 450 63 q 321 0 389 0 l 246 0 l 246 99 l 286 99 q 320 107 313 99 q 328 140 328 115 m 454 392 l 454 300 l 103 300 l 103 392 l 454 392 m 201 721 l 315 904 l 454 904 l 308 721 l 201 721 z "},"ě":{"ha":500,"x_min":53,"x_max":458,"o":"m 181 539 l 181 139 q 189 107 181 115 q 222 99 197 99 l 257 99 l 257 0 l 188 0 q 90 31 121 0 q 58 122 58 63 l 58 554 q 90 647 58 615 q 188 678 121 678 l 264 678 l 264 579 l 222 579 q 189 572 197 579 q 181 539 181 564 m 331 318 l 331 539 q 323 572 331 564 q 290 579 315 579 l 246 579 l 246 678 l 324 678 q 423 647 392 678 q 454 554 454 615 l 454 318 l 331 318 m 328 140 l 328 196 l 450 196 l 450 122 q 419 31 450 63 q 321 0 389 0 l 246 0 l 246 99 l 286 99 q 320 107 313 99 q 328 140 328 115 m 454 392 l 454 300 l 103 300 l 103 392 l 454 392 m 186 721 l 53 904 l 183 904 l 256 792 l 329 904 l 458 904 l 326 721 l 186 721 z "},"ê":{"ha":497,"x_min":56,"x_max":461,"o":"m 56 721 l 189 904 l 329 904 l 461 721 l 332 721 l 258 833 l 186 721 l 56 721 m 181 539 l 181 139 q 189 107 181 115 q 222 99 197 99 l 257 99 l 257 0 l 188 0 q 90 31 121 0 q 58 122 58 63 l 58 554 q 90 647 58 615 q 188 678 121 678 l 264 678 l 264 579 l 222 579 q 189 572 197 579 q 181 539 181 564 m 331 318 l 331 539 q 323 572 331 564 q 290 579 315 579 l 246 579 l 246 678 l 324 678 q 423 647 392 678 q 454 554 454 615 l 454 318 l 331 318 m 328 140 l 328 196 l 450 196 l 450 122 q 419 31 450 63 q 321 0 389 0 l 246 0 l 246 99 l 286 99 q 320 107 313 99 q 328 140 328 115 m 454 392 l 454 300 l 103 300 l 103 392 l 454 392 z "},"ë":{"ha":497,"x_min":47,"x_max":454,"o":"m 47 751 l 47 882 l 189 882 l 189 751 l 47 751 m 311 751 l 311 882 l 451 882 l 451 751 l 311 751 m 181 539 l 181 139 q 189 107 181 115 q 222 99 197 99 l 257 99 l 257 0 l 188 0 q 90 31 121 0 q 58 122 58 63 l 58 554 q 90 647 58 615 q 188 678 121 678 l 264 678 l 264 579 l 222 579 q 189 572 197 579 q 181 539 181 564 m 331 318 l 331 539 q 323 572 331 564 q 290 579 315 579 l 246 579 l 246 678 l 324 678 q 423 647 392 678 q 454 554 454 615 l 454 318 l 331 318 m 328 140 l 328 196 l 450 196 l 450 122 q 419 31 450 63 q 321 0 389 0 l 246 0 l 246 99 l 286 99 q 320 107 313 99 q 328 140 328 115 m 454 392 l 454 300 l 103 300 l 103 392 l 454 392 z "},"ė":{"ha":500,"x_min":58,"x_max":454,"o":"m 181 539 l 181 139 q 189 107 181 115 q 222 99 197 99 l 257 99 l 257 0 l 188 0 q 90 31 121 0 q 58 122 58 63 l 58 554 q 90 647 58 615 q 188 678 121 678 l 264 678 l 264 579 l 222 579 q 189 572 197 579 q 181 539 181 564 m 331 318 l 331 539 q 323 572 331 564 q 290 579 315 579 l 246 579 l 246 678 l 324 678 q 423 647 392 678 q 454 554 454 615 l 454 318 l 331 318 m 328 140 l 328 196 l 450 196 l 450 122 q 419 31 450 63 q 321 0 389 0 l 246 0 l 246 99 l 286 99 q 320 107 313 99 q 328 140 328 115 m 454 392 l 454 300 l 103 300 l 103 392 l 454 392 m 186 746 l 186 879 l 335 879 l 335 746 l 186 746 z "},"è":{"ha":500,"x_min":49,"x_max":454,"o":"m 181 539 l 181 139 q 189 107 181 115 q 222 99 197 99 l 257 99 l 257 0 l 188 0 q 90 31 121 0 q 58 122 58 63 l 58 554 q 90 647 58 615 q 188 678 121 678 l 264 678 l 264 579 l 222 579 q 189 572 197 579 q 181 539 181 564 m 331 318 l 331 539 q 323 572 331 564 q 290 579 315 579 l 246 579 l 246 678 l 324 678 q 423 647 392 678 q 454 554 454 615 l 454 318 l 331 318 m 328 140 l 328 196 l 450 196 l 450 122 q 419 31 450 63 q 321 0 389 0 l 246 0 l 246 99 l 286 99 q 320 107 313 99 q 328 140 328 115 m 454 392 l 454 300 l 103 300 l 103 392 l 454 392 m 188 904 l 301 721 l 194 721 l 49 904 l 188 904 z "},"ē":{"ha":500,"x_min":58,"x_max":454,"o":"m 181 539 l 181 139 q 189 107 181 115 q 222 99 197 99 l 257 99 l 257 0 l 188 0 q 90 31 121 0 q 58 122 58 63 l 58 554 q 90 647 58 615 q 188 678 121 678 l 264 678 l 264 579 l 222 579 q 189 572 197 579 q 181 539 181 564 m 331 318 l 331 539 q 323 572 331 564 q 290 579 315 579 l 246 579 l 246 678 l 324 678 q 423 647 392 678 q 454 554 454 615 l 454 318 l 331 318 m 328 140 l 328 196 l 450 196 l 450 122 q 419 31 450 63 q 321 0 389 0 l 246 0 l 246 99 l 286 99 q 320 107 313 99 q 328 140 328 115 m 454 392 l 454 300 l 103 300 l 103 392 l 454 392 m 63 765 l 63 860 l 436 860 l 436 765 l 63 765 z "},"ę":{"ha":500,"x_min":58,"x_max":454,"o":"m 181 539 l 181 139 q 189 107 181 115 q 222 99 197 99 l 257 99 l 257 0 l 188 0 q 90 31 121 0 q 58 122 58 63 l 58 554 q 90 647 58 615 q 188 678 121 678 l 264 678 l 264 579 l 222 579 q 189 572 197 579 q 181 539 181 564 m 331 318 l 331 539 q 323 572 331 564 q 290 579 315 579 l 246 579 l 246 678 l 324 678 q 423 647 392 678 q 454 554 454 615 l 454 318 l 331 318 m 328 140 l 328 196 l 450 196 l 450 122 q 419 31 450 63 q 321 0 389 0 l 246 0 l 246 99 l 286 99 q 320 107 313 99 q 328 140 328 115 m 454 392 l 454 300 l 103 300 l 103 392 l 454 392 m 85 -150 q 113 -62 85 -92 q 204 -32 142 -32 l 314 -32 l 314 -119 l 226 -119 q 194 -126 203 -119 q 186 -157 186 -132 l 186 -187 q 194 -217 186 -210 q 226 -225 203 -225 l 339 -225 l 339 -312 l 204 -312 q 113 -283 142 -312 q 85 -196 85 -253 l 85 -150 m 314 -37 l 215 -37 l 215 15 l 314 15 l 314 -37 z "},"ð":{"ha":525,"x_min":53,"x_max":460,"o":"m 178 142 q 186 110 178 118 q 219 101 194 101 l 263 101 l 263 0 l 182 0 q 84 31 115 0 q 53 122 53 63 l 53 454 q 84 547 53 515 q 182 578 115 578 l 374 578 l 374 479 l 219 479 q 186 472 194 479 q 178 439 178 464 l 178 142 m 335 417 q 322 535 335 479 q 284 640 308 590 q 229 731 260 689 q 165 808 199 774 q 97 869 132 843 l 271 869 q 338 793 304 838 q 399 694 371 749 q 443 572 426 639 q 460 429 460 506 l 460 122 q 428 31 460 63 q 329 0 397 0 l 250 0 l 250 101 l 293 101 q 327 110 319 101 q 335 142 335 118 l 335 417 m 110 667 l 110 743 l 442 863 l 442 786 l 110 667 z "},"f":{"ha":308,"x_min":8,"x_max":301,"o":"m 201 783 l 201 0 l 76 0 l 76 807 q 108 898 76 867 q 206 929 139 929 l 301 929 l 301 824 l 243 824 q 210 816 218 824 q 201 783 201 808 m 301 678 l 301 576 l 8 576 l 8 678 l 301 678 z "},"g":{"ha":500,"x_min":53,"x_max":439,"o":"m 53 363 l 178 363 l 178 150 q 186 118 178 126 q 219 110 194 110 l 268 110 q 303 121 292 110 q 314 158 314 132 l 314 192 l 319 190 l 319 103 q 294 31 319 53 q 228 8 269 8 l 178 8 q 83 40 114 8 q 53 132 53 71 l 53 363 m 178 315 l 53 315 l 53 554 q 83 647 53 615 q 178 678 114 678 l 228 678 q 294 656 269 678 q 319 583 319 633 l 319 483 l 314 483 l 314 528 q 303 565 314 554 q 268 576 292 576 l 219 576 q 186 569 194 576 q 178 536 178 561 l 178 315 m 314 -53 l 314 24 l 439 24 l 439 -69 q 408 -160 439 -129 q 310 -192 376 -192 l 76 -192 l 76 -93 l 272 -93 q 306 -85 297 -93 q 314 -53 314 -76 m 439 7 l 314 7 l 314 592 l 314 594 l 314 678 l 439 678 l 439 7 z "},"ğ":{"ha":500,"x_min":50,"x_max":450,"o":"m 53 363 l 178 363 l 178 150 q 186 118 178 126 q 219 110 194 110 l 268 110 q 303 121 292 110 q 314 158 314 132 l 314 192 l 319 190 l 319 103 q 294 31 319 53 q 228 8 269 8 l 178 8 q 83 40 114 8 q 53 132 53 71 l 53 363 m 178 315 l 53 315 l 53 554 q 83 647 53 615 q 178 678 114 678 l 228 678 q 294 656 269 678 q 319 583 319 633 l 319 483 l 314 483 l 314 528 q 303 565 314 554 q 268 576 292 576 l 219 576 q 186 569 194 576 q 178 536 178 561 l 178 315 m 314 -53 l 314 24 l 439 24 l 439 -69 q 408 -160 439 -129 q 310 -192 376 -192 l 76 -192 l 76 -93 l 272 -93 q 306 -85 297 -93 q 314 -53 314 -76 m 439 7 l 314 7 l 314 592 l 314 594 l 314 678 l 439 678 l 439 7 m 333 904 l 450 904 l 450 844 q 419 752 450 783 q 319 721 388 721 l 240 721 l 240 811 l 292 811 q 326 819 318 811 q 333 851 333 826 l 333 904 m 49 904 l 165 904 l 165 851 q 174 819 165 826 q 207 811 182 811 l 258 811 l 258 721 l 179 721 q 80 752 111 721 q 49 844 49 783 l 49 904 z "},"ģ":{"ha":500,"x_min":53,"x_max":439,"o":"m 328 721 l 192 721 l 192 789 l 283 971 l 328 971 l 328 721 m 53 363 l 178 363 l 178 150 q 186 118 178 126 q 219 110 194 110 l 268 110 q 303 121 292 110 q 314 158 314 132 l 314 192 l 319 190 l 319 103 q 294 31 319 53 q 228 8 269 8 l 178 8 q 83 40 114 8 q 53 132 53 71 l 53 363 m 178 315 l 53 315 l 53 554 q 83 647 53 615 q 178 678 114 678 l 228 678 q 294 656 269 678 q 319 583 319 633 l 319 483 l 314 483 l 314 528 q 303 565 314 554 q 268 576 292 576 l 219 576 q 186 569 194 576 q 178 536 178 561 l 178 315 m 314 -53 l 314 24 l 439 24 l 439 -69 q 408 -160 439 -129 q 310 -192 376 -192 l 76 -192 l 76 -93 l 272 -93 q 306 -85 297 -93 q 314 -53 314 -76 m 439 7 l 314 7 l 314 592 l 314 594 l 314 678 l 439 678 l 439 7 z "},"ß":{"ha":663,"x_min":63,"x_max":621,"o":"m 278 210 l 401 210 l 401 138 q 410 106 401 114 q 442 97 418 97 l 457 97 q 490 106 482 97 q 497 138 497 114 l 497 250 q 490 283 497 275 q 457 290 482 290 l 404 290 q 308 322 338 290 q 278 414 278 353 l 278 492 q 310 582 278 553 q 400 611 342 611 q 441 617 432 611 q 450 644 450 624 l 450 688 q 443 721 450 713 q 410 729 436 729 l 231 729 q 197 721 206 729 q 189 688 189 713 l 189 0 l 63 0 l 63 711 q 92 802 63 771 q 189 833 122 833 l 450 833 q 546 803 515 833 q 576 713 576 772 l 576 619 q 565 563 576 586 q 530 529 554 540 q 465 518 506 518 l 442 518 q 408 510 417 518 q 399 478 399 503 l 399 426 q 408 394 399 403 q 442 386 417 386 l 492 386 q 590 355 558 386 q 621 264 621 324 l 621 122 q 591 31 621 63 q 494 0 561 0 l 406 0 q 308 31 339 0 q 278 122 278 63 l 278 210 z "},"h":{"ha":507,"x_min":61,"x_max":447,"o":"m 447 0 l 322 0 l 322 536 q 314 569 322 561 q 281 576 306 576 l 232 576 q 197 565 208 576 q 186 528 186 554 l 186 486 l 181 486 l 181 583 q 206 656 181 633 q 272 678 231 678 l 322 678 q 417 647 386 678 q 447 554 447 615 l 447 0 m 186 0 l 61 0 l 61 929 l 186 929 l 186 0 z "},"i":{"ha":247,"x_min":58,"x_max":189,"o":"m 186 0 l 61 0 l 61 678 l 186 678 l 186 0 m 58 807 l 58 931 l 189 931 l 189 807 l 58 807 z "},"í":{"ha":247,"x_min":61,"x_max":318,"o":"m 186 0 l 61 0 l 61 678 l 186 678 l 186 0 m 65 721 l 179 904 l 318 904 l 172 721 l 65 721 z "},"î":{"ha":247,"x_min":-78,"x_max":326,"o":"m 186 0 l 61 0 l 61 678 l 186 678 l 186 0 m -78 721 l 54 904 l 194 904 l 326 721 l 197 721 l 124 833 l 51 721 l -78 721 z "},"ï":{"ha":247,"x_min":-79,"x_max":325,"o":"m 186 0 l 61 0 l 61 678 l 186 678 l 186 0 m -79 751 l -79 882 l 63 882 l 63 751 l -79 751 m 185 751 l 185 882 l 325 882 l 325 751 l 185 751 z "},"ì":{"ha":247,"x_min":-76,"x_max":186,"o":"m 186 0 l 61 0 l 61 678 l 186 678 l 186 0 m 64 904 l 178 721 l 71 721 l -76 904 l 64 904 z "},"ī":{"ha":247,"x_min":-62,"x_max":310,"o":"m 186 0 l 61 0 l 61 678 l 186 678 l 186 0 m -62 765 l -62 860 l 310 860 l 310 765 l -62 765 z "},"į":{"ha":247,"x_min":-43,"x_max":211,"o":"m 186 0 l 61 0 l 61 678 l 186 678 l 186 0 m 58 807 l 58 931 l 189 931 l 189 807 l 58 807 m -43 -150 q -15 -62 -43 -92 q 76 -32 14 -32 l 186 -32 l 186 -119 l 99 -119 q 67 -126 75 -119 q 58 -157 58 -132 l 58 -187 q 67 -217 58 -210 q 99 -225 75 -225 l 211 -225 l 211 -312 l 76 -312 q -15 -283 14 -312 q -43 -196 -43 -253 l -43 -150 m 186 -37 l 88 -37 l 88 15 l 186 15 l 186 -37 z "},"j":{"ha":247,"x_min":-6,"x_max":189,"o":"m 61 -53 l 61 678 l 186 678 l 186 -69 q 155 -160 186 -129 q 57 -192 124 -192 l -6 -192 l -6 -93 l 19 -93 q 53 -85 46 -93 q 61 -53 61 -76 m 58 807 l 58 931 l 189 931 l 189 807 l 58 807 z "},"k":{"ha":496,"x_min":61,"x_max":492,"o":"m 186 0 l 61 0 l 61 929 l 186 929 l 186 0 m 208 354 l 336 354 l 492 0 l 358 0 l 208 354 m 336 354 l 208 354 l 358 678 l 492 678 l 336 354 z "},"ķ":{"ha":496,"x_min":61,"x_max":492,"o":"m 186 0 l 61 0 l 61 929 l 186 929 l 186 0 m 208 354 l 336 354 l 492 0 l 358 0 l 208 354 m 336 354 l 208 354 l 358 678 l 492 678 l 336 354 m 190 -69 l 326 -69 l 326 -137 l 235 -319 l 190 -319 l 190 -69 z "},"l":{"ha":247,"x_min":61,"x_max":186,"o":"m 186 0 l 61 0 l 61 929 l 186 929 l 186 0 z "},"ĺ":{"ha":247,"x_min":61,"x_max":322,"o":"m 186 0 l 61 0 l 61 929 l 186 929 l 186 0 m 69 972 l 183 1156 l 322 1156 l 176 972 l 69 972 z "},"ľ":{"ha":292,"x_min":61,"x_max":350,"o":"m 247 929 l 350 929 l 350 864 l 289 692 l 247 692 l 247 929 m 186 0 l 61 0 l 61 929 l 186 929 l 186 0 z "},"ļ":{"ha":247,"x_min":56,"x_max":193,"o":"m 186 0 l 61 0 l 61 929 l 186 929 l 186 0 m 56 -69 l 193 -69 l 193 -137 l 100 -319 l 56 -319 l 56 -69 z "},"ł":{"ha":261,"x_min":-47,"x_max":324,"o":"m 324 639 l 324 542 l -47 368 l -47 467 l 324 639 m 193 0 l 68 0 l 68 929 l 193 929 l 193 0 z "},"m":{"ha":763,"x_min":61,"x_max":708,"o":"m 447 0 l 322 0 l 322 536 q 314 569 322 561 q 281 576 306 576 l 232 576 q 197 565 208 576 q 186 528 186 554 l 186 483 l 181 483 l 181 583 q 206 656 181 633 q 272 678 231 678 l 322 678 q 417 647 386 678 q 447 554 447 615 l 447 0 m 186 0 l 61 0 l 61 678 l 186 678 l 186 593 l 186 585 l 186 0 m 708 0 l 582 0 l 582 536 q 574 569 582 561 q 542 576 567 576 l 492 576 q 458 565 469 576 q 447 528 447 554 l 447 483 l 436 483 l 433 582 q 460 655 432 632 q 533 678 489 678 l 582 678 q 678 647 647 678 q 708 554 708 615 l 708 0 z "},"n":{"ha":507,"x_min":61,"x_max":447,"o":"m 186 0 l 61 0 l 61 678 l 186 678 l 186 593 l 186 585 l 186 0 m 447 0 l 322 0 l 322 536 q 314 569 322 561 q 281 576 306 576 l 232 576 q 197 565 208 576 q 186 528 186 554 l 186 483 l 181 483 l 181 583 q 206 656 181 633 q 272 678 231 678 l 322 678 q 417 647 386 678 q 447 554 447 615 l 447 0 z "},"ń":{"ha":507,"x_min":61,"x_max":449,"o":"m 186 0 l 61 0 l 61 678 l 186 678 l 186 593 l 186 585 l 186 0 m 447 0 l 322 0 l 322 536 q 314 569 322 561 q 281 576 306 576 l 232 576 q 197 565 208 576 q 186 528 186 554 l 186 483 l 181 483 l 181 583 q 206 656 181 633 q 272 678 231 678 l 322 678 q 417 647 386 678 q 447 554 447 615 l 447 0 m 196 721 l 310 904 l 449 904 l 303 721 l 196 721 z "},"ň":{"ha":507,"x_min":42,"x_max":447,"o":"m 186 0 l 61 0 l 61 678 l 186 678 l 186 593 l 186 585 l 186 0 m 447 0 l 322 0 l 322 536 q 314 569 322 561 q 281 576 306 576 l 232 576 q 197 565 208 576 q 186 528 186 554 l 186 483 l 181 483 l 181 583 q 206 656 181 633 q 272 678 231 678 l 322 678 q 417 647 386 678 q 447 554 447 615 l 447 0 m 174 721 l 40 904 l 171 904 l 243 792 l 317 904 l 446 904 l 314 721 l 174 721 z "},"ņ":{"ha":507,"x_min":61,"x_max":447,"o":"m 186 0 l 61 0 l 61 678 l 186 678 l 186 593 l 186 585 l 186 0 m 447 0 l 322 0 l 322 536 q 314 569 322 561 q 281 576 306 576 l 232 576 q 197 565 208 576 q 186 528 186 554 l 186 483 l 181 483 l 181 583 q 206 656 181 633 q 272 678 231 678 l 322 678 q 417 647 386 678 q 447 554 447 615 l 447 0 m 181 -69 l 318 -69 l 318 -137 l 226 -319 l 181 -319 l 181 -69 z "},"ñ":{"ha":507,"x_min":49,"x_max":447,"o":"m 186 0 l 61 0 l 61 678 l 186 678 l 186 593 l 186 585 l 186 0 m 447 0 l 322 0 l 322 536 q 314 569 322 561 q 281 576 306 576 l 232 576 q 197 565 208 576 q 186 528 186 554 l 186 483 l 181 483 l 181 583 q 206 656 181 633 q 272 678 231 678 l 322 678 q 417 647 386 678 q 447 554 447 615 l 447 0 m 319 742 q 262 755 288 742 q 217 781 236 768 q 179 794 197 794 q 156 763 156 794 l 156 742 l 47 742 l 47 772 q 71 853 47 824 q 156 883 94 883 l 168 883 q 224 870 199 883 q 268 844 249 857 q 303 831 288 831 q 324 837 318 831 q 329 864 329 843 l 329 883 l 436 883 l 436 851 q 414 771 436 800 q 329 742 392 742 l 319 742 z "},"o":{"ha":514,"x_min":54,"x_max":460,"o":"m 336 222 l 336 538 q 328 572 336 564 q 294 579 321 579 l 253 579 l 253 678 l 331 678 q 429 647 399 678 q 460 554 460 615 l 460 222 l 336 222 m 336 140 l 336 281 l 460 281 l 460 122 q 429 31 460 63 q 331 0 399 0 l 246 0 l 246 99 l 294 99 q 328 107 321 99 q 336 140 336 115 m 178 538 l 178 221 l 54 221 l 54 554 q 85 647 54 615 q 182 678 115 678 l 261 678 l 261 579 l 219 579 q 186 572 194 579 q 178 538 178 564 m 178 289 l 178 140 q 186 107 178 115 q 219 99 194 99 l 257 99 l 257 0 l 182 0 q 85 31 115 0 q 54 122 54 63 l 54 289 l 178 289 z "},"ó":{"ha":514,"x_min":54,"x_max":460,"o":"m 336 222 l 336 538 q 328 572 336 564 q 294 579 321 579 l 253 579 l 253 678 l 331 678 q 429 647 399 678 q 460 554 460 615 l 460 222 l 336 222 m 336 140 l 336 281 l 460 281 l 460 122 q 429 31 460 63 q 331 0 399 0 l 246 0 l 246 99 l 294 99 q 328 107 321 99 q 336 140 336 115 m 178 538 l 178 221 l 54 221 l 54 554 q 85 647 54 615 q 182 678 115 678 l 261 678 l 261 579 l 219 579 q 186 572 194 579 q 178 538 178 564 m 178 289 l 178 140 q 186 107 178 115 q 219 99 194 99 l 257 99 l 257 0 l 182 0 q 85 31 115 0 q 54 122 54 63 l 54 289 l 178 289 m 200 721 l 314 904 l 453 904 l 307 721 l 200 721 z "},"ô":{"ha":514,"x_min":51,"x_max":460,"o":"m 336 222 l 336 538 q 328 572 336 564 q 294 579 321 579 l 253 579 l 253 678 l 331 678 q 429 647 399 678 q 460 554 460 615 l 460 222 l 336 222 m 336 140 l 336 281 l 460 281 l 460 122 q 429 31 460 63 q 331 0 399 0 l 246 0 l 246 99 l 294 99 q 328 107 321 99 q 336 140 336 115 m 178 538 l 178 221 l 54 221 l 54 554 q 85 647 54 615 q 182 678 115 678 l 261 678 l 261 579 l 219 579 q 186 572 194 579 q 178 538 178 564 m 178 289 l 178 140 q 186 107 178 115 q 219 99 194 99 l 257 99 l 257 0 l 182 0 q 85 31 115 0 q 54 122 54 63 l 54 289 l 178 289 m 51 721 l 185 904 l 325 904 l 457 721 l 328 721 l 254 833 l 182 721 l 51 721 z "},"ö":{"ha":514,"x_min":54,"x_max":460,"o":"m 54 751 l 54 882 l 196 882 l 196 751 l 54 751 m 318 751 l 318 882 l 458 882 l 458 751 l 318 751 m 336 222 l 336 538 q 328 572 336 564 q 294 579 321 579 l 253 579 l 253 678 l 331 678 q 429 647 399 678 q 460 554 460 615 l 460 222 l 336 222 m 336 140 l 336 281 l 460 281 l 460 122 q 429 31 460 63 q 331 0 399 0 l 246 0 l 246 99 l 294 99 q 328 107 321 99 q 336 140 336 115 m 178 538 l 178 221 l 54 221 l 54 554 q 85 647 54 615 q 182 678 115 678 l 261 678 l 261 579 l 219 579 q 186 572 194 579 q 178 538 178 564 m 178 289 l 178 140 q 186 107 178 115 q 219 99 194 99 l 257 99 l 257 0 l 182 0 q 85 31 115 0 q 54 122 54 63 l 54 289 l 178 289 z "},"œ":{"ha":811,"x_min":60,"x_max":717,"o":"m 185 0 q 90 31 121 0 q 60 122 60 63 l 60 554 q 90 647 60 615 q 185 678 121 678 l 283 678 q 345 660 319 678 q 379 619 371 643 q 413 660 388 643 q 478 678 438 678 l 586 678 q 685 647 654 678 q 717 554 717 615 l 717 306 l 592 306 l 592 538 q 584 570 592 563 q 551 578 576 578 l 486 578 q 453 570 461 578 q 444 538 444 563 l 444 140 q 453 108 444 117 q 486 100 461 100 l 547 100 q 581 108 574 100 q 589 140 589 117 l 589 196 l 713 196 l 713 122 q 681 31 713 63 q 583 0 650 0 l 476 0 q 413 18 438 0 q 378 58 388 36 q 344 18 369 36 q 282 0 319 0 l 185 0 m 185 536 l 185 142 q 193 110 185 118 q 226 101 201 101 l 275 101 q 308 110 297 101 q 321 143 319 119 l 321 535 q 275 576 317 576 l 226 576 q 193 569 201 576 q 185 536 185 561 m 717 393 l 717 299 l 365 299 l 365 393 l 717 393 z "},"ò":{"ha":514,"x_min":53,"x_max":460,"o":"m 336 222 l 336 538 q 328 572 336 564 q 294 579 321 579 l 253 579 l 253 678 l 331 678 q 429 647 399 678 q 460 554 460 615 l 460 222 l 336 222 m 336 140 l 336 281 l 460 281 l 460 122 q 429 31 460 63 q 331 0 399 0 l 246 0 l 246 99 l 294 99 q 328 107 321 99 q 336 140 336 115 m 178 538 l 178 221 l 54 221 l 54 554 q 85 647 54 615 q 182 678 115 678 l 261 678 l 261 579 l 219 579 q 186 572 194 579 q 178 538 178 564 m 178 289 l 178 140 q 186 107 178 115 q 219 99 194 99 l 257 99 l 257 0 l 182 0 q 85 31 115 0 q 54 122 54 63 l 54 289 l 178 289 m 192 904 l 306 721 l 199 721 l 53 904 l 192 904 z "},"ő":{"ha":514,"x_min":54,"x_max":529,"o":"m 292 721 l 406 904 l 531 904 l 383 721 l 292 721 m 126 721 l 240 904 l 365 904 l 218 721 l 126 721 m 336 222 l 336 538 q 328 572 336 564 q 294 579 321 579 l 253 579 l 253 678 l 331 678 q 429 647 399 678 q 460 554 460 615 l 460 222 l 336 222 m 336 140 l 336 281 l 460 281 l 460 122 q 429 31 460 63 q 331 0 399 0 l 246 0 l 246 99 l 294 99 q 328 107 321 99 q 336 140 336 115 m 178 538 l 178 221 l 54 221 l 54 554 q 85 647 54 615 q 182 678 115 678 l 261 678 l 261 579 l 219 579 q 186 572 194 579 q 178 538 178 564 m 178 289 l 178 140 q 186 107 178 115 q 219 99 194 99 l 257 99 l 257 0 l 182 0 q 85 31 115 0 q 54 122 54 63 l 54 289 l 178 289 z "},"ō":{"ha":514,"x_min":54,"x_max":460,"o":"m 336 222 l 336 538 q 328 572 336 564 q 294 579 321 579 l 253 579 l 253 678 l 331 678 q 429 647 399 678 q 460 554 460 615 l 460 222 l 336 222 m 336 140 l 336 281 l 460 281 l 460 122 q 429 31 460 63 q 331 0 399 0 l 246 0 l 246 99 l 294 99 q 328 107 321 99 q 336 140 336 115 m 178 538 l 178 221 l 54 221 l 54 554 q 85 647 54 615 q 182 678 115 678 l 261 678 l 261 579 l 219 579 q 186 572 194 579 q 178 538 178 564 m 178 289 l 178 140 q 186 107 178 115 q 219 99 194 99 l 257 99 l 257 0 l 182 0 q 85 31 115 0 q 54 122 54 63 l 54 289 l 178 289 m 67 765 l 67 860 l 440 860 l 440 765 l 67 765 z "},"ø":{"ha":525,"x_min":57,"x_max":468,"o":"m 465 554 l 465 122 q 435 31 465 63 q 336 0 404 0 l 188 0 q 90 31 121 0 q 60 122 60 63 l 60 554 q 90 647 60 615 q 188 678 121 678 l 336 678 q 435 647 404 678 q 465 554 465 615 m 344 133 l 344 544 q 336 578 344 571 q 303 586 328 586 l 222 586 q 188 578 196 586 q 179 544 179 571 l 179 133 q 188 99 179 107 q 222 92 196 92 l 303 92 q 336 99 328 92 q 344 133 344 107 m 394 706 l 468 706 l 131 -28 l 57 -28 l 394 706 z "},"õ":{"ha":514,"x_min":53,"x_max":460,"o":"m 336 222 l 336 538 q 328 572 336 564 q 294 579 321 579 l 253 579 l 253 678 l 331 678 q 429 647 399 678 q 460 554 460 615 l 460 222 l 336 222 m 336 140 l 336 281 l 460 281 l 460 122 q 429 31 460 63 q 331 0 399 0 l 246 0 l 246 99 l 294 99 q 328 107 321 99 q 336 140 336 115 m 178 538 l 178 221 l 54 221 l 54 554 q 85 647 54 615 q 182 678 115 678 l 261 678 l 261 579 l 219 579 q 186 572 194 579 q 178 538 178 564 m 178 289 l 178 140 q 186 107 178 115 q 219 99 194 99 l 257 99 l 257 0 l 182 0 q 85 31 115 0 q 54 122 54 63 l 54 289 l 178 289 m 325 742 q 267 755 293 742 q 222 781 242 768 q 185 794 203 794 q 161 763 161 794 l 161 742 l 53 742 l 53 772 q 76 853 53 824 q 161 883 100 883 l 174 883 q 229 870 204 883 q 274 844 254 857 q 308 831 293 831 q 329 837 324 831 q 335 864 335 843 l 335 883 l 442 883 l 442 851 q 419 771 442 800 q 335 742 397 742 l 325 742 z "},"p":{"ha":500,"x_min":61,"x_max":447,"o":"m 447 315 l 322 315 l 322 536 q 314 569 322 561 q 281 576 306 576 l 232 576 q 197 565 208 576 q 186 528 186 554 l 186 483 l 181 483 l 181 583 q 206 656 181 633 q 272 678 231 678 l 322 678 q 417 647 386 678 q 447 554 447 615 l 447 315 m 186 -192 l 61 -192 l 61 678 l 186 678 l 186 597 l 186 583 l 186 -192 m 322 363 l 447 363 l 447 122 q 417 31 447 63 q 322 0 386 0 l 272 0 q 206 22 231 0 q 181 94 181 44 l 181 182 l 186 182 l 186 150 q 197 112 186 122 q 232 101 208 101 l 281 101 q 314 110 306 101 q 322 142 322 118 l 322 363 z "},"q":{"ha":500,"x_min":53,"x_max":439,"o":"m 178 315 l 53 315 l 53 554 q 83 647 53 615 q 178 678 114 678 l 228 678 q 294 656 269 678 q 319 583 319 633 l 319 483 l 314 483 l 314 528 q 303 565 314 554 q 268 576 292 576 l 219 576 q 186 569 194 576 q 178 536 178 561 l 178 315 m 439 -192 l 314 -192 l 314 583 l 314 597 l 314 678 l 439 678 l 439 -192 m 53 363 l 178 363 l 178 142 q 186 110 178 118 q 219 101 194 101 l 268 101 q 303 112 292 101 q 314 150 314 122 l 314 182 l 319 182 l 319 94 q 294 22 319 44 q 228 0 269 0 l 178 0 q 83 31 114 0 q 53 122 53 63 l 53 363 z "},"r":{"ha":331,"x_min":61,"x_max":324,"o":"m 324 679 l 324 569 l 274 569 q 186 468 186 569 l 186 439 l 181 439 l 181 557 q 194 615 181 586 q 233 661 207 643 q 296 679 258 679 l 324 679 m 186 0 l 61 0 l 61 678 l 186 678 l 186 551 l 186 551 l 186 0 z "},"ŕ":{"ha":331,"x_min":61,"x_max":396,"o":"m 324 679 l 324 569 l 274 569 q 186 468 186 569 l 186 439 l 181 439 l 181 557 q 194 615 181 586 q 233 661 207 643 q 296 679 258 679 l 324 679 m 186 0 l 61 0 l 61 678 l 186 678 l 186 551 l 186 551 l 186 0 m 143 721 l 257 904 l 396 904 l 250 721 l 143 721 z "},"ř":{"ha":331,"x_min":-10,"x_max":394,"o":"m 324 679 l 324 569 l 274 569 q 186 468 186 569 l 186 439 l 181 439 l 181 557 q 194 615 181 586 q 233 661 207 643 q 296 679 258 679 l 324 679 m 186 0 l 61 0 l 61 678 l 186 678 l 186 551 l 186 551 l 186 0 m 122 721 l -11 904 l 119 904 l 192 792 l 265 904 l 394 904 l 263 721 l 122 721 z "},"ŗ":{"ha":331,"x_min":58,"x_max":324,"o":"m 324 679 l 324 569 l 274 569 q 186 468 186 569 l 186 439 l 181 439 l 181 557 q 194 615 181 586 q 233 661 207 643 q 296 679 258 679 l 324 679 m 186 0 l 61 0 l 61 678 l 186 678 l 186 551 l 186 551 l 186 0 m 58 -69 l 194 -69 l 194 -137 l 103 -319 l 58 -319 l 58 -69 z "},"s":{"ha":456,"x_min":46,"x_max":410,"o":"m 288 136 l 288 249 q 280 281 288 274 q 246 289 272 289 l 175 289 q 76 320 107 289 q 46 411 46 351 l 46 554 q 77 647 46 615 q 175 678 108 678 l 276 678 q 376 647 344 678 q 407 554 407 615 l 407 489 l 285 489 l 285 542 q 277 574 285 567 q 243 582 269 582 l 210 582 q 176 574 185 582 q 168 542 168 567 l 168 425 q 176 392 168 400 q 210 385 185 385 l 282 385 q 379 353 349 385 q 410 261 410 322 l 410 122 q 378 31 410 63 q 281 0 347 0 l 178 0 q 80 31 111 0 q 49 122 49 63 l 49 189 l 172 189 l 172 136 q 181 104 172 113 q 213 96 189 96 l 246 96 q 280 104 272 96 q 288 136 288 113 z "},"ś":{"ha":456,"x_min":46,"x_max":438,"o":"m 288 136 l 288 249 q 280 281 288 274 q 246 289 272 289 l 175 289 q 76 320 107 289 q 46 411 46 351 l 46 554 q 77 647 46 615 q 175 678 108 678 l 276 678 q 376 647 344 678 q 407 554 407 615 l 407 489 l 285 489 l 285 542 q 277 574 285 567 q 243 582 269 582 l 210 582 q 176 574 185 582 q 168 542 168 567 l 168 425 q 176 392 168 400 q 210 385 185 385 l 282 385 q 379 353 349 385 q 410 261 410 322 l 410 122 q 378 31 410 63 q 281 0 347 0 l 178 0 q 80 31 111 0 q 49 122 49 63 l 49 189 l 172 189 l 172 136 q 181 104 172 113 q 213 96 189 96 l 246 96 q 280 104 272 96 q 288 136 288 113 m 185 721 l 299 904 l 438 904 l 292 721 l 185 721 z "},"š":{"ha":456,"x_min":24,"x_max":428,"o":"m 288 136 l 288 249 q 280 281 288 274 q 246 289 272 289 l 175 289 q 76 320 107 289 q 46 411 46 351 l 46 554 q 77 647 46 615 q 175 678 108 678 l 276 678 q 376 647 344 678 q 407 554 407 615 l 407 489 l 285 489 l 285 542 q 277 574 285 567 q 243 582 269 582 l 210 582 q 176 574 185 582 q 168 542 168 567 l 168 425 q 176 392 168 400 q 210 385 185 385 l 282 385 q 379 353 349 385 q 410 261 410 322 l 410 122 q 378 31 410 63 q 281 0 347 0 l 178 0 q 80 31 111 0 q 49 122 49 63 l 49 189 l 172 189 l 172 136 q 181 104 172 113 q 213 96 189 96 l 246 96 q 280 104 272 96 q 288 136 288 113 m 156 721 l 22 904 l 153 904 l 225 792 l 299 904 l 428 904 l 296 721 l 156 721 z "},"ş":{"ha":456,"x_min":46,"x_max":410,"o":"m 288 136 l 288 249 q 280 281 288 274 q 246 289 272 289 l 175 289 q 76 320 107 289 q 46 411 46 351 l 46 554 q 77 647 46 615 q 175 678 108 678 l 276 678 q 376 647 344 678 q 407 554 407 615 l 407 489 l 285 489 l 285 542 q 277 574 285 567 q 243 582 269 582 l 210 582 q 176 574 185 582 q 168 542 168 567 l 168 425 q 176 392 168 400 q 210 385 185 385 l 282 385 q 379 353 349 385 q 410 261 410 322 l 410 122 q 378 31 410 63 q 281 0 347 0 l 178 0 q 80 31 111 0 q 49 122 49 63 l 49 189 l 172 189 l 172 136 q 181 104 172 113 q 213 96 189 96 l 246 96 q 280 104 272 96 q 288 136 288 113 m 158 -69 l 296 -69 l 296 -137 l 204 -319 l 158 -319 l 158 -69 z "},"ș":{"ha":456,"x_min":46,"x_max":410,"o":"m 288 136 l 288 249 q 280 281 288 274 q 246 289 272 289 l 175 289 q 76 320 107 289 q 46 411 46 351 l 46 554 q 77 647 46 615 q 175 678 108 678 l 276 678 q 376 647 344 678 q 407 554 407 615 l 407 489 l 285 489 l 285 542 q 277 574 285 567 q 243 582 269 582 l 210 582 q 176 574 185 582 q 168 542 168 567 l 168 425 q 176 392 168 400 q 210 385 185 385 l 282 385 q 379 353 349 385 q 410 261 410 322 l 410 122 q 378 31 410 63 q 281 0 347 0 l 178 0 q 80 31 111 0 q 49 122 49 63 l 49 189 l 172 189 l 172 136 q 181 104 172 113 q 213 96 189 96 l 246 96 q 280 104 272 96 q 288 136 288 113 m 175 -69 l 311 -69 l 311 -137 l 219 -319 l 175 -319 l 175 -69 z "},"t":{"ha":304,"x_min":7,"x_max":290,"o":"m 197 793 l 197 147 q 206 115 197 124 q 238 107 214 107 l 290 107 l 290 0 l 201 0 q 102 31 133 0 q 71 122 71 63 l 71 793 l 197 793 m 290 678 l 290 576 l 7 576 l 7 678 l 290 678 z "},"ť":{"ha":304,"x_min":7,"x_max":374,"o":"m 256 929 l 374 929 l 374 864 l 297 719 l 256 719 l 256 929 m 197 793 l 197 147 q 206 115 197 124 q 238 107 214 107 l 290 107 l 290 0 l 201 0 q 102 31 133 0 q 71 122 71 63 l 71 793 l 197 793 m 290 678 l 290 576 l 7 576 l 7 678 l 290 678 z "},"ţ":{"ha":431,"x_min":7,"x_max":424,"o":"m 153 853 l 278 853 l 278 0 l 153 0 l 153 853 m 424 869 l 424 768 l 7 768 l 7 869 l 424 869 m 149 -69 l 285 -69 l 285 -137 l 193 -319 l 149 -319 l 149 -69 z "},"ț":{"ha":304,"x_min":7,"x_max":290,"o":"m 197 793 l 197 147 q 206 115 197 124 q 238 107 214 107 l 290 107 l 290 0 l 201 0 q 102 31 133 0 q 71 122 71 63 l 71 793 l 197 793 m 290 678 l 290 576 l 7 576 l 7 678 l 290 678 m 110 -69 l 246 -69 l 246 -137 l 154 -319 l 110 -319 l 110 -69 z "},"þ":{"ha":503,"x_min":60,"x_max":446,"o":"m 446 315 l 319 315 l 319 536 q 312 569 319 561 q 279 576 304 576 l 229 576 q 196 565 207 576 q 185 528 185 554 l 185 483 l 179 483 l 179 583 q 203 656 179 633 q 271 678 228 678 l 319 678 q 415 647 385 678 q 446 554 446 615 l 446 315 m 185 -192 l 60 -192 l 60 929 l 183 929 l 183 597 l 185 583 l 185 -192 m 319 363 l 446 363 l 446 122 q 415 31 446 63 q 319 0 385 0 l 271 0 q 203 22 228 0 q 179 94 179 44 l 179 182 l 185 182 l 185 150 q 196 112 185 122 q 229 101 207 101 l 279 101 q 312 110 304 101 q 319 142 319 118 l 319 363 z "},"u":{"ha":507,"x_min":60,"x_max":446,"o":"m 60 678 l 185 678 l 185 142 q 193 110 185 118 q 226 101 201 101 l 275 101 q 310 112 299 101 q 321 150 321 122 l 321 194 l 326 194 l 326 94 q 301 22 326 44 q 235 0 276 0 l 185 0 q 90 31 121 0 q 60 122 60 63 l 60 678 m 321 678 l 446 678 l 446 0 l 321 0 l 321 85 l 321 93 l 321 678 z "},"ú":{"ha":507,"x_min":60,"x_max":451,"o":"m 60 678 l 185 678 l 185 142 q 193 110 185 118 q 226 101 201 101 l 275 101 q 310 112 299 101 q 321 150 321 122 l 321 194 l 326 194 l 326 94 q 301 22 326 44 q 235 0 276 0 l 185 0 q 90 31 121 0 q 60 122 60 63 l 60 678 m 321 678 l 446 678 l 446 0 l 321 0 l 321 85 l 321 93 l 321 678 m 199 721 l 313 904 l 451 904 l 306 721 l 199 721 z "},"û":{"ha":501,"x_min":46,"x_max":450,"o":"m 44 721 l 178 904 l 318 904 l 450 721 l 321 721 l 247 833 l 175 721 l 44 721 m 60 678 l 185 678 l 185 142 q 193 110 185 118 q 226 101 201 101 l 275 101 q 310 112 299 101 q 321 150 321 122 l 321 194 l 326 194 l 326 94 q 301 22 326 44 q 235 0 276 0 l 185 0 q 90 31 121 0 q 60 122 60 63 l 60 678 m 321 678 l 446 678 l 446 0 l 321 0 l 321 85 l 321 93 l 321 678 z "},"ü":{"ha":506,"x_min":44,"x_max":449,"o":"m 44 751 l 44 882 l 186 882 l 186 751 l 44 751 m 308 751 l 308 882 l 449 882 l 449 751 l 308 751 m 60 678 l 185 678 l 185 142 q 193 110 185 118 q 226 101 201 101 l 275 101 q 310 112 299 101 q 321 150 321 122 l 321 194 l 326 194 l 326 94 q 301 22 326 44 q 235 0 276 0 l 185 0 q 90 31 121 0 q 60 122 60 63 l 60 678 m 321 678 l 446 678 l 446 0 l 321 0 l 321 85 l 321 93 l 321 678 z "},"ù":{"ha":507,"x_min":57,"x_max":446,"o":"m 60 678 l 185 678 l 185 142 q 193 110 185 118 q 226 101 201 101 l 275 101 q 310 112 299 101 q 321 150 321 122 l 321 194 l 326 194 l 326 94 q 301 22 326 44 q 235 0 276 0 l 185 0 q 90 31 121 0 q 60 122 60 63 l 60 678 m 321 678 l 446 678 l 446 0 l 321 0 l 321 85 l 321 93 l 321 678 m 196 904 l 310 721 l 203 721 l 57 904 l 196 904 z "},"ű":{"ha":507,"x_min":60,"x_max":511,"o":"m 272 721 l 386 904 l 511 904 l 364 721 l 272 721 m 107 721 l 221 904 l 346 904 l 199 721 l 107 721 m 60 678 l 185 678 l 185 142 q 193 110 185 118 q 226 101 201 101 l 275 101 q 310 112 299 101 q 321 150 321 122 l 321 194 l 326 194 l 326 94 q 301 22 326 44 q 235 0 276 0 l 185 0 q 90 31 121 0 q 60 122 60 63 l 60 678 m 321 678 l 446 678 l 446 0 l 321 0 l 321 85 l 321 93 l 321 678 z "},"ū":{"ha":507,"x_min":60,"x_max":446,"o":"m 60 678 l 185 678 l 185 142 q 193 110 185 118 q 226 101 201 101 l 275 101 q 310 112 299 101 q 321 150 321 122 l 321 194 l 326 194 l 326 94 q 301 22 326 44 q 235 0 276 0 l 185 0 q 90 31 121 0 q 60 122 60 63 l 60 678 m 321 678 l 446 678 l 446 0 l 321 0 l 321 85 l 321 93 l 321 678 m 64 765 l 64 860 l 438 860 l 438 765 l 64 765 z "},"ų":{"ha":507,"x_min":60,"x_max":471,"o":"m 60 678 l 185 678 l 185 142 q 193 110 185 118 q 226 101 201 101 l 275 101 q 310 112 299 101 q 321 150 321 122 l 321 194 l 326 194 l 326 94 q 301 22 326 44 q 235 0 276 0 l 185 0 q 90 31 121 0 q 60 122 60 63 l 60 678 m 321 678 l 446 678 l 446 0 l 321 0 l 321 85 l 321 93 l 321 678 m 217 -150 q 245 -62 217 -92 q 336 -32 274 -32 l 446 -32 l 446 -119 l 358 -119 q 326 -126 335 -119 q 318 -157 318 -132 l 318 -187 q 326 -217 318 -210 q 358 -225 335 -225 l 471 -225 l 471 -312 l 336 -312 q 245 -283 274 -312 q 217 -196 217 -253 l 217 -150 m 446 -37 l 347 -37 l 347 15 l 446 15 l 446 -37 z "},"ů":{"ha":507,"x_min":60,"x_max":446,"o":"m 60 678 l 185 678 l 185 142 q 193 110 185 118 q 226 101 201 101 l 275 101 q 310 112 299 101 q 321 150 321 122 l 321 194 l 326 194 l 326 94 q 301 22 326 44 q 235 0 276 0 l 185 0 q 90 31 121 0 q 60 122 60 63 l 60 678 m 321 678 l 446 678 l 446 0 l 321 0 l 321 85 l 321 93 l 321 678 m 403 851 l 403 828 q 379 755 403 779 q 301 731 356 731 l 211 731 q 134 755 158 731 q 110 828 110 779 l 110 851 q 134 924 110 900 q 211 949 158 949 l 301 949 q 379 924 356 949 q 403 851 403 900 m 315 835 l 315 844 q 309 872 315 865 q 279 879 303 879 l 233 879 q 203 872 210 879 q 197 844 197 865 l 197 835 q 203 807 197 814 q 233 800 210 800 l 279 800 q 309 807 303 800 q 315 835 315 814 z "},"v":{"ha":440,"x_min":6,"x_max":435,"o":"m 131 678 l 219 106 l 310 678 l 435 678 l 310 0 l 131 0 l 6 678 l 131 678 z "},"w":{"ha":754,"x_min":7,"x_max":747,"o":"m 629 678 l 747 678 l 622 0 l 457 0 l 376 513 l 296 0 l 131 0 l 7 678 l 125 678 l 215 107 l 303 678 l 451 678 l 536 107 l 629 678 z "},"x":{"ha":475,"x_min":7,"x_max":469,"o":"m 300 347 l 469 0 l 338 0 l 236 235 l 138 0 l 7 0 l 174 346 l 17 678 l 150 678 l 238 456 l 324 678 l 454 678 l 300 347 z "},"y":{"ha":475,"x_min":11,"x_max":464,"o":"m 11 678 l 139 678 l 242 110 l 338 678 l 464 678 l 321 -65 q 269 -159 307 -126 q 161 -192 231 -192 l 78 -192 l 78 -92 l 135 -92 q 183 -83 164 -92 q 207 -46 201 -74 l 221 11 l 153 11 l 11 678 z "},"ý":{"ha":475,"x_min":11,"x_max":464,"o":"m 11 678 l 139 678 l 242 110 l 338 678 l 464 678 l 321 -65 q 269 -159 307 -126 q 161 -192 231 -192 l 78 -192 l 78 -92 l 135 -92 q 183 -83 164 -92 q 207 -46 201 -74 l 221 11 l 153 11 l 11 678 m 189 721 l 303 904 l 442 904 l 296 721 l 189 721 z "},"ÿ":{"ha":485,"x_min":11,"x_max":464,"o":"m 35 751 l 35 882 l 176 882 l 176 751 l 35 751 m 299 751 l 299 882 l 439 882 l 439 751 l 299 751 m 11 678 l 139 678 l 242 110 l 338 678 l 464 678 l 321 -65 q 269 -159 307 -126 q 161 -192 231 -192 l 78 -192 l 78 -92 l 135 -92 q 183 -83 164 -92 q 207 -46 201 -74 l 221 11 l 153 11 l 11 678 z "},"z":{"ha":406,"x_min":19,"x_max":386,"o":"m 383 678 l 383 578 l 35 578 l 35 678 l 383 678 m 254 578 l 383 578 l 147 100 l 19 100 l 254 578 m 386 100 l 386 0 l 19 0 l 19 100 l 386 100 z "},"ź":{"ha":406,"x_min":19,"x_max":418,"o":"m 383 678 l 383 578 l 35 578 l 35 678 l 383 678 m 254 578 l 383 578 l 147 100 l 19 100 l 254 578 m 386 100 l 386 0 l 19 0 l 19 100 l 386 100 m 165 721 l 279 904 l 418 904 l 272 721 l 165 721 z "},"ž":{"ha":406,"x_min":6,"x_max":411,"o":"m 383 678 l 383 578 l 35 578 l 35 678 l 383 678 m 254 578 l 383 578 l 147 100 l 19 100 l 254 578 m 386 100 l 386 0 l 19 0 l 19 100 l 386 100 m 139 721 l 6 904 l 136 904 l 208 792 l 282 904 l 411 904 l 279 721 l 139 721 z "},"ż":{"ha":406,"x_min":19,"x_max":386,"o":"m 383 678 l 383 578 l 35 578 l 35 678 l 383 678 m 254 578 l 383 578 l 147 100 l 19 100 l 254 578 m 386 100 l 386 0 l 19 0 l 19 100 l 386 100 m 139 746 l 139 879 l 288 879 l 288 746 l 139 746 z "},"ﬁ":{"ha":524,"x_min":8,"x_max":463,"o":"m 463 0 l 338 0 l 338 678 l 463 678 l 463 0 m 200 785 l 200 0 l 76 0 l 76 807 q 108 898 76 867 q 206 929 139 929 l 269 929 l 269 825 l 242 825 q 208 817 217 825 q 200 785 200 810 m 433 678 l 433 576 l 8 576 l 8 678 l 433 678 m 338 825 l 338 929 l 463 929 l 463 825 l 338 825 z "},"ﬂ":{"ha":524,"x_min":8,"x_max":463,"o":"m 200 785 l 200 0 l 76 0 l 76 807 q 108 898 76 867 q 206 929 139 929 l 269 929 l 269 825 l 242 825 q 208 817 217 825 q 200 785 200 810 m 433 678 l 433 576 l 8 576 l 8 678 l 433 678 m 463 0 l 338 0 l 338 929 l 463 929 l 463 0 z "},"ª":{"ha":357,"x_min":35,"x_max":315,"o":"m 118 614 l 35 614 l 35 782 q 56 848 35 826 q 124 869 78 869 l 172 869 q 219 853 203 869 q 236 803 236 838 l 236 736 l 231 736 l 231 764 q 200 799 231 799 l 149 799 q 124 793 131 799 q 118 771 118 788 l 118 614 m 315 392 l 231 392 l 231 801 l 232 807 l 232 869 l 315 869 l 315 392 m 35 647 l 118 647 l 118 493 q 124 470 118 476 q 149 464 131 464 l 200 464 q 224 472 217 464 q 231 497 231 479 l 231 524 l 236 524 l 236 458 q 220 408 236 424 q 174 392 204 392 l 124 392 q 56 414 78 392 q 35 479 35 436 l 35 647 z "},"º":{"ha":344,"x_min":36,"x_max":308,"o":"m 225 549 l 225 775 q 219 799 225 793 q 194 804 213 804 l 175 804 l 175 869 l 218 869 q 287 848 265 869 q 308 782 308 826 l 308 549 l 225 549 m 225 486 l 225 590 l 308 590 l 308 479 q 287 414 308 436 q 218 392 265 392 l 169 392 l 169 458 l 194 458 q 219 464 213 458 q 225 486 225 469 m 119 775 l 119 549 l 36 549 l 36 782 q 58 848 36 826 q 126 869 79 869 l 192 869 l 192 804 l 149 804 q 125 799 131 804 q 119 775 119 793 m 119 596 l 119 486 q 125 464 119 469 q 149 458 131 458 l 189 458 l 189 392 l 126 392 q 58 414 79 392 q 36 479 36 436 l 36 596 l 119 596 z "},"अ":{"ha":761,"x_min":47,"x_max":789,"o":"m 565 869 l 690 869 l 690 0 l 565 0 l 565 869 m 301 488 l 631 488 l 631 392 l 358 392 l 301 488 m 631 869 l 789 869 l 789 772 l 631 772 l 631 869 m 301 871 q 399 840 369 871 q 429 750 429 810 l 429 557 q 415 509 429 525 q 375 489 401 493 l 375 486 q 415 467 401 483 q 429 419 429 451 l 429 229 q 399 139 429 169 q 301 108 369 108 l 175 108 q 77 139 107 108 q 47 229 47 169 l 47 358 l 174 358 l 174 246 q 182 214 174 222 q 214 206 190 206 l 264 206 q 297 214 289 206 q 304 246 304 222 l 304 394 q 294 428 304 419 q 260 438 285 438 l 176 438 l 176 536 l 260 536 q 294 546 285 536 q 304 581 304 556 l 304 733 q 297 766 304 758 q 264 774 289 774 l 214 774 q 182 766 190 774 q 174 733 174 758 l 174 624 l 47 624 l 47 750 q 77 840 47 810 q 175 871 107 871 l 301 871 z "},"आ":{"ha":1032,"x_min":47,"x_max":1058,"o":"m 565 869 l 690 869 l 690 0 l 565 0 l 565 869 m 301 488 l 631 488 l 631 392 l 358 392 l 301 488 m 631 869 l 789 869 l 789 772 l 631 772 l 631 869 m 301 871 q 399 840 369 871 q 429 750 429 810 l 429 557 q 415 509 429 525 q 375 489 401 493 l 375 486 q 415 467 401 483 q 429 419 429 451 l 429 229 q 399 139 429 169 q 301 108 369 108 l 175 108 q 77 139 107 108 q 47 229 47 169 l 47 358 l 174 358 l 174 246 q 182 214 174 222 q 214 206 190 206 l 264 206 q 297 214 289 206 q 304 246 304 222 l 304 394 q 294 428 304 419 q 260 438 285 438 l 176 438 l 176 536 l 260 536 q 294 546 285 536 q 304 581 304 556 l 304 733 q 297 766 304 758 q 264 774 289 774 l 214 774 q 182 766 190 774 q 174 733 174 758 l 174 624 l 47 624 l 47 750 q 77 840 47 810 q 175 871 107 871 l 301 871 m 835 800 l 958 800 l 958 0 l 835 0 l 835 800 m 735 869 l 1058 869 l 1058 772 l 735 772 l 735 869 z "},"ा":{"ha":271,"x_min":-26,"x_max":297,"o":"m 74 800 l 197 800 l 197 0 l 74 0 l 74 800 m -26 869 l 297 869 l 297 772 l -26 772 l -26 869 z "},"ऐ":{"ha":563,"x_min":-28,"x_max":590,"o":"m 72 800 l 197 800 l 197 135 q 206 103 197 111 q 238 94 214 94 l 335 94 q 366 103 358 94 q 374 135 374 111 l 374 281 l 499 281 l 499 118 q 469 29 499 58 q 371 0 439 0 l 200 0 q 102 29 132 0 q 72 118 72 58 l 72 800 m 376 800 l 501 800 l 501 508 q 472 419 501 447 q 375 390 442 390 l 279 390 l 279 488 l 336 488 q 369 495 361 488 q 376 528 376 503 l 376 800 m -28 869 l 590 869 l 590 772 l -28 772 l -28 869 m 303 1138 l 501 854 l 378 854 q 316 919 350 879 q 244 1011 282 960 l 153 1138 l 303 1138 z "},"औ":{"ha":1032,"x_min":47,"x_max":1058,"o":"m 517 1138 l 675 1138 l 733 1071 q 824 963 790 1007 q 886 874 858 919 l 892 874 q 851 960 868 915 q 807 1063 833 1004 l 776 1138 l 901 1138 l 958 858 l 836 858 q 813 874 829 863 q 769 908 796 886 q 704 964 743 929 l 517 1138 m 565 869 l 690 869 l 690 0 l 565 0 l 565 869 m 301 488 l 631 488 l 631 392 l 358 392 l 301 488 m 631 869 l 789 869 l 789 772 l 631 772 l 631 869 m 301 871 q 399 840 369 871 q 429 750 429 810 l 429 557 q 415 509 429 525 q 375 489 401 493 l 375 486 q 415 467 401 483 q 429 419 429 451 l 429 229 q 399 139 429 169 q 301 108 369 108 l 175 108 q 77 139 107 108 q 47 229 47 169 l 47 358 l 174 358 l 174 246 q 182 214 174 222 q 214 206 190 206 l 264 206 q 297 214 289 206 q 304 246 304 222 l 304 394 q 294 428 304 419 q 260 438 285 438 l 176 438 l 176 536 l 260 536 q 294 546 285 536 q 304 581 304 556 l 304 733 q 297 766 304 758 q 264 774 289 774 l 214 774 q 182 766 190 774 q 174 733 174 758 l 174 624 l 47 624 l 47 750 q 77 840 47 810 q 175 871 107 871 l 301 871 m 835 800 l 958 800 l 958 0 l 835 0 l 835 800 m 735 869 l 1058 869 l 1058 772 l 735 772 l 735 869 z "},"ौ":{"ha":271,"x_min":-244,"x_max":297,"o":"m 74 800 l 197 800 l 197 0 l 74 0 l 74 800 m -26 869 l 297 869 l 297 772 l -26 772 l -26 869 m -244 1138 l -86 1138 l -28 1071 q 63 963 29 1007 q 125 874 97 919 l 131 874 q 90 960 107 915 q 46 1063 72 1004 l 15 1138 l 140 1138 l 197 858 l 75 858 q 51 874 68 863 q 8 908 35 886 q -57 964 -18 929 l -244 1138 z "},"ए":{"ha":563,"x_min":-28,"x_max":590,"o":"m 72 800 l 197 800 l 197 135 q 206 103 197 111 q 238 94 214 94 l 335 94 q 366 103 358 94 q 374 135 374 111 l 374 281 l 499 281 l 499 118 q 469 29 499 58 q 371 0 439 0 l 200 0 q 102 29 132 0 q 72 118 72 58 l 72 800 m 376 800 l 501 800 l 501 508 q 472 419 501 447 q 375 390 442 390 l 279 390 l 279 488 l 336 488 q 369 495 361 488 q 376 528 376 503 l 376 800 m -28 869 l 590 869 l 590 772 l -28 772 l -28 869 z "},"इ":{"ha":508,"x_min":-28,"x_max":536,"o":"m -28 869 l 536 869 l 536 772 l -28 772 l -28 869 m 61 257 l 186 257 l 186 -18 l 61 -18 l 61 257 m 307 825 l 432 825 l 432 575 l 214 575 q 181 567 189 575 q 172 535 172 560 l 172 485 q 181 452 172 460 q 214 444 189 444 l 322 444 q 420 415 390 444 q 450 326 450 386 l 450 203 q 420 115 450 143 q 322 86 390 86 l 140 86 l 140 181 l 283 181 q 317 188 308 181 q 325 221 325 196 l 325 310 q 317 342 325 335 q 283 350 308 350 l 175 350 q 77 378 107 350 q 47 468 47 407 l 47 551 q 77 641 47 613 q 175 669 107 669 l 307 669 l 307 825 z "},"ि":{"ha":269,"x_min":-28,"x_max":713,"o":"m -28 869 l 297 869 l 297 772 l -28 772 l -28 869 m 72 811 l 197 811 l 197 0 l 72 0 l 72 811 m 590 1142 q 681 1113 650 1142 q 713 1024 713 1085 l 713 929 l 586 929 l 586 1000 q 579 1037 586 1029 q 542 1044 572 1044 l 242 1044 q 206 1037 215 1044 q 197 1000 197 1029 l 197 854 l 72 854 l 72 1024 q 103 1113 72 1085 q 194 1142 135 1142 l 590 1142 z "},"ई":{"ha":508,"x_min":-28,"x_max":536,"o":"m -28 869 l 536 869 l 536 772 l -28 772 l -28 869 m 61 257 l 186 257 l 186 -18 l 61 -18 l 61 257 m 307 825 l 432 825 l 432 575 l 214 575 q 181 567 189 575 q 172 535 172 560 l 172 485 q 181 452 172 460 q 214 444 189 444 l 322 444 q 420 415 390 444 q 450 326 450 386 l 450 203 q 420 115 450 143 q 322 86 390 86 l 140 86 l 140 181 l 283 181 q 317 188 308 181 q 325 221 325 196 l 325 310 q 317 342 325 335 q 283 350 308 350 l 175 350 q 77 378 107 350 q 47 468 47 407 l 47 551 q 77 641 47 613 q 175 669 107 669 l 307 669 l 307 825 m 526 990 l 474 990 q 440 983 449 990 q 432 951 432 976 l 432 853 l 307 853 l 307 968 q 337 1056 307 1028 q 435 1085 367 1085 l 526 1085 l 526 990 z "},"ी":{"ha":269,"x_min":-206,"x_max":297,"o":"m 297 869 l 297 772 l -28 772 l -28 869 l 297 869 m 197 811 l 197 0 l 72 0 l 72 811 l 197 811 m 75 1142 q 166 1113 135 1142 q 197 1024 197 1085 l 197 854 l 72 854 l 72 1000 q 64 1037 72 1029 q 28 1044 56 1044 l -36 1044 q -73 1037 -65 1044 q -81 1000 -81 1029 l -81 929 l -206 929 l -206 1024 q -174 1113 -206 1085 q -83 1142 -143 1142 l 75 1142 z "},"ऌ":{"ha":751,"x_min":-28,"x_max":779,"o":"m -28 869 l 779 869 l 779 772 l -28 772 l -28 869 m 306 669 q 356 655 339 669 q 374 615 372 640 l 378 615 q 397 655 381 640 q 444 669 413 669 l 599 669 l 599 572 l 478 572 q 445 564 453 572 q 438 531 438 556 l 438 268 l 311 268 l 311 531 q 304 564 311 556 q 271 572 297 572 l 228 572 q 194 565 203 572 q 186 531 186 557 l 186 140 q 194 109 186 117 q 228 101 203 101 l 297 101 l 297 0 l 189 0 q 91 29 121 0 q 61 118 61 58 l 61 546 q 92 640 61 610 q 186 669 124 669 l 306 669 m 563 810 l 688 810 l 688 51 l 597 51 q 565 44 574 51 q 557 11 557 36 l 557 -39 q 565 -70 557 -62 q 597 -78 574 -78 l 750 -78 l 750 -176 l 558 -176 q 462 -147 492 -176 q 432 -58 432 -118 l 432 28 q 461 117 432 88 q 556 146 490 146 l 563 146 l 563 810 z "},"ॡ":{"ha":751,"x_min":-28,"x_max":779,"o":"m -28 869 l 779 869 l 779 772 l -28 772 l -28 869 m 306 669 q 356 655 339 669 q 374 615 372 640 l 378 615 q 397 655 381 640 q 444 669 413 669 l 599 669 l 599 572 l 478 572 q 445 564 453 572 q 438 531 438 556 l 438 343 l 311 343 l 311 531 q 304 564 311 556 q 271 572 297 572 l 228 572 q 194 565 203 572 q 186 531 186 557 l 186 140 q 194 109 186 117 q 228 101 203 101 l 297 101 l 297 0 l 189 0 q 91 29 121 0 q 61 118 61 58 l 61 546 q 92 640 61 610 q 186 669 124 669 l 306 669 m 451 215 q 483 303 451 275 q 574 331 514 331 l 688 331 l 688 233 l 618 233 q 585 226 593 233 q 576 192 576 218 l 576 146 q 585 113 576 121 q 618 104 593 104 l 683 104 l 683 7 l 618 7 q 585 -1 593 7 q 576 -35 576 -8 l 576 -81 q 585 -114 576 -106 q 618 -122 593 -122 l 747 -122 l 747 -219 l 585 -219 q 485 -190 518 -219 q 451 -96 451 -160 l 451 -15 q 466 34 451 18 q 506 51 481 50 l 506 56 q 466 75 481 58 q 451 124 451 92 l 451 215 m 563 797 l 688 797 l 688 296 l 563 296 l 563 797 z "},"ओ":{"ha":1031,"x_min":47,"x_max":1058,"o":"m 771 1138 l 969 854 l 846 854 q 784 919 818 879 q 713 1011 750 960 l 621 1138 l 771 1138 m 565 869 l 690 869 l 690 0 l 565 0 l 565 869 m 301 488 l 631 488 l 631 392 l 358 392 l 301 488 m 631 869 l 789 869 l 789 772 l 631 772 l 631 869 m 301 871 q 399 840 369 871 q 429 750 429 810 l 429 557 q 415 509 429 525 q 375 489 401 493 l 375 486 q 415 467 401 483 q 429 419 429 451 l 429 229 q 399 139 429 169 q 301 108 369 108 l 175 108 q 77 139 107 108 q 47 229 47 169 l 47 358 l 174 358 l 174 246 q 182 214 174 222 q 214 206 190 206 l 264 206 q 297 214 289 206 q 304 246 304 222 l 304 394 q 294 428 304 419 q 260 438 285 438 l 176 438 l 176 536 l 260 536 q 294 546 285 536 q 304 581 304 556 l 304 733 q 297 766 304 758 q 264 774 289 774 l 214 774 q 182 766 190 774 q 174 733 174 758 l 174 624 l 47 624 l 47 750 q 77 840 47 810 q 175 871 107 871 l 301 871 m 835 800 l 958 800 l 958 0 l 835 0 l 835 800 m 735 869 l 1058 869 l 1058 772 l 735 772 l 735 869 z "},"ॉ":{"ha":271,"x_min":-79,"x_max":350,"o":"m 74 800 l 197 800 l 197 0 l 74 0 l 74 800 m -26 869 l 297 869 l 297 772 l -26 772 l -26 869 m -81 1126 l 32 1126 l 32 1061 q 40 1028 32 1036 q 74 1021 49 1021 l 196 1021 q 230 1028 222 1021 q 238 1061 238 1036 l 238 1126 l 349 1126 l 349 1049 q 318 962 349 990 q 218 933 288 933 l 51 933 q -49 962 -18 933 q -81 1049 -81 990 l -81 1126 z "},"ो":{"ha":271,"x_min":-153,"x_max":297,"o":"m 74 800 l 197 800 l 197 0 l 74 0 l 74 800 m -26 869 l 297 869 l 297 772 l -26 772 l -26 869 m -3 1138 l 196 854 l 72 854 q 10 919 44 879 q -61 1011 -24 960 l -153 1138 l -3 1138 z "},"ऋ":{"ha":981,"x_min":-28,"x_max":1003,"o":"m 499 819 l 499 0 l 374 0 l 374 819 l 499 819 m -28 869 l 1003 869 l 1003 772 l -28 772 l -28 869 m 81 668 q 162 660 131 668 q 213 631 193 651 q 253 574 233 611 l 382 333 l 154 0 l 13 0 l 279 390 l 267 289 l 160 493 q 118 550 139 533 q 54 567 97 567 l 10 567 l 10 668 l 81 668 m 806 535 q 799 566 806 557 q 768 575 793 575 l 754 575 q 723 566 731 575 q 715 535 715 557 l 715 411 q 723 380 715 389 q 754 371 731 371 l 768 371 q 799 380 793 371 q 806 411 806 389 l 806 535 m 938 -44 l 726 -44 q 638 -16 667 -44 q 610 63 610 13 l 610 110 q 637 188 610 160 q 718 217 664 217 l 740 217 l 668 275 l 306 275 l 306 371 l 685 371 l 658 349 q 605 377 619 354 q 590 443 590 400 l 590 547 q 621 638 590 607 q 724 669 651 669 l 796 669 q 900 638 869 669 q 931 547 931 607 l 931 406 q 900 315 931 346 q 796 283 869 283 l 792 283 l 879 217 l 879 125 l 763 125 q 740 119 746 125 q 735 96 735 113 l 735 76 q 740 53 735 60 q 763 47 746 47 l 938 47 l 938 -44 z "},"ॠ":{"ha":981,"x_min":-28,"x_max":1013,"o":"m 506 819 l 506 0 l 381 0 l 381 819 l 506 819 m -28 869 l 1013 869 l 1013 772 l -28 772 l -28 869 m 88 668 q 169 660 139 668 q 220 631 200 651 q 260 574 240 611 l 389 333 l 161 0 l 19 0 l 286 390 l 274 289 l 168 493 q 125 550 146 533 q 63 567 104 567 l 17 567 l 17 668 l 88 668 m 817 535 q 810 566 817 557 q 778 575 803 575 l 764 575 q 733 566 740 575 q 725 535 725 557 l 725 411 q 733 380 725 389 q 764 371 740 371 l 778 371 q 810 380 803 371 q 817 411 817 389 l 817 535 m 807 669 q 910 638 879 669 q 940 547 940 607 l 940 399 q 910 307 940 339 q 807 275 879 275 l 763 275 q 733 268 742 275 q 725 235 725 261 l 725 188 q 733 155 725 163 q 767 147 742 147 l 826 147 l 826 49 l 767 49 q 733 42 742 49 q 725 8 725 35 l 725 -39 q 733 -71 725 -62 q 767 -79 742 -79 l 890 -79 l 890 -176 l 733 -176 q 633 -147 667 -176 q 600 -53 600 -118 l 600 28 q 615 76 600 60 q 654 94 629 93 l 654 99 q 615 117 629 101 q 600 167 600 133 l 600 235 q 622 280 600 268 q 682 288 644 292 l 697 275 l 314 275 l 314 371 l 694 371 l 668 349 q 615 377 631 354 q 600 443 600 400 l 600 547 q 631 638 600 607 q 733 669 661 669 l 807 669 z "},"उ":{"ha":493,"x_min":-28,"x_max":518,"o":"m -28 869 l 518 869 l 518 772 l -28 772 l -28 869 m 418 564 q 403 515 418 532 q 364 496 389 499 l 364 492 q 403 474 389 490 q 418 425 418 457 l 418 118 q 388 29 418 58 q 290 0 358 0 l 161 0 q 63 29 93 0 q 33 118 33 58 l 33 292 l 158 292 l 158 135 q 167 103 158 111 q 197 94 175 94 l 253 94 q 285 103 278 94 q 293 135 293 111 l 293 401 q 285 435 293 428 q 253 442 278 442 l 146 442 l 146 540 l 253 540 q 285 548 278 540 q 293 581 293 556 l 293 726 q 284 764 293 756 q 232 772 275 772 l 347 789 q 399 778 381 789 q 418 735 418 768 l 418 564 z "},"ऑ":{"ha":1032,"x_min":47,"x_max":1111,"o":"m 1000 1061 l 1000 1061 l 1000 1126 l 1111 1126 l 1111 1049 q 1080 962 1111 990 q 981 933 1049 933 l 814 933 q 714 962 746 933 q 682 1049 682 990 l 682 1126 l 793 1126 l 793 1061 q 801 1028 793 1036 q 836 1021 810 1021 l 958 1021 q 992 1028 985 1021 q 1000 1061 1000 1036 m 565 869 l 565 869 l 1058 869 l 1058 772 l 960 772 l 960 0 l 835 0 l 835 772 l 690 772 l 690 0 l 565 0 l 565 392 l 429 392 l 429 229 q 399 138 429 168 q 301 108 369 108 l 175 108 q 78 138 108 108 q 47 229 47 168 l 47 358 l 174 358 l 174 246 q 181 213 174 221 q 214 206 189 206 l 264 206 q 296 213 288 206 q 304 246 304 221 l 304 394 q 294 428 304 419 q 260 438 285 438 l 176 438 l 176 536 l 260 536 q 294 546 285 536 q 304 581 304 556 l 304 733 q 296 766 304 758 q 264 774 288 774 l 214 774 q 181 766 189 774 q 174 733 174 758 l 174 624 l 47 624 l 47 750 q 78 841 47 811 q 175 871 108 871 l 301 871 q 399 841 369 871 q 429 750 429 811 l 429 557 q 379 488 429 497 l 565 488 l 565 869 z "},"ऊ":{"ha":699,"x_min":-28,"x_max":726,"o":"m 535 492 q 628 462 597 492 q 660 368 660 432 l 660 118 q 630 29 660 58 q 532 0 600 0 l 465 0 l 465 97 l 493 97 q 526 106 518 97 q 533 138 533 114 l 533 353 q 526 387 533 379 q 493 394 518 394 l 326 394 l 326 492 l 535 492 m 726 869 l 726 772 l -28 772 l -28 869 l 726 869 m 418 564 q 403 515 418 532 q 364 496 389 499 l 364 492 q 403 474 389 490 q 418 425 418 457 l 418 118 q 388 29 418 58 q 290 0 358 0 l 161 0 q 63 29 93 0 q 33 118 33 58 l 33 292 l 158 292 l 158 135 q 167 103 158 111 q 197 94 175 94 l 253 94 q 285 103 278 94 q 293 135 293 111 l 293 401 q 285 435 293 428 q 253 442 278 442 l 146 442 l 146 540 l 253 540 q 285 548 278 540 q 293 581 293 556 l 293 726 q 284 764 293 756 q 232 772 275 772 l 347 789 q 399 778 381 789 q 418 735 418 768 l 418 564 z "},"ब":{"ha":590,"x_min":-28,"x_max":618,"o":"m -28 869 l 618 869 l 618 772 l -28 772 l -28 869 m 336 669 l 336 575 l 232 575 l 328 407 q 363 344 346 375 q 391 293 381 313 q 401 274 401 274 q 399 292 401 274 q 395 350 397 310 q 393 451 393 390 l 393 825 l 518 825 l 518 0 l 393 0 l 393 138 l 400 156 l 263 390 q 213 486 232 449 q 189 531 194 524 l 189 247 q 197 214 189 222 q 229 206 206 206 l 353 206 q 388 215 379 206 q 397 250 397 225 l 414 181 q 399 124 414 140 q 347 108 385 108 l 189 108 q 95 138 126 108 q 64 232 64 168 l 64 551 q 94 641 64 613 q 192 669 124 669 l 336 669 z "},"भ":{"ha":796,"x_min":61,"x_max":824,"o":"m 597 817 l 724 817 l 724 0 l 597 0 l 597 817 m 597 869 l 824 869 l 824 772 l 597 772 l 597 869 m 324 871 q 422 840 392 871 q 451 750 451 810 l 451 232 q 419 138 451 168 q 318 108 388 108 l 194 108 q 93 138 125 108 q 61 232 61 168 l 61 450 q 91 539 61 510 q 189 568 121 568 l 649 568 l 649 471 l 228 471 q 194 463 203 471 q 186 431 186 456 l 186 247 q 195 214 186 222 q 228 206 204 206 l 285 206 q 318 214 310 206 q 326 247 326 222 l 326 733 q 318 766 326 758 q 285 774 310 774 l 239 774 q 206 766 214 774 q 197 733 197 758 l 197 665 l 72 665 l 72 750 q 102 840 72 810 q 200 871 132 871 l 324 871 z "},"च":{"ha":569,"x_min":-28,"x_max":597,"o":"m -28 869 l 597 869 l 597 772 l -28 772 l -28 869 m 372 825 l 497 825 l 497 0 l 372 0 l 372 825 m 1 669 l 306 669 l 306 572 l 1 572 l 1 669 m 88 528 q 113 581 88 572 q 182 588 139 589 l 286 572 q 240 571 256 572 q 218 561 224 569 q 213 531 213 553 l 213 247 q 221 214 213 222 q 254 206 229 206 l 328 206 q 363 215 353 206 q 372 250 372 225 l 388 181 q 373 124 388 140 q 321 108 358 108 l 213 108 q 119 138 150 108 q 88 232 88 168 l 88 528 z "},"छ":{"ha":754,"x_min":-28,"x_max":782,"o":"m -28 869 l 782 869 l 782 772 l -28 772 l -28 869 m 465 810 l 582 810 l 582 639 l 465 639 l 465 810 m 71 736 q 96 783 71 776 q 164 786 121 789 l 272 771 q 210 768 224 774 q 196 728 196 763 l 196 521 q 204 488 196 496 q 236 479 213 479 l 286 479 l 286 382 l 236 382 q 204 374 213 382 q 196 340 196 367 l 196 139 q 204 106 196 114 q 236 99 213 99 l 529 99 q 562 106 554 99 q 569 139 569 114 l 569 538 q 562 570 569 563 q 529 578 554 578 l 503 578 q 471 570 479 578 q 463 538 463 563 l 463 382 q 471 349 463 357 q 503 342 479 342 l 528 342 l 528 250 l 476 250 q 385 278 417 250 q 354 368 354 306 l 354 551 q 386 642 354 614 q 482 669 418 669 l 561 669 q 658 642 626 669 q 690 551 690 614 l 690 124 q 658 30 690 60 q 557 0 625 0 l 204 0 q 103 30 136 0 q 71 124 71 60 l 71 361 q 85 409 71 393 q 125 428 100 425 l 125 431 q 85 451 100 435 q 71 499 71 467 l 71 736 z "},"द":{"ha":519,"x_min":-32,"x_max":547,"o":"m -32 869 l 547 869 l 547 772 l -32 772 l -32 869 m 322 810 l 447 810 l 447 572 l 235 572 q 202 565 211 572 q 193 531 193 557 l 193 247 q 201 214 193 222 q 233 206 210 206 l 285 206 q 320 215 311 206 q 329 250 329 225 l 346 181 q 331 124 346 140 q 279 108 317 108 l 201 108 q 100 138 132 108 q 68 232 68 168 l 68 551 q 98 641 68 613 q 196 669 128 669 l 322 669 l 322 810 m 329 376 l 454 376 l 454 0 l 329 0 l 329 376 z "},"ड":{"ha":522,"x_min":-28,"x_max":550,"o":"m -28 869 l 550 869 l 550 772 l -28 772 l -28 869 m 301 825 l 428 825 l 428 575 l 242 575 q 210 567 218 575 q 201 535 201 560 l 201 451 q 210 420 201 428 q 242 413 218 413 l 317 413 q 415 383 385 413 q 444 294 444 354 l 444 118 q 415 29 444 58 q 317 0 385 0 l 189 0 q 91 29 121 0 q 61 118 61 58 l 61 228 l 186 228 l 186 135 q 194 103 186 111 q 225 94 203 94 l 279 94 q 312 103 304 94 q 319 135 319 111 l 319 278 q 312 310 319 303 q 279 317 304 317 l 203 317 q 106 346 136 317 q 76 435 76 375 l 76 551 q 106 641 76 613 q 203 669 136 669 l 301 669 l 301 825 z "},"ड़":{"ha":522,"x_min":-28,"x_max":550,"o":"m -28 869 l 550 869 l 550 772 l -28 772 l -28 869 m 301 825 l 428 825 l 428 575 l 242 575 q 210 567 218 575 q 201 535 201 560 l 201 451 q 210 420 201 428 q 242 413 218 413 l 317 413 q 415 383 385 413 q 444 294 444 354 l 444 118 q 415 29 444 58 q 317 0 385 0 l 189 0 q 91 29 121 0 q 61 118 61 58 l 61 228 l 186 228 l 186 135 q 194 103 186 111 q 225 94 203 94 l 279 94 q 312 103 304 94 q 319 135 319 111 l 319 278 q 312 310 319 303 q 279 317 304 317 l 203 317 q 106 346 136 317 q 76 435 76 375 l 76 551 q 106 641 76 613 q 203 669 136 669 l 301 669 l 301 825 m 192 -78 l 307 -78 l 307 -210 l 192 -210 l 192 -78 z "},"ढ":{"ha":564,"x_min":-28,"x_max":592,"o":"m -28 869 l 592 869 l 592 772 l -28 772 l -28 869 m 315 810 l 440 810 l 440 572 l 239 572 q 206 565 215 572 q 197 531 197 557 l 197 139 q 206 106 197 114 q 239 97 215 97 l 329 97 q 362 106 354 97 q 369 139 369 114 l 369 261 q 362 294 369 286 q 329 301 354 301 l 271 301 l 271 399 l 361 399 q 464 369 432 399 q 496 275 496 340 l 496 124 q 464 30 496 60 q 361 0 432 0 l 206 0 q 104 30 136 0 q 72 124 72 60 l 72 551 q 102 641 72 613 q 200 669 132 669 l 315 669 l 315 810 z "},"ध":{"ha":664,"x_min":93,"x_max":694,"o":"m 468 869 l 694 869 l 694 772 l 468 772 l 468 869 m 468 822 l 594 822 l 594 0 l 468 0 l 468 822 m 219 568 q 228 535 219 543 q 260 526 236 526 l 354 526 l 354 429 l 260 429 q 228 422 236 429 q 219 388 219 414 l 219 247 q 228 214 219 222 q 260 206 236 206 l 421 206 q 458 216 449 206 q 468 253 468 226 l 485 178 q 469 124 485 140 q 419 108 454 108 l 218 108 q 124 138 154 108 q 93 226 93 167 l 93 408 q 108 456 93 440 q 147 475 122 472 l 147 478 q 108 497 122 481 q 93 546 93 514 l 93 760 q 124 848 93 819 q 218 876 154 876 l 272 876 q 367 848 336 876 q 397 760 397 819 l 397 679 l 314 679 l 314 739 q 306 772 314 764 q 272 779 297 779 l 260 779 q 228 772 236 779 q 219 739 219 764 l 219 568 z "},"फ़":{"ha":769,"x_min":-28,"x_max":797,"o":"m 326 822 l 453 822 l 453 0 l 326 0 l 326 822 m 64 821 l 190 821 l 190 247 q 199 214 190 222 q 231 206 207 206 l 283 206 q 317 215 308 206 q 326 250 326 225 l 343 181 q 328 124 343 140 q 276 108 314 108 l 189 108 q 95 138 126 108 q 64 232 64 168 l 64 821 m 590 669 q 684 640 653 669 q 715 546 715 610 l 715 226 q 685 138 715 167 q 588 108 656 108 l 508 108 l 508 203 l 549 203 q 581 211 574 203 q 589 243 589 219 l 589 531 q 581 565 589 557 q 549 572 574 572 l 496 572 q 463 563 472 572 q 453 528 453 554 l 436 597 q 451 653 436 638 q 503 669 467 669 l 590 669 m -28 869 l 797 869 l 797 772 l -28 772 l -28 869 m 132 0 l 247 0 l 247 -132 l 132 -132 l 132 0 z "},"ग":{"ha":774,"x_min":-28,"x_max":801,"o":"m 576 824 l 701 824 l 701 0 l 576 0 l 576 824 m -28 869 l 801 869 l 801 772 l -28 772 l -28 869 m 314 814 l 439 814 l 439 232 q 407 138 439 168 q 306 108 375 108 l 181 108 q 78 138 110 108 q 47 232 47 168 l 47 485 q 81 576 47 547 q 186 606 114 606 l 347 606 l 347 507 l 215 507 q 181 499 189 507 q 172 464 172 492 l 172 247 q 181 214 172 222 q 214 206 189 206 l 272 206 q 306 214 297 206 q 314 247 314 222 l 314 814 z "},"घ":{"ha":611,"x_min":-28,"x_max":639,"o":"m 64 731 q 90 778 64 769 q 158 788 115 788 l 267 772 q 217 771 235 772 q 195 760 200 769 q 190 728 190 750 l 190 578 q 199 545 190 553 q 231 538 207 538 l 315 538 l 315 439 l 231 439 q 199 432 207 439 q 190 399 190 425 l 190 247 q 199 214 190 222 q 231 206 207 206 l 367 206 q 404 216 394 206 q 414 253 414 226 l 431 178 q 415 124 431 140 q 365 108 400 108 l 199 108 q 97 138 131 108 q 64 232 64 168 l 64 418 q 78 467 64 450 q 118 485 93 483 l 118 489 q 78 508 93 492 q 64 557 64 524 l 64 731 m -28 869 l 639 869 l 639 772 l -28 772 l -28 869 m 414 822 l 540 822 l 540 0 l 414 0 l 414 822 z "},"ग़":{"ha":774,"x_min":-28,"x_max":801,"o":"m 576 824 l 701 824 l 701 0 l 576 0 l 576 824 m -28 869 l 801 869 l 801 772 l -28 772 l -28 869 m 314 814 l 439 814 l 439 232 q 407 138 439 168 q 306 108 375 108 l 181 108 q 78 138 110 108 q 47 232 47 168 l 47 485 q 81 576 47 547 q 186 606 114 606 l 347 606 l 347 507 l 215 507 q 181 499 189 507 q 172 464 172 492 l 172 247 q 181 214 172 222 q 214 206 189 206 l 272 206 q 306 214 297 206 q 314 247 314 222 l 314 814 m 181 1 l 296 1 l 296 -131 l 181 -131 l 181 1 z "},"ह":{"ha":540,"x_min":-28,"x_max":579,"o":"m -28 869 l 579 869 l 579 772 l -28 772 l -28 869 m 343 669 l 343 810 l 468 810 l 468 572 l 238 572 q 206 565 214 572 q 197 533 197 557 l 197 476 q 206 446 197 454 q 238 438 214 438 l 346 438 q 448 408 417 438 q 479 314 479 378 l 479 238 l 354 238 l 354 299 q 346 333 354 325 q 313 340 338 340 l 238 340 q 206 333 214 340 q 197 299 197 325 l 197 139 q 206 106 197 114 q 238 97 214 97 l 479 97 l 479 0 l 206 0 q 105 30 138 0 q 72 124 72 60 l 72 318 q 87 367 72 351 q 126 386 101 383 l 126 389 q 87 408 101 392 q 72 457 72 425 l 72 551 q 102 641 72 613 q 200 669 132 669 l 343 669 z "},"ज":{"ha":750,"x_min":-28,"x_max":778,"o":"m 553 817 l 678 817 l 678 0 l 553 0 l 553 817 m -28 869 l 778 869 l 778 772 l -28 772 l -28 869 m 61 669 l 186 669 l 186 247 q 195 214 186 222 q 228 206 204 206 l 271 206 q 303 214 296 206 q 311 247 311 222 l 311 669 l 603 669 l 603 572 l 438 572 l 438 232 q 406 138 438 168 q 303 108 374 108 l 194 108 q 93 138 125 108 q 61 232 61 168 l 61 669 z "},"झ":{"ha":792,"x_min":-33,"x_max":819,"o":"m 61 257 l 186 257 l 186 -18 l 61 -18 l 61 257 m -33 869 l 819 869 l 819 772 l -33 772 l -33 869 m 594 818 l 719 818 l 719 0 l 594 0 l 594 818 m 315 825 l 442 825 l 442 575 l 225 575 q 193 567 201 575 q 185 535 185 560 l 185 485 q 193 452 185 460 q 225 444 201 444 l 624 444 l 624 350 l 392 350 l 443 383 q 456 321 456 361 l 456 203 q 426 115 456 143 q 328 86 396 86 l 138 86 l 138 181 l 289 181 q 322 188 314 181 q 331 221 331 196 l 331 310 q 322 342 331 335 q 289 350 314 350 l 186 350 q 90 378 119 350 q 60 468 60 407 l 60 551 q 90 641 60 613 q 186 669 119 669 l 315 669 l 315 825 z "},"क":{"ha":761,"x_min":-28,"x_max":789,"o":"m 318 822 l 443 822 l 443 0 l 318 0 l 318 822 m 261 669 l 261 575 l 221 575 q 189 567 197 575 q 181 535 181 560 l 181 247 q 189 214 181 222 q 221 206 197 206 l 274 206 q 308 215 299 206 q 318 250 318 225 l 333 181 q 319 124 333 140 q 267 108 304 108 l 181 108 q 87 138 118 108 q 56 232 56 168 l 56 551 q 85 641 56 613 q 183 669 115 669 l 261 669 m 581 669 q 674 640 643 669 q 706 546 706 610 l 706 226 q 676 138 706 167 q 578 108 646 108 l 499 108 l 499 203 l 539 203 q 572 211 564 203 q 581 243 581 219 l 581 531 q 572 565 581 557 q 539 572 564 572 l 488 572 q 453 563 463 572 q 443 528 443 554 l 426 597 q 442 653 426 638 q 493 669 457 669 l 581 669 m -28 869 l 789 869 l 789 772 l -28 772 l -28 869 z "},"ख":{"ha":913,"x_min":-28,"x_max":940,"o":"m 719 832 l 840 832 l 840 0 l 719 0 l 719 832 m 675 654 l 675 560 l 625 560 q 593 552 601 560 q 585 519 585 544 l 585 292 q 593 259 585 267 q 625 251 601 251 l 668 251 q 708 262 696 251 q 719 301 719 272 l 732 225 q 717 169 732 186 q 664 153 701 153 l 589 153 q 495 183 526 153 q 464 276 464 213 l 464 536 q 494 625 464 596 q 592 654 524 654 l 675 654 m 64 654 l 190 654 l 190 144 q 199 110 190 118 q 233 101 207 101 l 540 101 l 540 0 l 204 0 q 98 29 132 0 q 64 121 64 58 l 64 654 m -28 869 l 940 869 l 940 772 l 350 772 l 357 785 q 391 774 379 783 q 403 736 403 764 l 403 457 q 372 367 403 396 q 275 338 342 338 l 147 338 l 147 435 l 233 435 q 269 444 261 435 q 278 479 278 453 l 278 728 q 269 764 278 756 q 233 772 261 772 l -28 772 l -28 869 z "},"ख़":{"ha":913,"x_min":-28,"x_max":940,"o":"m 719 832 l 840 832 l 840 0 l 719 0 l 719 832 m 675 654 l 675 560 l 625 560 q 593 552 601 560 q 585 519 585 544 l 585 292 q 593 259 585 267 q 625 251 601 251 l 668 251 q 708 262 696 251 q 719 301 719 272 l 732 225 q 717 169 732 186 q 664 153 701 153 l 589 153 q 495 183 526 153 q 464 276 464 213 l 464 536 q 494 625 464 596 q 592 654 524 654 l 675 654 m 64 654 l 190 654 l 190 144 q 199 110 190 118 q 233 101 207 101 l 540 101 l 540 0 l 204 0 q 98 29 132 0 q 64 121 64 58 l 64 654 m -28 869 l 940 869 l 940 772 l 350 772 l 357 785 q 391 774 379 783 q 403 736 403 764 l 403 457 q 372 367 403 396 q 275 338 342 338 l 147 338 l 147 435 l 233 435 q 269 444 261 435 q 278 479 278 453 l 278 728 q 269 764 278 756 q 233 772 261 772 l -28 772 l -28 869 m 186 -82 l 301 -82 l 301 -214 l 186 -214 l 186 -82 z "},"ल":{"ha":754,"x_min":-28,"x_max":782,"o":"m -28 869 l 782 869 l 782 772 l -28 772 l -28 869 m 310 669 q 359 655 342 669 q 378 615 376 640 l 382 615 q 401 655 385 640 q 449 669 417 669 l 603 669 l 603 572 l 482 572 q 449 564 457 572 q 440 531 440 556 l 440 257 l 315 257 l 315 531 q 308 564 315 556 q 275 572 300 572 l 231 572 q 199 565 207 572 q 190 531 190 557 l 190 140 q 199 109 190 117 q 231 101 207 101 l 313 101 l 313 0 l 193 0 q 95 29 125 0 q 65 118 65 58 l 65 546 q 97 640 65 610 q 190 669 128 669 l 310 669 m 689 0 l 564 0 l 564 810 l 689 810 l 689 0 z "},"ळ":{"ha":788,"x_min":-50,"x_max":836,"o":"m -50 869 l 836 869 l 836 772 l -50 772 l -50 869 m 478 810 l 604 810 l 604 631 l 478 631 l 478 810 m 613 669 q 706 640 675 669 q 738 546 738 610 l 738 232 q 706 138 738 168 q 613 108 675 108 l 469 108 q 397 163 403 108 l 393 163 q 319 108 389 108 l 175 108 q 81 138 113 108 q 50 232 50 168 l 50 546 q 81 640 50 610 q 175 669 113 669 l 319 669 q 393 615 389 669 l 397 615 q 469 669 403 669 l 613 669 m 611 531 q 603 565 611 557 q 571 572 596 572 l 496 572 q 463 564 471 572 q 454 531 454 556 l 454 247 q 463 215 454 224 q 496 206 471 206 l 571 206 q 603 214 596 206 q 611 247 611 222 l 611 531 m 332 531 q 325 564 332 556 q 292 572 318 572 l 217 572 q 183 565 192 572 q 175 531 175 557 l 175 247 q 183 214 175 222 q 217 206 192 206 l 292 206 q 325 215 318 206 q 332 247 332 224 l 332 531 m 182 35 l 297 35 l 297 -97 l 182 -97 l 182 35 z "},"ऴ":{"ha":788,"x_min":-50,"x_max":836,"o":"m -50 869 l 836 869 l 836 772 l -50 772 l -50 869 m 478 810 l 604 810 l 604 631 l 478 631 l 478 810 m 613 669 q 706 640 675 669 q 738 546 738 610 l 738 232 q 706 138 738 168 q 613 108 675 108 l 469 108 q 397 163 403 108 l 393 163 q 319 108 389 108 l 175 108 q 81 138 113 108 q 50 232 50 168 l 50 546 q 81 640 50 610 q 175 669 113 669 l 319 669 q 393 615 389 669 l 397 615 q 469 669 403 669 l 613 669 m 611 531 q 603 565 611 557 q 571 572 596 572 l 496 572 q 463 564 471 572 q 454 531 454 556 l 454 247 q 463 215 454 224 q 496 206 471 206 l 571 206 q 603 214 596 206 q 611 247 611 222 l 611 531 m 332 531 q 325 564 332 556 q 292 572 318 572 l 217 572 q 183 565 192 572 q 175 531 175 557 l 175 247 q 183 214 175 222 q 217 206 192 206 l 292 206 q 325 215 318 206 q 332 247 332 224 l 332 531 m 182 35 l 297 35 l 297 -97 l 182 -97 l 182 35 z "},"म":{"ha":782,"x_min":-28,"x_max":810,"o":"m 313 793 l 438 793 l 438 265 q 406 171 438 200 q 304 142 374 142 l 181 142 q 79 171 111 142 q 47 265 47 200 l 47 482 q 77 571 47 542 q 175 600 107 600 l 635 600 l 635 503 l 208 503 q 175 495 183 503 q 167 463 167 488 l 167 281 q 176 247 167 256 q 208 239 185 239 l 271 239 q 304 247 296 239 q 313 281 313 256 l 313 793 m 583 817 l 710 817 l 710 0 l 583 0 l 583 817 m -28 869 l 810 869 l 810 772 l -28 772 l -28 869 z "},"न":{"ha":729,"x_min":-28,"x_max":757,"o":"m 532 817 l 657 817 l 657 0 l 532 0 l 532 817 m -28 869 l 757 869 l 757 772 l -28 772 l -28 869 m 418 232 q 386 138 418 168 q 283 108 354 108 l 181 108 q 79 138 111 108 q 47 232 47 168 l 47 551 q 77 641 47 613 q 175 669 107 669 l 583 669 l 583 572 l 214 572 q 181 565 189 572 q 172 532 172 557 l 172 247 q 181 214 172 222 q 214 206 190 206 l 251 206 q 284 214 276 206 q 292 247 292 222 l 292 600 l 418 600 l 418 232 z "},"ङ":{"ha":549,"x_min":-28,"x_max":576,"o":"m -28 869 l 576 869 l 576 772 l -28 772 l -28 869 m 301 825 l 428 825 l 428 575 l 242 575 q 210 567 218 575 q 201 535 201 560 l 201 451 q 210 420 201 428 q 242 413 218 413 l 317 413 q 415 383 385 413 q 444 294 444 354 l 444 118 q 415 29 444 58 q 317 0 385 0 l 189 0 q 91 29 121 0 q 61 118 61 58 l 61 228 l 186 228 l 186 135 q 194 103 186 111 q 225 94 203 94 l 279 94 q 312 103 304 94 q 319 135 319 111 l 319 278 q 312 310 319 303 q 279 317 304 317 l 203 317 q 106 346 136 317 q 76 435 76 375 l 76 551 q 106 641 76 613 q 203 669 136 669 l 301 669 l 301 825 m 426 553 l 542 553 l 542 421 l 426 421 l 426 553 z "},"ण":{"ha":753,"x_min":-28,"x_max":781,"o":"m 556 817 l 681 817 l 681 0 l 556 0 l 556 817 m -28 869 l 781 869 l 781 772 l -28 772 l -28 869 m 61 806 l 186 806 l 186 247 q 195 214 186 222 q 228 206 204 206 l 271 206 q 303 214 296 206 q 311 247 311 222 l 311 806 l 438 806 l 438 232 q 406 138 438 168 q 303 108 374 108 l 194 108 q 93 138 125 108 q 61 232 61 168 l 61 806 z "},"ञ":{"ha":740,"x_min":-28,"x_max":768,"o":"m 543 817 l 668 817 l 668 0 l 543 0 l 543 817 m -28 869 l 768 869 l 768 772 l -28 772 l -28 869 m 39 360 l 164 360 l 164 247 q 173 214 164 222 q 206 206 182 206 l 243 206 q 276 214 268 206 q 283 247 283 222 l 283 532 q 276 565 283 557 q 243 572 268 572 l 119 572 l 119 669 l 282 669 q 380 639 350 669 q 410 549 410 608 l 410 232 q 378 138 410 168 q 275 108 346 108 l 172 108 q 71 138 103 108 q 39 232 39 168 l 39 360 m 354 364 l 354 463 l 589 463 l 589 364 l 354 364 z "},"प":{"ha":532,"x_min":-28,"x_max":560,"o":"m -28 869 l 560 869 l 560 772 l -28 772 l -28 869 m 335 824 l 460 824 l 460 0 l 335 0 l 335 824 m 72 821 l 197 821 l 197 247 q 206 214 197 222 q 238 206 214 206 l 290 206 q 325 215 315 206 q 335 250 335 225 l 350 181 q 336 124 350 140 q 283 108 322 108 l 197 108 q 103 138 135 108 q 72 232 72 168 l 72 821 z "},"फ":{"ha":769,"x_min":-28,"x_max":797,"o":"m 326 822 l 453 822 l 453 0 l 326 0 l 326 822 m 64 821 l 190 821 l 190 247 q 199 214 190 222 q 231 206 207 206 l 283 206 q 317 215 308 206 q 326 250 326 225 l 343 181 q 328 124 343 140 q 276 108 314 108 l 189 108 q 95 138 126 108 q 64 232 64 168 l 64 821 m 590 669 q 684 640 653 669 q 715 546 715 610 l 715 226 q 685 138 715 167 q 588 108 656 108 l 508 108 l 508 203 l 549 203 q 581 211 574 203 q 589 243 589 219 l 589 531 q 581 565 589 557 q 549 572 574 572 l 496 572 q 463 563 472 572 q 453 528 453 554 l 436 597 q 451 653 436 638 q 503 669 467 669 l 590 669 m -28 869 l 797 869 l 797 772 l -28 772 l -28 869 z "},"क़":{"ha":761,"x_min":-28,"x_max":789,"o":"m 318 822 l 443 822 l 443 0 l 318 0 l 318 822 m 261 669 l 261 575 l 221 575 q 189 567 197 575 q 181 535 181 560 l 181 247 q 189 214 181 222 q 221 206 197 206 l 274 206 q 308 215 299 206 q 318 250 318 225 l 333 181 q 319 124 333 140 q 267 108 304 108 l 181 108 q 87 138 118 108 q 56 232 56 168 l 56 551 q 85 641 56 613 q 183 669 115 669 l 261 669 m 581 669 q 674 640 643 669 q 706 546 706 610 l 706 226 q 676 138 706 167 q 578 108 646 108 l 499 108 l 499 203 l 539 203 q 572 211 564 203 q 581 243 581 219 l 581 531 q 572 565 581 557 q 539 572 564 572 l 488 572 q 453 563 463 572 q 443 528 443 554 l 426 597 q 442 653 426 638 q 493 669 457 669 l 581 669 m -28 869 l 789 869 l 789 772 l -28 772 l -28 869 m 83 32 l 199 32 l 199 -100 l 83 -100 l 83 32 z "},"र":{"ha":501,"x_min":-28,"x_max":529,"o":"m 61 626 l 186 626 l 186 135 q 194 103 186 111 q 228 94 203 94 l 279 94 q 310 103 303 94 q 318 135 318 111 l 318 292 l 443 292 l 443 118 q 413 29 443 58 q 315 0 383 0 l 189 0 q 91 29 121 0 q 61 118 61 58 l 61 626 m -28 869 l 529 869 l 529 772 l 393 772 l 400 785 q 434 774 422 783 q 446 736 446 764 l 446 506 q 412 415 446 444 q 307 386 378 386 l 158 386 l 158 483 l 276 483 q 313 492 304 483 q 321 528 321 501 l 321 728 q 313 764 321 756 q 276 772 304 772 l -28 772 l -28 869 z "},"ढ़":{"ha":564,"x_min":-28,"x_max":592,"o":"m -28 869 l 592 869 l 592 772 l -28 772 l -28 869 m 315 810 l 440 810 l 440 572 l 239 572 q 206 565 215 572 q 197 531 197 557 l 197 139 q 206 106 197 114 q 239 97 215 97 l 329 97 q 362 106 354 97 q 369 139 369 114 l 369 261 q 362 294 369 286 q 329 301 354 301 l 271 301 l 271 399 l 361 399 q 464 369 432 399 q 496 275 496 340 l 496 124 q 464 30 496 60 q 361 0 432 0 l 206 0 q 104 30 136 0 q 72 124 72 60 l 72 551 q 102 641 72 613 q 200 669 132 669 l 315 669 l 315 810 m 229 -74 l 344 -74 l 344 -206 l 229 -206 l 229 -74 z "},"ऱ":{"ha":501,"x_min":-28,"x_max":529,"o":"m 61 626 l 186 626 l 186 135 q 194 103 186 111 q 228 94 203 94 l 279 94 q 310 103 303 94 q 318 135 318 111 l 318 292 l 443 292 l 443 118 q 413 29 443 58 q 315 0 383 0 l 189 0 q 91 29 121 0 q 61 118 61 58 l 61 626 m -28 869 l 529 869 l 529 772 l 393 772 l 400 785 q 434 774 422 783 q 446 736 446 764 l 446 506 q 412 415 446 444 q 307 386 378 386 l 158 386 l 158 483 l 276 483 q 313 492 304 483 q 321 528 321 501 l 321 728 q 313 764 321 756 q 276 772 304 772 l -28 772 l -28 869 m 182 -97 l 297 -97 l 297 -229 l 182 -229 l 182 -97 z "},"स":{"ha":764,"x_min":-28,"x_max":792,"o":"m 61 626 l 186 626 l 186 135 q 194 103 186 111 q 228 94 203 94 l 279 94 q 310 103 303 94 q 318 135 318 111 l 318 292 l 443 292 l 443 118 q 413 29 443 58 q 315 0 383 0 l 189 0 q 91 29 121 0 q 61 118 61 58 l 61 626 m -28 869 l 792 869 l 792 772 l 393 772 l 400 785 q 434 774 422 783 q 446 736 446 764 l 446 557 q 431 490 446 513 q 378 463 417 468 l 351 483 l 604 483 l 604 386 l 158 386 l 158 483 l 276 483 q 313 492 304 483 q 321 528 321 501 l 321 728 q 313 764 321 756 q 276 772 304 772 l -28 772 l -28 869 m 568 800 l 692 800 l 692 0 l 568 0 l 568 800 z "},"श":{"ha":760,"x_min":67,"x_max":788,"o":"m 67 529 l 192 529 l 192 135 q 200 103 192 111 q 233 94 208 94 l 285 94 q 316 103 308 94 q 324 135 324 111 l 324 268 l 450 268 l 450 118 q 420 29 450 58 q 322 0 390 0 l 194 0 q 97 29 126 0 q 67 118 67 58 l 67 529 m 324 872 q 422 842 392 872 q 451 751 451 811 l 451 482 q 417 392 451 421 q 313 363 383 363 l 164 363 l 164 460 l 282 460 q 318 469 310 460 q 326 504 326 478 l 326 735 q 319 767 326 760 q 286 775 311 775 l 233 775 q 203 767 211 775 q 194 735 194 760 l 194 628 l 69 628 l 69 751 q 99 842 69 811 q 197 872 129 872 l 324 872 m 563 869 l 788 869 l 788 772 l 688 772 l 688 0 l 563 0 l 563 869 z "},"ष":{"ha":589,"x_min":-28,"x_max":617,"o":"m -28 869 l 617 869 l 617 772 l -28 772 l -28 869 m 72 821 l 192 821 l 192 782 l 332 501 q 384 384 365 432 q 403 336 403 336 q 397 390 403 336 q 392 526 392 443 l 392 824 l 517 824 l 517 0 l 392 0 l 392 178 l 399 206 l 253 501 q 203 609 221 565 q 185 653 185 653 q 191 606 185 653 q 197 485 197 558 l 197 247 q 206 214 197 222 q 238 206 214 206 l 347 206 q 383 215 374 206 q 392 250 392 225 l 408 181 q 394 124 408 140 q 342 108 379 108 l 197 108 q 103 138 135 108 q 72 232 72 168 l 72 821 z "},"त":{"ha":553,"x_min":-28,"x_max":581,"o":"m 481 824 l 481 0 l 356 0 l 356 824 l 481 824 m -28 869 l 581 869 l 581 772 l -28 772 l -28 869 m 397 669 l 397 572 l 228 572 q 194 565 203 572 q 186 532 186 557 l 186 140 q 194 109 186 117 q 228 101 203 101 l 268 101 l 268 0 l 189 0 q 91 29 121 0 q 61 118 61 58 l 61 551 q 91 641 61 613 q 189 669 121 669 l 397 669 z "},"थ":{"ha":663,"x_min":65,"x_max":690,"o":"m 464 869 l 690 869 l 690 772 l 464 772 l 464 869 m 464 822 l 590 822 l 590 0 l 464 0 l 464 822 m 249 876 q 343 848 313 876 q 374 760 374 819 l 374 526 q 344 436 374 467 q 246 406 314 406 l 190 406 l 190 247 q 199 214 190 222 q 231 206 207 206 l 417 206 q 454 216 444 206 q 464 253 464 226 l 481 178 q 465 124 481 140 q 415 108 450 108 l 199 108 q 98 138 131 108 q 65 232 65 168 l 65 504 l 207 504 q 240 512 232 504 q 249 543 249 519 l 249 739 q 240 772 249 764 q 207 779 232 779 l 200 779 q 167 772 175 779 q 158 739 158 764 l 158 679 l 75 679 l 75 760 q 104 848 75 819 q 197 876 133 876 l 249 876 z "},"ट":{"ha":508,"x_min":-28,"x_max":536,"o":"m 315 810 l 440 810 l 440 572 l 239 572 q 206 565 215 572 q 197 531 197 557 l 197 139 q 206 106 197 114 q 239 97 215 97 l 281 97 q 315 106 307 97 q 322 139 322 114 l 322 282 l 449 282 l 449 124 q 417 30 449 60 q 314 0 385 0 l 206 0 q 104 30 136 0 q 72 124 72 60 l 72 551 q 102 641 72 613 q 200 669 132 669 l 315 669 l 315 810 m -28 869 l 536 869 l 536 772 l -28 772 l -28 869 z "},"ठ":{"ha":546,"x_min":-28,"x_max":574,"o":"m -28 869 l 574 869 l 574 772 l -28 772 l -28 869 m 349 669 q 450 640 418 669 q 482 546 482 610 l 482 124 q 450 30 482 60 q 349 0 418 0 l 206 0 q 104 30 136 0 q 72 124 72 60 l 72 546 q 104 640 72 610 q 206 669 136 669 l 349 669 m 214 797 l 340 797 l 340 640 l 214 640 l 214 797 m 357 531 q 349 565 357 557 q 315 572 340 572 l 239 572 q 206 565 215 572 q 197 531 197 557 l 197 139 q 206 106 197 114 q 239 97 215 97 l 315 97 q 349 106 340 97 q 357 139 357 114 l 357 531 z "},"व":{"ha":524,"x_min":-28,"x_max":551,"o":"m -28 869 l 551 869 l 551 772 l -28 772 l -28 869 m 326 824 l 453 824 l 453 0 l 326 0 l 326 824 m 271 669 l 271 572 l 231 572 q 199 565 207 572 q 190 532 190 557 l 190 247 q 199 214 190 222 q 231 206 207 206 l 283 206 q 317 215 308 206 q 326 250 326 225 l 343 181 q 328 124 343 140 q 276 108 314 108 l 189 108 q 95 138 126 108 q 64 232 64 168 l 64 551 q 94 641 64 613 q 192 669 124 669 l 271 669 z "},"य":{"ha":653,"x_min":-50,"x_max":681,"o":"m -50 869 l 681 869 l 681 772 l -50 772 l -50 869 m 456 822 l 581 822 l 581 0 l 456 0 l 456 822 m 338 547 q 325 481 338 508 q 285 440 313 454 q 213 426 258 426 l 175 426 l 175 247 q 183 214 175 222 q 217 206 192 206 l 408 206 q 446 216 436 206 q 456 253 456 226 l 472 178 q 457 124 472 140 q 406 108 442 108 l 183 108 q 83 138 115 108 q 50 232 50 168 l 50 525 l 175 525 q 208 533 200 525 q 215 564 215 540 l 215 726 q 206 764 215 756 q 154 772 197 772 l 265 789 q 319 777 300 789 q 338 729 338 765 l 338 547 z "},"ज़":{"ha":750,"x_min":-28,"x_max":778,"o":"m 553 817 l 678 817 l 678 0 l 553 0 l 553 817 m -28 869 l 778 869 l 778 772 l -28 772 l -28 869 m 61 669 l 186 669 l 186 247 q 195 214 186 222 q 228 206 204 206 l 271 206 q 303 214 296 206 q 311 247 311 222 l 311 669 l 603 669 l 603 572 l 438 572 l 438 232 q 406 138 438 168 q 303 108 374 108 l 194 108 q 93 138 125 108 q 61 232 61 168 l 61 669 m 189 3 l 304 3 l 304 -129 l 189 -129 l 189 3 z "},"८":{"ha":540,"x_min":65,"x_max":475,"o":"m 189 350 l 189 142 q 197 108 189 117 q 229 100 206 100 l 272 100 l 272 0 l 194 0 q 97 31 128 0 q 65 122 65 63 l 65 356 q 79 411 65 392 q 119 438 93 431 q 79 466 93 444 q 65 524 65 488 l 65 747 q 97 838 65 807 q 194 869 128 869 l 275 869 l 275 769 l 229 769 q 197 762 206 769 q 189 729 189 754 l 189 526 q 197 494 189 503 q 229 486 206 486 l 278 486 l 278 390 l 229 390 q 197 383 206 390 q 189 350 189 375 m 351 526 l 351 729 q 344 762 351 754 q 311 769 336 769 l 267 769 l 267 869 l 346 869 q 444 838 413 869 q 475 747 475 807 l 475 524 q 461 466 475 488 q 421 438 447 444 q 461 411 447 431 q 475 356 475 392 l 475 122 q 444 31 475 63 q 346 0 413 0 l 260 0 l 260 100 l 311 100 q 344 108 336 100 q 351 142 351 117 l 351 350 q 344 383 351 375 q 311 390 336 390 l 263 390 l 263 486 l 311 486 q 344 494 336 486 q 351 526 351 503 z "},"५":{"ha":497,"x_min":56,"x_max":449,"o":"m 182 276 l 182 142 q 190 110 182 118 q 224 101 199 101 l 281 101 q 315 110 307 101 q 322 142 322 118 l 322 401 q 315 435 322 428 q 281 443 307 443 l 135 443 l 135 543 l 318 543 q 417 512 386 543 q 449 421 449 481 l 449 122 q 417 31 449 63 q 318 0 386 0 l 185 0 q 87 31 118 0 q 56 122 56 63 l 56 276 l 182 276 m 183 443 l 58 443 l 58 869 l 446 869 l 446 768 l 183 768 l 183 443 z "},"४":{"ha":504,"x_min":8,"x_max":504,"o":"m 58 172 l 58 275 l 504 275 l 504 172 l 58 172 m 8 172 l 8 276 l 258 869 l 383 869 l 83 172 l 8 172 m 307 442 l 426 442 l 426 0 l 307 0 l 307 442 z "},"९":{"ha":525,"x_min":53,"x_max":460,"o":"m 178 728 l 178 494 q 186 463 178 471 q 219 454 194 454 l 374 454 l 374 356 l 182 356 q 84 388 115 356 q 53 479 53 419 l 53 747 q 84 838 53 807 q 182 869 115 869 l 263 869 l 263 768 l 219 768 q 186 760 194 768 q 178 728 178 753 m 333 142 l 333 728 q 326 760 333 753 q 293 768 318 768 l 250 768 l 250 869 l 329 869 q 428 838 397 869 q 460 747 460 807 l 460 122 q 428 31 460 63 q 329 0 397 0 l 251 0 l 251 101 l 293 101 q 326 110 318 101 q 333 142 333 118 m 181 271 l 181 142 q 189 110 181 118 q 222 101 197 101 l 267 101 l 267 0 l 186 0 q 87 31 118 0 q 56 122 56 63 l 56 271 l 181 271 z "},"१":{"ha":326,"x_min":28,"x_max":254,"o":"m 192 869 l 192 768 l 28 768 l 28 869 l 192 869 m 128 869 l 254 869 l 254 0 l 128 0 l 128 869 z "},"७":{"ha":404,"x_min":8,"x_max":397,"o":"m 357 869 l 357 765 l 8 765 l 8 869 l 357 869 m 397 869 l 397 792 l 164 0 l 36 0 l 293 869 l 397 869 z "},"६":{"ha":531,"x_min":65,"x_max":472,"o":"m 347 142 l 347 360 q 340 392 347 385 q 306 400 332 400 l 151 400 l 151 500 l 343 500 q 441 469 410 500 q 472 376 472 438 l 472 122 q 441 31 472 63 q 343 0 410 0 l 263 0 l 263 101 l 306 101 q 340 110 332 101 q 347 142 347 118 m 192 728 l 192 142 q 200 110 192 118 q 232 101 208 101 l 275 101 l 275 0 l 196 0 q 97 31 128 0 q 65 122 65 63 l 65 747 q 97 838 65 807 q 196 869 128 869 l 274 869 l 274 768 l 232 768 q 200 760 208 768 q 192 728 192 753 m 344 597 l 344 728 q 336 760 344 753 q 303 768 328 768 l 258 768 l 258 869 l 339 869 q 437 838 406 869 q 468 747 468 807 l 468 597 l 344 597 z "},"३":{"ha":493,"x_min":40,"x_max":428,"o":"m 165 728 l 165 597 l 40 597 l 40 747 q 72 838 40 807 q 169 869 103 869 l 297 869 q 397 838 365 869 q 428 747 428 807 l 428 528 q 414 470 428 492 q 374 442 400 449 q 414 415 400 435 q 428 361 428 396 l 428 122 q 397 31 428 63 q 297 0 365 0 l 169 0 q 72 31 103 0 q 40 122 40 63 l 40 271 l 165 271 l 165 142 q 174 110 165 118 q 207 101 182 101 l 261 101 q 295 110 288 101 q 303 142 303 118 l 303 350 q 295 383 303 375 q 261 390 288 390 l 157 390 l 157 490 l 261 490 q 295 499 288 490 q 303 531 303 507 l 303 728 q 295 760 303 753 q 261 768 288 768 l 207 768 q 174 760 182 768 q 165 728 165 753 z "},"२":{"ha":456,"x_min":35,"x_max":419,"o":"m 160 728 l 160 586 l 35 586 l 35 747 q 65 838 35 807 q 164 869 96 869 l 283 869 q 383 838 351 869 q 414 747 414 807 l 414 660 q 403 562 414 604 q 365 469 392 519 l 178 101 l 419 101 l 419 0 l 36 0 l 36 97 l 249 497 q 280 578 272 542 q 288 664 288 615 l 288 728 q 280 760 288 753 q 246 768 272 768 l 201 768 q 168 760 176 768 q 160 728 160 753 z "},"०":{"ha":542,"x_min":65,"x_max":476,"o":"m 476 747 l 476 122 q 445 31 476 63 q 347 0 414 0 l 196 0 q 97 31 128 0 q 65 122 65 63 l 65 747 q 97 838 65 807 q 196 869 128 869 l 347 869 q 445 838 414 869 q 476 747 476 807 m 350 142 l 350 728 q 342 760 350 753 q 308 768 335 768 l 233 768 q 201 760 210 768 q 193 728 193 753 l 193 142 q 201 110 193 118 q 233 101 210 101 l 308 101 q 342 110 335 101 q 350 142 350 118 z "},"⁄":{"ha":542,"x_min":3,"x_max":499,"o":"m 382 972 l 499 972 l 119 -167 l 3 -167 l 382 972 z "},"¹":{"ha":201,"x_min":15,"x_max":154,"o":"m 106 869 l 106 804 l 15 804 l 15 869 l 106 869 m 69 869 l 154 869 l 154 392 l 69 392 l 69 869 z "},"³":{"ha":297,"x_min":21,"x_max":263,"o":"m 106 782 l 106 721 l 21 721 l 21 803 q 39 853 21 836 q 93 869 57 869 l 192 869 q 245 853 228 869 q 263 803 263 836 l 263 681 q 256 649 263 661 q 232 633 249 638 q 256 619 249 631 q 263 589 263 608 l 263 458 q 245 408 263 425 q 192 392 228 392 l 93 392 q 39 408 57 392 q 21 458 21 425 l 21 540 l 106 540 l 106 481 q 110 463 106 467 q 128 458 115 458 l 157 458 q 175 463 171 458 q 179 481 179 467 l 179 578 q 175 596 179 592 q 157 600 171 600 l 114 600 l 114 665 l 157 665 q 175 670 171 665 q 179 688 179 675 l 179 782 q 175 800 179 796 q 157 804 171 804 l 128 804 q 110 800 115 804 q 106 782 106 796 z "},"²":{"ha":281,"x_min":19,"x_max":258,"o":"m 101 782 l 101 711 l 19 711 l 19 803 q 36 853 19 836 q 90 869 53 869 l 185 869 q 239 853 222 869 q 256 803 256 836 l 256 757 q 249 696 256 724 q 225 642 242 668 l 117 463 l 258 463 l 258 392 l 19 392 l 19 458 l 149 664 q 168 708 164 688 q 172 757 172 728 l 172 782 q 168 800 172 796 q 150 804 164 804 l 125 804 q 106 800 111 804 q 101 782 101 796 z "},"\r":{"ha":201,"x_min":0,"x_max":0,"o":""},"\u0000":{"ha":0,"x_min":0,"x_max":0,"o":""},"‍":{"ha":0,"x_min":0,"x_max":0,"o":""},"﻿":{"ha":0,"x_min":0,"x_max":0,"o":""},"‌":{"ha":0,"x_min":-32,"x_max":33,"o":"m 33 -319 l -32 -319 l -32 1126 l 33 1126 l 33 -319 z "}," ":{"ha":201,"x_min":0,"x_max":0,"o":""}," ":{"ha":201,"x_min":0,"x_max":0,"o":""},"​":{"ha":0,"x_min":0,"x_max":0,"o":""},"॰":{"ha":503,"x_min":81,"x_max":422,"o":"m 81 428 q 127 563 81 515 q 251 610 174 610 q 376 563 329 610 q 422 428 422 515 q 376 293 422 340 q 251 246 329 246 q 127 293 174 246 q 81 428 81 340 m 183 428 q 201 358 183 381 q 251 336 218 336 q 301 358 283 336 q 319 428 319 381 q 302 497 319 475 q 251 519 285 519 q 201 497 218 519 q 183 428 183 475 z "},"।":{"ha":475,"x_min":178,"x_max":297,"o":"m 297 913 l 297 -43 l 178 -43 l 178 913 l 297 913 z "},"॥":{"ha":726,"x_min":178,"x_max":549,"o":"m 297 913 l 297 -43 l 178 -43 l 178 913 l 297 913 m 549 913 l 549 -43 l 429 -43 l 429 913 l 549 913 z "},"*":{"ha":446,"x_min":22,"x_max":424,"o":"m 243 675 l 201 675 q 194 692 201 675 q 178 740 186 708 q 171 819 171 772 l 171 869 l 275 869 l 275 819 q 267 740 275 772 q 251 692 260 708 q 243 675 243 675 m 229 694 l 215 656 q 198 653 215 656 q 148 653 181 651 q 69 671 115 656 l 22 686 l 54 785 l 101 769 q 175 738 147 756 q 216 707 203 719 q 229 694 229 694 m 206 688 l 239 663 q 237 644 239 663 q 222 597 235 626 q 181 526 208 567 l 151 488 l 65 549 l 96 589 q 149 649 124 628 q 190 678 174 669 q 206 688 206 688 m 206 663 l 239 688 q 256 679 239 688 q 298 650 272 671 q 350 589 324 629 l 379 549 l 294 488 l 265 529 q 226 597 239 567 q 209 644 213 626 q 206 663 206 663 m 229 656 l 215 694 q 228 708 215 694 q 270 738 242 721 q 344 769 299 756 l 390 785 l 424 685 l 375 671 q 298 653 331 656 q 247 653 265 651 q 229 656 229 656 z "},"\\":{"ha":542,"x_min":43,"x_max":539,"o":"m 43 972 l 160 972 l 539 -167 l 422 -167 l 43 972 z "},"•":{"ha":550,"x_min":93,"x_max":457,"o":"m 93 446 q 117 538 93 496 q 183 603 142 579 q 275 628 225 628 q 367 603 325 628 q 433 538 408 579 q 457 446 457 496 q 433 354 457 396 q 367 288 408 313 q 275 264 325 264 q 183 288 225 264 q 117 354 142 313 q 93 446 93 396 z "},":":{"ha":229,"x_min":44,"x_max":185,"o":"m 44 507 l 44 678 l 185 678 l 185 507 l 44 507 m 44 0 l 44 171 l 185 171 l 185 0 l 44 0 z "},",":{"ha":229,"x_min":44,"x_max":185,"o":"m 44 171 l 185 171 l 185 81 l 89 -194 l 44 -194 l 44 171 z "},"…":{"ha":771,"x_min":72,"x_max":764,"o":"m 72 0 l 72 165 l 224 165 l 224 0 l 72 0 m 343 0 l 343 165 l 493 165 l 493 0 l 343 0 m 613 0 l 613 165 l 764 165 l 764 0 l 613 0 z "},"!":{"ha":290,"x_min":69,"x_max":221,"o":"m 69 869 l 221 869 l 197 283 l 93 283 l 69 869 m 74 0 l 74 171 l 214 171 l 214 0 l 74 0 z "},"¡":{"ha":290,"x_min":69,"x_max":221,"o":"m 69 -192 l 93 394 l 197 394 l 221 -192 l 69 -192 m 74 678 l 214 678 l 214 507 l 74 507 l 74 678 z "},"#":{"ha":689,"x_min":42,"x_max":647,"o":"m 232 869 l 343 869 l 189 0 l 76 0 l 232 869 m 647 646 l 647 550 l 89 550 l 89 646 l 647 646 m 457 0 l 346 0 l 501 869 l 613 869 l 457 0 m 42 224 l 42 319 l 601 319 l 601 224 l 42 224 z "},".":{"ha":229,"x_min":44,"x_max":185,"o":"m 44 0 l 44 171 l 185 171 l 185 0 l 44 0 z "},"·":{"ha":301,"x_min":47,"x_max":188,"o":"m 47 360 l 47 528 l 188 528 l 188 360 l 47 360 z "},"?":{"ha":475,"x_min":28,"x_max":419,"o":"m 293 507 l 293 731 q 286 763 293 753 q 254 772 279 772 l 204 772 l 204 869 l 290 869 q 390 837 360 869 q 419 749 419 804 l 419 496 q 390 408 419 442 q 290 375 360 375 l 204 375 l 204 465 l 254 465 q 286 475 279 465 q 293 507 293 485 m 150 465 l 278 465 l 267 283 l 161 283 l 150 465 m 143 0 l 143 171 l 283 171 l 283 0 l 143 0 m 154 731 l 154 631 l 28 631 l 28 749 q 58 837 28 804 q 157 869 88 869 l 239 869 l 239 772 l 193 772 q 162 763 169 772 q 154 731 154 753 z "},"¿":{"ha":475,"x_min":28,"x_max":419,"o":"m 154 171 l 154 -53 q 161 -85 154 -75 q 193 -94 168 -94 l 243 -94 l 243 -192 l 157 -192 q 58 -159 88 -192 q 28 -71 28 -126 l 28 182 q 58 269 28 236 q 157 303 88 303 l 243 303 l 243 211 l 193 211 q 161 202 168 211 q 154 171 154 193 m 297 211 l 169 211 l 181 394 l 286 394 l 297 211 m 304 678 l 304 507 l 165 507 l 165 678 l 304 678 m 293 -53 l 293 47 l 419 47 l 419 -71 q 390 -159 419 -126 q 290 -192 360 -192 l 208 -192 l 208 -94 l 254 -94 q 286 -85 279 -94 q 293 -53 293 -75 z "},";":{"ha":229,"x_min":44,"x_max":185,"o":"m 44 171 l 185 171 l 185 81 l 89 -194 l 44 -194 l 44 171 m 44 507 l 44 678 l 185 678 l 185 507 l 44 507 z "},"/":{"ha":542,"x_min":3,"x_max":499,"o":"m 382 972 l 499 972 l 119 -167 l 3 -167 l 382 972 z "},"—":{"ha":744,"x_min":14,"x_max":728,"o":"m 14 360 l 14 457 l 728 457 l 728 360 l 14 360 z "},"–":{"ha":583,"x_min":35,"x_max":517,"o":"m 35 360 l 35 457 l 517 457 l 517 360 l 35 360 z "},"-":{"ha":438,"x_min":67,"x_max":369,"o":"m 67 360 l 67 457 l 369 457 l 369 360 l 67 360 z "},"­":{"ha":438,"x_min":67,"x_max":369,"o":"m 67 360 l 67 457 l 369 457 l 369 360 l 67 360 z "},"_":{"ha":658,"x_min":0,"x_max":658,"o":"m 0 -158 l 0 -60 l 658 -60 l 658 -158 l 0 -158 z "},"{":{"ha":393,"x_min":10,"x_max":382,"o":"m 275 947 l 275 599 q 248 481 275 524 q 169 431 221 439 q 249 382 222 425 q 275 267 275 339 l 275 -86 q 285 -119 275 -110 q 319 -129 294 -129 l 382 -129 l 382 -228 l 268 -228 q 174 -193 199 -228 q 149 -103 149 -158 l 149 232 q 122 346 149 310 q 33 382 94 382 l 10 382 l 10 479 l 33 479 q 122 515 94 479 q 149 632 149 551 l 149 963 q 174 1053 149 1018 q 268 1088 199 1088 l 382 1088 l 382 989 l 319 989 q 285 979 294 989 q 275 947 275 969 z "},"}":{"ha":393,"x_min":10,"x_max":381,"o":"m 117 599 l 117 947 q 107 979 117 969 q 72 989 97 989 l 10 989 l 10 1088 l 124 1088 q 217 1053 193 1088 q 242 963 242 1018 l 242 632 q 269 515 242 551 q 358 479 297 479 l 381 479 l 381 382 l 358 382 q 269 346 297 382 q 242 232 242 310 l 242 -103 q 217 -193 242 -158 q 124 -228 193 -228 l 10 -228 l 10 -129 l 72 -129 q 107 -119 97 -129 q 117 -86 117 -110 l 117 267 q 143 382 117 339 q 222 431 169 425 q 144 481 171 439 q 117 599 117 524 z "},"[":{"ha":432,"x_min":81,"x_max":346,"o":"m 140 986 l 140 1088 l 346 1088 l 346 986 l 140 986 m 81 1088 l 207 1088 l 207 -229 l 81 -229 l 81 1088 m 129 -229 l 129 -128 l 346 -128 l 346 -229 l 129 -229 z "},"]":{"ha":432,"x_min":61,"x_max":325,"o":"m 265 1088 l 265 986 l 61 986 l 61 1088 l 265 1088 m 199 1088 l 325 1088 l 325 -229 l 199 -229 l 199 1088 m 278 -128 l 278 -229 l 61 -229 l 61 -128 l 278 -128 z "},"(":{"ha":367,"x_min":65,"x_max":393,"o":"m 65 521 q 141 951 65 799 q 372 1103 217 1103 l 393 1103 l 393 997 l 375 996 q 266 931 307 992 q 208 765 225 871 q 190 522 190 660 l 190 336 q 208 94 190 199 q 266 -72 225 -11 q 375 -137 307 -133 l 393 -139 l 393 -243 l 372 -243 q 141 -92 217 -243 q 65 339 65 60 l 65 521 z "},")":{"ha":367,"x_min":-29,"x_max":299,"o":"m 299 339 q 223 -92 299 60 q -8 -243 147 -243 l -29 -243 l -29 -139 l -11 -137 q 99 -72 58 -133 q 156 94 139 -11 q 174 336 174 199 l 174 522 q 156 765 174 660 q 99 931 139 871 q -11 996 58 992 l -29 997 l -29 1103 l -8 1103 q 223 951 147 1103 q 299 521 299 799 l 299 339 z "},"«":{"ha":681,"x_min":51,"x_max":629,"o":"m 217 144 l 51 360 l 217 575 l 347 575 l 181 358 l 347 144 l 217 144 m 497 144 l 333 360 l 497 575 l 629 575 l 461 358 l 629 144 l 497 144 z "},"»":{"ha":681,"x_min":51,"x_max":629,"o":"m 347 360 l 182 144 l 51 144 l 219 358 l 51 575 l 182 575 l 347 360 m 629 360 l 464 144 l 333 144 l 500 358 l 333 575 l 464 575 l 629 360 z "},"‹":{"ha":403,"x_min":51,"x_max":350,"o":"m 217 144 l 51 360 l 217 575 l 350 575 l 183 358 l 350 144 l 217 144 z "},"›":{"ha":404,"x_min":51,"x_max":350,"o":"m 350 360 l 185 144 l 51 144 l 219 358 l 51 575 l 185 575 l 350 360 z "},"\"":{"ha":406,"x_min":50,"x_max":356,"o":"m 50 869 l 165 869 l 165 560 l 50 560 l 50 869 m 240 869 l 356 869 l 356 560 l 240 560 l 240 869 z "},"„":{"ha":436,"x_min":44,"x_max":392,"o":"m 44 171 l 185 171 l 185 81 l 88 -194 l 44 -194 l 44 171 m 251 171 l 392 171 l 392 81 l 294 -194 l 251 -194 l 251 171 z "},"“":{"ha":436,"x_min":44,"x_max":392,"o":"m 392 506 l 251 506 l 251 594 l 349 869 l 392 869 l 392 506 m 185 506 l 44 506 l 44 594 l 142 869 l 185 869 l 185 506 z "},"”":{"ha":436,"x_min":44,"x_max":392,"o":"m 44 869 l 185 869 l 185 779 l 88 506 l 44 506 l 44 869 m 251 869 l 392 869 l 392 779 l 294 506 l 251 506 l 251 869 z "},"‘":{"ha":231,"x_min":44,"x_max":185,"o":"m 185 506 l 44 506 l 44 594 l 142 869 l 185 869 l 185 506 z "},"’":{"ha":231,"x_min":44,"x_max":185,"o":"m 44 869 l 185 869 l 185 779 l 88 506 l 44 506 l 44 869 z "},"‚":{"ha":229,"x_min":44,"x_max":185,"o":"m 44 171 l 185 171 l 185 81 l 89 -194 l 44 -194 l 44 171 z "},"'":{"ha":224,"x_min":50,"x_max":174,"o":"m 50 869 l 174 869 l 174 560 l 50 560 l 50 869 z "},"ƒ":{"ha":490,"x_min":-24,"x_max":426,"o":"m 319 782 l 208 -75 q 190 -142 204 -114 q 151 -183 176 -169 q 79 -197 125 -197 l -24 -197 l -24 -90 l 42 -90 q 74 -83 68 -90 q 83 -50 81 -75 l 194 807 q 213 874 200 847 q 253 915 226 901 q 324 929 281 929 l 426 929 l 426 822 l 361 822 q 329 815 336 822 q 319 782 322 807 m 426 678 l 426 576 l 74 576 l 74 678 l 426 678 z "},"ऽ":{"ha":511,"x_min":64,"x_max":447,"o":"m 422 775 l 244 775 q 213 767 221 775 q 204 735 204 760 l 204 560 q 213 528 204 536 q 244 521 221 521 l 319 521 q 417 492 388 521 q 447 403 447 463 l 447 118 q 417 29 447 58 q 319 0 388 0 l 192 0 q 94 29 124 0 q 64 118 64 58 l 64 228 l 189 228 l 189 135 q 197 103 189 111 q 228 94 206 94 l 282 94 q 315 103 307 94 q 322 135 322 111 l 322 386 q 315 418 322 411 q 282 425 307 425 l 206 425 q 109 454 139 425 q 79 543 79 483 l 79 751 q 109 840 79 811 q 206 869 139 869 l 422 869 l 422 775 z "},"ॐ":{"ha":938,"x_min":47,"x_max":872,"o":"m 485 890 l 594 890 l 594 778 l 485 778 l 485 890 m 392 690 l 628 690 q 662 699 654 690 q 669 732 669 707 l 669 796 l 790 796 l 790 714 q 760 623 790 654 q 663 592 731 592 l 392 592 l 392 690 m 301 869 q 399 839 369 869 q 429 749 429 808 l 429 544 q 416 491 429 507 q 379 475 403 475 l 379 485 l 744 485 q 842 454 813 485 q 872 364 872 424 l 872 121 q 842 31 872 61 q 744 0 813 0 l 640 0 q 542 31 572 0 q 513 121 513 61 l 513 256 l 638 256 l 638 138 q 646 106 638 114 q 678 97 654 97 l 706 97 q 739 106 731 97 q 747 138 747 114 l 747 347 q 739 379 747 372 q 706 386 731 386 l 379 386 l 379 396 q 416 381 403 396 q 429 328 429 365 l 429 121 q 399 31 429 61 q 301 0 369 0 l 175 0 q 77 31 107 0 q 47 121 47 61 l 47 261 l 172 261 l 172 138 q 181 106 172 114 q 214 97 189 97 l 264 97 q 297 106 289 97 q 304 138 304 114 l 304 343 q 294 377 304 368 q 260 386 285 386 l 176 386 l 176 485 l 260 485 q 294 494 285 485 q 304 529 304 504 l 304 732 q 297 765 304 757 q 264 772 289 772 l 214 772 q 181 765 189 772 q 172 732 172 757 l 172 613 l 47 613 l 47 749 q 77 839 47 808 q 175 869 107 869 l 301 869 z "},"&":{"ha":642,"x_min":53,"x_max":714,"o":"m 714 -49 l 582 -49 l 196 411 q 119 511 154 464 q 85 614 85 558 l 85 747 q 116 838 85 807 q 215 869 147 869 l 350 869 q 448 838 417 869 q 479 747 479 807 l 479 618 q 467 534 479 568 q 431 476 454 500 q 372 429 407 453 l 217 325 q 185 294 196 310 q 175 246 175 279 l 175 139 q 183 107 175 115 q 217 99 192 99 l 460 99 q 492 107 485 99 q 500 139 500 115 l 500 319 l 603 319 l 603 122 q 570 31 603 63 q 471 0 538 0 l 182 0 q 84 31 115 0 q 53 122 53 63 l 53 267 q 61 321 53 299 q 88 362 69 343 q 138 400 106 381 l 276 501 q 336 551 317 528 q 356 618 356 575 l 356 732 q 348 765 356 757 q 314 772 340 772 l 250 772 q 218 765 226 772 q 210 732 210 757 l 210 606 q 224 554 210 579 q 260 505 239 529 q 303 454 282 481 l 714 -49 z "},"@":{"ha":967,"x_min":106,"x_max":903,"o":"m 324 476 q 353 565 324 535 q 446 596 383 596 l 483 596 q 537 583 515 596 q 568 542 558 569 l 568 596 l 682 596 l 682 207 l 743 207 q 777 215 769 207 q 785 247 785 224 l 785 657 q 777 690 785 682 q 743 699 769 699 l 265 699 q 233 690 242 699 q 225 657 225 682 l 225 43 q 233 11 225 19 q 265 3 242 3 l 683 3 l 683 -97 l 231 -97 q 135 -66 165 -97 q 106 25 106 -35 l 106 676 q 135 767 106 736 q 231 799 165 799 l 778 799 q 872 767 842 799 q 903 676 903 736 l 903 235 q 872 144 903 175 q 776 113 842 113 l 575 113 l 575 183 q 545 129 571 146 q 483 113 519 113 l 446 113 q 353 143 383 113 q 324 232 324 174 l 324 476 m 442 461 l 442 247 q 450 215 442 224 q 482 207 458 207 l 522 207 q 556 218 546 207 q 567 256 567 229 l 567 453 q 556 490 567 479 q 522 500 546 500 l 482 500 q 450 493 458 500 q 442 461 442 486 z "},"|":{"ha":274,"x_min":75,"x_max":196,"o":"m 75 1032 l 196 1032 l 196 -164 l 75 -164 l 75 1032 z "},"¦":{"ha":274,"x_min":72,"x_max":199,"o":"m 72 347 l 199 347 l 199 -135 l 72 -135 l 72 347 m 199 521 l 72 521 l 72 1003 l 199 1003 l 199 521 z "},"©":{"ha":974,"x_min":63,"x_max":931,"o":"m 931 474 l 931 386 q 901 172 931 258 q 805 43 871 86 q 629 0 739 0 l 364 0 q 189 43 256 0 q 92 172 122 86 q 63 386 63 258 l 63 474 q 92 690 63 603 q 189 824 122 778 q 364 869 256 869 l 629 869 q 805 824 739 869 q 901 690 871 778 q 931 474 931 603 m 375 94 l 618 94 q 739 129 694 94 q 801 228 783 164 q 819 379 819 292 l 819 481 q 801 635 819 568 q 739 740 783 703 q 618 778 694 778 l 375 778 q 256 740 300 778 q 192 635 211 703 q 174 481 174 568 l 174 379 q 192 228 174 292 q 256 129 211 164 q 375 94 300 94 m 565 339 l 565 375 l 676 375 l 676 321 q 648 238 676 267 q 560 210 619 210 l 435 210 q 346 238 374 210 q 318 321 318 267 l 318 563 q 346 647 318 618 q 435 675 374 675 l 560 675 q 648 647 619 675 q 676 563 676 618 l 676 510 l 565 510 l 565 544 q 558 576 565 569 q 526 583 551 583 l 467 583 q 435 576 443 583 q 428 544 428 569 l 428 339 q 435 309 428 317 q 467 301 443 301 l 526 301 q 558 309 551 301 q 565 339 565 317 z "},"†":{"ha":503,"x_min":8,"x_max":494,"o":"m 189 869 l 314 869 l 314 -153 l 189 -153 l 189 869 m 494 646 l 494 547 l 8 547 l 8 646 l 494 646 z "},"‡":{"ha":535,"x_min":24,"x_max":510,"o":"m 204 869 l 329 869 l 329 -212 l 204 -212 l 204 869 m 510 646 l 510 547 l 24 547 l 24 646 l 510 646 m 510 110 l 510 13 l 24 13 l 24 110 l 510 110 z "},"°":{"ha":532,"x_min":75,"x_max":450,"o":"m 450 749 l 450 596 q 420 506 450 538 q 324 475 390 475 l 201 475 q 105 506 135 475 q 75 596 75 538 l 75 749 q 105 839 75 808 q 201 869 135 869 l 324 869 q 420 839 390 869 q 450 749 450 808 m 333 607 l 333 739 q 326 770 333 763 q 292 778 318 778 l 233 778 q 200 770 208 778 q 192 739 192 763 l 192 607 q 200 576 192 583 q 233 568 208 568 l 292 568 q 326 576 318 568 q 333 607 333 583 z "},"℮":{"ha":836,"x_min":47,"x_max":808,"o":"m 192 325 l 808 325 l 808 333 q 757 507 808 429 q 619 631 706 585 q 426 678 532 678 q 280 651 349 678 q 159 576 211 624 q 77 467 107 529 q 47 333 47 404 q 77 201 47 263 q 159 93 107 140 q 280 19 211 46 q 426 -7 349 -7 q 599 29 521 -7 q 728 125 676 65 l 674 125 q 565 43 629 74 q 428 13 501 13 q 300 40 360 13 q 194 114 240 67 q 188 135 188 124 l 188 322 q 192 325 188 325 m 668 538 l 668 350 q 664 343 668 343 l 192 343 q 188 350 188 343 l 188 533 q 196 557 188 547 q 301 629 242 601 q 428 657 360 657 q 555 631 496 657 q 660 560 614 604 q 668 538 668 551 z "},"¶":{"ha":704,"x_min":68,"x_max":618,"o":"m 353 869 l 353 314 l 197 314 q 99 345 131 314 q 68 436 68 376 l 68 747 q 99 838 68 807 q 197 869 131 869 l 353 869 m 285 869 l 399 869 l 399 -192 l 285 -192 l 285 869 m 504 869 l 618 869 l 618 -192 l 504 -192 l 504 869 z "},"®":{"ha":575,"x_min":47,"x_max":528,"o":"m 528 743 l 528 694 q 511 576 528 624 q 458 505 494 529 q 361 481 421 481 l 214 481 q 117 505 154 481 q 64 576 81 529 q 47 694 47 624 l 47 743 q 64 863 47 814 q 117 936 81 911 q 214 961 154 961 l 361 961 q 458 936 421 961 q 511 863 494 911 q 528 743 528 814 m 221 535 l 356 535 q 422 553 397 535 q 456 608 446 572 q 465 690 465 643 l 465 746 q 456 831 465 794 q 422 889 446 868 q 356 910 397 910 l 221 910 q 155 889 179 910 q 120 831 131 868 q 110 746 110 794 l 110 690 q 120 608 110 643 q 155 553 131 572 q 221 535 179 535 m 217 868 l 314 868 q 351 857 339 868 q 363 824 363 846 l 363 739 q 332 694 363 703 l 378 579 l 325 579 l 281 692 l 267 692 l 267 579 l 217 579 l 217 868 m 311 743 l 311 818 q 303 828 311 828 l 267 828 l 267 735 l 303 735 q 311 743 311 735 z "},"§":{"ha":582,"x_min":74,"x_max":508,"o":"m 308 267 l 308 333 l 344 333 q 377 342 369 333 q 385 374 385 350 l 385 499 q 377 531 385 524 q 344 539 369 539 l 249 539 q 150 570 181 539 q 119 661 119 601 l 119 806 q 150 897 119 865 q 249 928 181 928 l 379 928 q 477 897 446 928 q 508 806 508 865 l 508 742 l 383 742 l 383 790 q 376 823 383 815 q 342 831 368 831 l 286 831 q 253 823 261 831 q 244 790 244 815 l 244 678 q 253 644 244 653 q 286 636 261 636 l 378 636 q 476 605 446 636 q 507 514 507 574 l 507 401 q 483 303 507 340 q 392 267 458 267 l 308 267 m 274 600 l 274 539 l 239 539 q 206 531 214 539 q 197 499 197 524 l 197 374 q 206 342 197 350 q 239 333 214 333 l 333 333 q 433 302 401 333 q 464 210 464 271 l 464 67 q 433 -26 464 6 q 333 -57 401 -57 l 203 -57 q 105 -26 136 -57 q 74 67 74 6 l 74 129 l 199 129 l 199 81 q 207 49 199 57 q 240 40 215 40 l 297 40 q 330 49 322 40 q 338 81 338 57 l 338 194 q 330 227 338 219 q 297 235 322 235 l 204 235 q 106 266 138 235 q 75 358 75 297 l 75 465 q 99 564 75 528 q 190 600 124 600 l 274 600 z "},"™":{"ha":869,"x_min":8,"x_max":828,"o":"m 121 853 l 231 853 l 231 419 l 121 419 l 121 853 m 344 869 l 344 778 l 8 778 l 8 869 l 344 869 m 394 869 l 525 869 l 611 613 l 696 869 l 828 869 l 828 419 l 728 419 l 728 708 l 660 496 l 564 496 l 493 710 l 493 419 l 394 419 l 394 869 z "},"ℓ":{"ha":678,"x_min":103,"x_max":593,"o":"m 442 717 l 433 717 q 401 709 410 717 q 392 675 392 701 l 392 139 q 401 106 392 114 q 433 97 410 97 l 569 97 l 569 0 l 400 0 q 299 30 331 0 q 267 124 267 60 l 267 690 q 299 784 267 754 q 400 814 331 814 l 471 814 q 542 799 515 814 q 581 757 569 783 q 593 700 593 731 q 575 615 593 656 q 524 540 557 575 l 103 96 l 103 229 l 425 581 q 460 627 444 600 q 476 679 476 654 q 469 706 476 694 q 442 717 461 717 z "},"€":{"ha":554,"x_min":32,"x_max":503,"o":"m 224 731 l 224 138 q 232 106 224 114 q 264 97 240 97 l 304 97 l 304 -1 l 226 -1 q 127 30 158 -1 q 96 122 96 61 l 96 747 q 127 838 96 807 q 226 869 158 869 l 311 869 l 311 771 l 264 771 q 232 763 240 771 q 224 731 224 756 m 376 597 l 376 731 q 369 763 376 756 q 335 771 361 771 l 290 771 l 290 869 l 374 869 q 472 838 440 869 q 503 747 503 807 l 503 597 l 376 597 m 376 138 l 376 269 l 503 269 l 503 122 q 472 30 503 61 q 374 -1 440 -1 l 290 -1 l 290 97 l 335 97 q 369 106 361 97 q 376 138 376 114 m 344 400 l 344 307 l 32 307 l 32 400 l 344 400 m 344 563 l 344 471 l 32 471 l 32 563 l 344 563 z "},"¢":{"ha":489,"x_min":53,"x_max":444,"o":"m 178 536 l 178 142 q 186 110 178 118 q 219 101 194 101 l 251 101 l 251 0 l 182 0 q 84 31 115 0 q 53 122 53 63 l 53 554 q 84 647 53 615 q 182 678 115 678 l 258 678 l 258 576 l 219 576 q 186 569 194 576 q 178 536 178 561 m 321 464 l 321 536 q 313 569 321 561 q 279 576 304 576 l 239 576 l 239 678 l 314 678 q 413 647 382 678 q 444 554 444 615 l 444 464 l 321 464 m 321 142 l 321 214 l 444 214 l 444 122 q 413 31 444 63 q 314 0 382 0 l 239 0 l 239 101 l 279 101 q 313 110 304 101 q 321 142 321 118 m 313 647 l 193 647 l 193 785 l 313 785 l 313 647 m 313 -106 l 193 -106 l 193 32 l 313 32 l 313 -106 z "},"¤":{"ha":672,"x_min":81,"x_max":600,"o":"m 551 542 l 551 289 q 538 211 551 243 q 494 163 525 179 q 413 147 463 147 l 278 147 q 198 163 229 147 q 153 211 167 179 q 139 289 139 243 l 139 542 q 153 619 139 588 q 198 666 167 650 q 278 682 229 682 l 413 682 q 494 666 463 682 q 538 619 525 650 q 551 542 551 588 m 308 244 l 381 244 q 426 255 414 244 q 438 300 438 265 l 438 529 q 426 576 438 565 q 381 586 414 586 l 308 586 q 265 576 276 586 q 253 529 253 565 l 253 300 q 265 255 253 265 q 308 244 276 244 m 281 636 l 200 556 l 81 675 l 161 756 l 281 636 m 481 556 l 400 636 l 519 756 l 600 675 l 481 556 m 200 282 l 281 203 l 161 83 l 81 164 l 200 282 m 400 203 l 481 282 l 600 164 l 519 83 l 400 203 z "},"$":{"ha":503,"x_min":53,"x_max":450,"o":"m 311 839 l 192 839 l 192 976 l 311 976 l 311 839 m 311 -107 l 192 -107 l 192 31 l 311 31 l 311 -107 m 322 142 l 322 354 q 315 387 322 379 q 282 394 307 394 l 179 394 q 83 426 113 394 q 53 518 53 458 l 53 747 q 84 838 53 807 q 182 869 115 869 l 318 869 q 417 838 386 869 q 447 747 447 807 l 447 619 l 321 619 l 321 728 q 313 760 321 753 q 279 768 306 768 l 221 768 q 188 760 196 768 q 179 728 179 753 l 179 535 q 188 503 179 511 q 221 494 196 494 l 322 494 q 419 463 389 494 q 450 372 450 432 l 450 122 q 419 31 450 63 q 321 0 388 0 l 185 0 q 87 31 118 0 q 56 122 56 63 l 56 250 l 182 250 l 182 142 q 190 110 182 118 q 224 101 199 101 l 282 101 q 315 110 307 101 q 322 142 322 118 z "},"₹":{"ha":510,"x_min":56,"x_max":443,"o":"m 443 658 l 443 564 l 56 564 l 56 658 l 443 658 m 443 869 l 443 776 l 56 776 l 56 869 l 443 869 m 235 806 q 315 798 288 806 q 353 772 342 790 q 364 717 364 753 l 364 472 q 331 378 364 407 q 228 349 299 349 l 117 349 l 154 403 l 392 0 l 258 0 l 56 349 l 56 446 l 197 446 q 230 454 222 446 q 238 488 238 463 l 238 736 q 230 769 238 761 q 197 776 222 776 l 235 806 z "},"£":{"ha":538,"x_min":44,"x_max":506,"o":"m 238 728 l 238 214 q 231 146 238 175 q 201 101 225 117 l 506 101 l 506 0 l 44 0 l 44 99 q 97 132 82 100 q 111 231 111 164 l 111 747 q 142 838 111 807 q 240 869 174 869 l 371 869 q 469 838 438 869 q 500 747 500 807 l 500 619 l 374 619 l 374 728 q 366 760 374 753 q 333 768 358 768 l 279 768 q 246 760 254 768 q 238 728 238 753 m 44 371 l 44 469 l 421 469 l 421 371 l 44 371 z "},"₺":{"ha":368,"x_min":-49,"x_max":447,"o":"m 322 421 l 447 421 l 447 122 q 417 31 447 63 q 322 0 386 0 l 151 0 l 128 101 l 281 101 q 314 110 306 101 q 322 142 322 118 l 322 421 m 61 929 l 186 929 l 186 93 l 186 86 l 186 0 l 61 0 l 61 929 m 310 654 l 310 557 l -49 389 l -49 488 l 310 654 m 310 833 l 310 735 l -49 567 l -49 665 l 310 833 z "},"¥":{"ha":532,"x_min":18,"x_max":514,"o":"m 208 481 l 208 385 l 31 385 l 31 481 l 208 481 m 503 481 l 503 385 l 338 385 l 338 481 l 503 481 m 503 303 l 503 211 l 31 211 l 31 303 l 503 303 m 326 261 l 208 261 l 18 869 l 144 869 l 267 410 l 388 869 l 514 869 l 326 261 m 204 331 l 331 331 l 331 0 l 204 0 l 204 331 z "},"≈":{"ha":682,"x_min":64,"x_max":619,"o":"m 453 521 q 376 538 406 521 q 324 575 346 554 q 278 612 301 596 q 219 628 254 628 q 187 616 194 628 q 179 581 179 604 l 179 522 l 64 522 l 64 607 q 91 690 64 661 q 181 719 118 719 l 232 719 q 303 703 274 719 q 355 667 332 688 q 403 629 378 646 q 465 613 429 613 q 497 625 490 613 q 503 661 503 638 l 503 718 l 619 718 l 619 633 q 592 551 619 582 q 501 521 564 521 l 453 521 m 453 278 q 376 294 406 278 q 324 331 346 310 q 278 368 301 351 q 219 385 254 385 q 187 372 194 385 q 179 338 179 360 l 179 279 l 64 279 l 64 364 q 91 447 64 417 q 181 476 118 476 l 232 476 q 303 460 274 476 q 355 422 332 443 q 403 385 378 401 q 465 369 429 369 q 497 381 490 369 q 503 417 503 393 l 503 475 l 619 475 l 619 390 q 592 308 619 338 q 501 278 564 278 l 453 278 z "},"^":{"ha":692,"x_min":76,"x_max":603,"o":"m 260 932 l 419 932 l 603 440 l 472 440 l 339 815 l 207 440 l 76 440 l 260 932 z "},"~":{"ha":728,"x_min":85,"x_max":644,"o":"m 478 296 q 401 313 431 296 q 348 353 371 331 q 300 392 325 375 q 242 408 275 408 q 208 397 215 408 q 200 363 200 385 l 200 297 l 85 297 l 85 389 q 112 472 85 442 q 201 501 139 501 l 253 501 q 326 484 296 501 q 379 444 356 467 q 428 406 403 422 q 490 389 454 389 q 522 401 515 389 q 528 436 528 413 l 528 500 l 644 500 l 644 410 q 617 326 644 357 q 526 296 589 296 l 478 296 z "},"∙":{"ha":229,"x_min":44,"x_max":185,"o":"m 44 350 l 44 521 l 185 521 l 185 350 l 44 350 z "},"÷":{"ha":572,"x_min":35,"x_max":538,"o":"m 35 383 l 35 486 l 538 486 l 538 383 l 35 383 m 224 696 l 349 696 l 349 574 l 224 574 l 224 696 m 224 294 l 349 294 l 349 174 l 224 174 l 224 294 z "},"∕":{"ha":542,"x_min":3,"x_max":499,"o":"m 382 972 l 499 972 l 119 -167 l 3 -167 l 382 972 z "},"=":{"ha":583,"x_min":40,"x_max":543,"o":"m 40 507 l 40 613 l 543 613 l 543 507 l 40 507 m 40 257 l 40 363 l 543 363 l 543 257 l 40 257 z "},">":{"ha":583,"x_min":40,"x_max":543,"o":"m 425 436 l 40 556 l 40 667 l 543 500 l 543 372 l 40 203 l 40 315 l 425 436 z "},"≥":{"ha":632,"x_min":63,"x_max":569,"o":"m 446 515 l 63 621 l 63 728 l 569 568 l 569 469 l 63 300 l 63 408 l 446 515 m 63 160 l 63 256 l 569 256 l 569 160 l 63 160 z "},"∞":{"ha":819,"x_min":51,"x_max":768,"o":"m 200 281 l 215 371 l 243 371 q 283 383 265 371 q 311 411 301 396 l 431 594 q 471 651 454 631 q 510 678 488 671 q 575 686 533 686 l 597 686 l 597 597 l 561 597 q 533 588 543 597 q 511 561 524 578 l 403 385 q 354 319 376 342 q 302 288 332 296 q 222 281 272 281 l 200 281 m 229 371 l 210 281 l 178 281 q 81 313 110 281 q 51 400 51 346 l 51 568 q 81 653 51 621 q 178 686 110 686 l 228 686 l 228 596 l 200 596 q 164 585 171 596 q 157 549 157 574 l 157 418 q 164 381 157 392 q 200 371 171 371 l 229 371 m 431 525 l 364 463 l 304 549 q 273 584 288 572 q 231 596 258 596 l 215 596 l 215 686 l 229 686 q 293 678 269 686 q 335 651 317 669 q 376 601 353 633 l 431 525 m 393 418 l 453 488 l 517 403 q 541 379 529 388 q 575 371 553 371 l 604 371 l 604 281 l 588 281 q 523 287 549 281 q 478 310 497 293 q 433 361 458 328 l 393 418 m 597 281 l 596 371 l 619 371 q 656 381 649 371 q 663 418 663 392 l 663 550 q 656 586 663 575 q 619 597 649 597 l 593 597 l 593 686 l 640 686 q 739 653 710 686 q 768 568 768 621 l 768 400 q 739 313 768 346 q 640 281 710 281 l 597 281 z "},"∫":{"ha":408,"x_min":36,"x_max":376,"o":"m 269 860 l 269 -47 q 238 -140 269 -108 q 140 -171 207 -171 l 36 -171 l 36 -64 l 103 -64 q 135 -56 128 -64 q 144 -24 142 -47 l 144 883 q 176 975 144 943 q 274 1007 207 1007 l 376 1007 l 376 900 l 311 900 q 278 892 286 900 q 269 860 269 885 z "},"<":{"ha":583,"x_min":40,"x_max":543,"o":"m 543 556 l 158 436 l 543 315 l 543 203 l 40 372 l 40 500 l 543 667 l 543 556 z "},"≤":{"ha":632,"x_min":51,"x_max":558,"o":"m 558 621 l 175 515 l 558 408 l 558 300 l 51 469 l 51 568 l 558 728 l 558 621 m 558 256 l 558 160 l 51 160 l 51 256 l 558 256 z "},"¬":{"ha":639,"x_min":47,"x_max":578,"o":"m 560 556 l 560 429 l 47 429 l 47 556 l 560 556 m 578 224 l 479 224 l 479 556 l 578 556 l 578 224 z "},"−":{"ha":611,"x_min":32,"x_max":535,"o":"m 32 383 l 32 486 l 535 486 l 535 383 l 32 383 z "},"×":{"ha":525,"x_min":33,"x_max":492,"o":"m 492 281 l 414 203 l 33 583 l 111 661 l 492 281 m 414 661 l 492 583 l 111 203 l 33 281 l 414 661 z "},"≠":{"ha":675,"x_min":63,"x_max":614,"o":"m 614 272 l 63 272 l 63 374 l 614 374 l 614 272 m 614 504 l 63 504 l 63 606 l 614 606 l 614 504 m 243 144 l 151 144 l 432 726 l 525 726 l 243 144 z "},"%":{"ha":890,"x_min":40,"x_max":851,"o":"m 349 763 l 349 507 q 323 427 349 454 q 240 400 297 400 l 149 400 q 66 427 92 400 q 40 507 40 454 l 40 763 q 66 843 40 817 q 149 869 92 869 l 240 869 q 323 843 297 869 q 349 763 349 817 m 851 363 l 851 107 q 826 26 851 53 q 743 0 800 0 l 650 0 q 569 26 594 0 q 543 107 543 53 l 543 363 q 569 443 543 417 q 650 469 594 469 l 743 469 q 826 443 800 469 q 851 363 851 417 m 246 524 l 246 747 q 240 778 246 771 q 210 785 233 785 l 179 785 q 149 778 156 785 q 143 747 143 771 l 143 524 q 149 492 143 500 q 179 485 156 485 l 210 485 q 240 492 233 485 q 246 524 246 500 m 749 122 l 749 347 q 742 377 749 369 q 711 385 736 385 l 682 385 q 651 377 658 385 q 644 347 644 369 l 644 122 q 651 92 644 100 q 682 85 658 85 l 711 85 q 742 92 736 85 q 749 122 749 100 m 596 869 l 700 869 l 294 0 l 192 0 l 596 869 z "},"‰":{"ha":1271,"x_min":40,"x_max":1231,"o":"m 349 763 l 349 507 q 323 427 349 454 q 240 400 297 400 l 149 400 q 66 427 92 400 q 40 507 40 454 l 40 763 q 66 843 40 817 q 149 869 92 869 l 240 869 q 323 843 297 869 q 349 763 349 817 m 851 363 l 851 107 q 826 26 851 53 q 743 0 800 0 l 650 0 q 569 26 594 0 q 543 107 543 53 l 543 363 q 569 443 543 417 q 650 469 594 469 l 743 469 q 826 443 800 469 q 851 363 851 417 m 246 524 l 246 747 q 240 778 246 771 q 210 785 233 785 l 179 785 q 149 778 156 785 q 143 747 143 771 l 143 524 q 149 492 143 500 q 179 485 156 485 l 210 485 q 240 492 233 485 q 246 524 246 500 m 749 122 l 749 347 q 742 377 749 369 q 711 385 736 385 l 682 385 q 651 377 658 385 q 644 347 644 369 l 644 122 q 651 92 644 100 q 682 85 658 85 l 711 85 q 742 92 736 85 q 749 122 749 100 m 596 869 l 700 869 l 294 0 l 192 0 l 596 869 m 1231 363 l 1231 107 q 1205 26 1231 53 q 1122 0 1179 0 l 1031 0 q 948 26 974 0 q 922 107 922 53 l 922 363 q 948 443 922 417 q 1031 469 974 469 l 1122 469 q 1205 443 1179 469 q 1231 363 1231 417 m 1128 122 l 1128 347 q 1122 377 1128 369 q 1092 385 1115 385 l 1061 385 q 1031 377 1038 385 q 1025 347 1025 369 l 1025 122 q 1031 92 1025 100 q 1061 85 1038 85 l 1092 85 q 1122 92 1115 85 q 1128 122 1128 100 z "},"+":{"ha":567,"x_min":32,"x_max":535,"o":"m 32 383 l 32 486 l 535 486 l 535 383 l 32 383 m 221 696 l 346 696 l 346 174 l 221 174 l 221 696 z "},"±":{"ha":583,"x_min":40,"x_max":543,"o":"m 40 492 l 40 592 l 543 592 l 543 492 l 40 492 m 229 701 l 354 701 l 354 382 l 229 382 l 229 701 m 40 238 l 40 339 l 543 339 l 543 238 l 40 238 z "},"∏":{"ha":606,"x_min":11,"x_max":533,"o":"m 93 147 l 93 817 l 219 817 l 219 122 q 188 31 219 63 q 89 0 157 0 l 11 0 l 11 107 l 53 107 q 85 115 78 107 q 93 147 93 124 m 407 819 l 533 819 l 533 0 l 407 0 l 407 819 m 533 869 l 533 771 l 93 771 l 93 869 l 533 869 z "},"√":{"ha":951,"x_min":107,"x_max":858,"o":"m 185 360 l 301 360 l 421 -39 l 742 972 l 858 972 l 479 -167 l 363 -167 l 185 360 m 268 360 l 268 261 l 107 261 l 107 360 l 268 360 z "},"Ω":{"ha":561,"x_min":15,"x_max":546,"o":"m 363 264 l 363 728 q 354 760 363 753 q 321 768 346 768 l 274 768 l 274 869 l 358 869 q 456 838 425 869 q 488 747 488 807 l 488 264 l 363 264 m 363 144 l 363 322 l 488 322 l 488 182 q 456 103 488 122 q 358 85 425 85 l 311 85 l 311 101 l 324 101 q 356 111 349 101 q 363 144 363 121 m 199 728 l 199 263 l 74 263 l 74 747 q 105 838 74 807 q 203 869 136 869 l 288 869 l 288 768 l 240 768 q 207 760 215 768 q 199 728 199 753 m 199 332 l 199 144 q 206 111 199 121 q 238 101 214 101 l 250 101 l 250 85 l 203 85 q 105 103 136 85 q 74 182 74 122 l 74 332 l 199 332 m 546 101 l 546 0 l 307 0 l 307 101 l 546 101 m 254 101 l 254 0 l 15 0 l 15 101 l 254 101 z "},"µ":{"ha":515,"x_min":56,"x_max":442,"o":"m 56 678 l 181 678 l 181 142 q 189 110 181 118 q 222 101 197 101 l 271 101 q 306 112 294 101 q 317 150 317 122 l 317 194 l 322 194 l 322 94 q 297 22 322 44 q 231 0 272 0 l 181 0 q 86 31 117 0 q 56 122 56 63 l 56 678 m 317 678 l 442 678 l 442 0 l 317 0 l 317 85 l 317 93 l 317 678 m 56 608 l 181 608 l 181 -192 l 56 -192 l 56 608 z "},"◌":{"ha":917,"x_min":61,"x_max":856,"o":"m 193 718 q 210 762 193 744 q 254 779 228 779 q 299 762 282 779 q 315 718 315 744 q 299 674 315 692 q 254 656 282 656 q 210 674 228 656 q 193 718 193 692 m 79 565 q 98 609 79 592 q 143 626 117 626 q 186 609 168 626 q 204 565 204 592 q 186 522 204 539 q 143 504 168 504 q 98 522 117 504 q 79 565 79 539 m 61 390 q 78 435 61 418 q 122 453 96 453 q 167 435 150 453 q 183 390 183 418 q 167 347 183 364 q 122 331 150 331 q 78 347 96 331 q 61 390 61 364 m 133 229 q 151 273 133 256 q 194 290 168 290 q 238 273 221 290 q 256 229 256 256 q 238 185 256 203 q 194 168 221 168 q 151 185 168 168 q 133 229 133 203 m 274 125 q 292 168 274 150 q 336 186 310 186 q 380 168 363 186 q 397 125 397 150 q 380 80 397 99 q 336 61 363 61 q 292 80 310 61 q 274 125 274 99 m 450 103 q 467 147 450 131 q 511 164 485 164 q 556 147 539 164 q 574 103 574 131 q 556 59 574 76 q 511 42 539 42 q 467 59 485 42 q 450 103 450 76 m 618 176 q 635 220 618 203 q 679 238 653 238 q 724 220 706 238 q 742 176 742 203 q 724 133 742 150 q 679 115 706 115 q 635 133 653 115 q 618 176 618 150 m 719 313 q 738 358 719 340 q 782 375 756 375 q 824 358 807 375 q 842 313 842 340 q 824 269 842 286 q 782 251 807 251 q 738 269 756 251 q 719 313 719 286 m 733 499 q 751 543 733 526 q 794 560 768 560 q 838 543 821 560 q 856 499 856 526 q 838 455 856 472 q 794 438 821 438 q 751 455 768 438 q 733 499 733 472 m 664 663 q 681 708 664 690 q 725 725 699 725 q 769 708 753 725 q 786 663 786 690 q 769 619 786 636 q 725 601 753 601 q 681 619 699 601 q 664 663 664 636 m 532 757 q 550 802 532 785 q 594 819 568 819 q 638 802 621 819 q 654 757 654 785 q 638 714 654 732 q 594 696 621 696 q 550 714 568 696 q 532 757 532 732 m 357 778 q 374 822 357 806 q 418 839 392 839 q 463 822 446 839 q 479 778 479 806 q 463 734 479 751 q 418 717 446 717 q 374 734 392 717 q 357 778 357 751 z "},"◊":{"ha":693,"x_min":72,"x_max":633,"o":"m 633 436 l 506 436 l 353 757 l 200 436 l 72 436 l 296 869 l 408 869 l 633 436 m 506 436 l 633 436 l 408 0 l 296 0 l 72 436 l 200 436 l 353 114 l 506 436 z "},"ै":{"ha":0,"x_min":-518,"x_max":-76,"o":"m -518 1138 l -360 1138 l -301 1071 q -210 963 -244 1007 q -149 874 -176 919 l -143 874 q -184 960 -167 915 q -228 1063 -201 1004 l -258 1138 l -133 1138 l -76 858 l -199 858 q -222 874 -206 863 q -265 908 -239 886 q -331 964 -292 929 l -518 1138 z "},"ं":{"ha":0,"x_min":-196,"x_max":-79,"o":"m -196 1142 l -79 1142 l -79 1010 l -196 1010 l -196 1142 z "},"ँ":{"ha":0,"x_min":-347,"x_max":82,"o":"m -347 1126 l -236 1126 l -236 1061 q -228 1028 -236 1036 q -194 1021 -219 1021 l -72 1021 q -37 1028 -46 1021 q -29 1061 -29 1036 l -29 1126 l 82 1126 l 82 1049 q 51 962 82 990 q -50 933 19 933 l -217 933 q -317 962 -286 933 q -347 1049 -347 990 l -347 1126 m -189 1190 l -79 1190 l -79 1076 l -189 1076 l -189 1190 z "},"े":{"ha":0,"x_min":-426,"x_max":-78,"o":"m -276 1138 l -78 854 l -201 854 q -263 919 -229 879 q -335 1011 -297 960 l -426 1138 l -276 1138 z "},"्":{"ha":0,"x_min":-218,"x_max":61,"o":"m -86 -85 l 61 -271 l -71 -271 l -218 -85 l -86 -85 z "},"ॢ":{"ha":0,"x_min":-415,"x_max":-50,"o":"m -282 14 q -246 -14 -250 14 l -244 -14 q -235 6 -243 -1 q -210 14 -226 14 l -131 14 l -131 -44 l -187 -44 q -203 -48 -200 -44 q -207 -64 -207 -51 l -207 -190 l -286 -190 l -286 -64 q -290 -48 -286 -51 q -306 -44 -293 -44 l -317 -44 q -334 -48 -331 -44 q -337 -64 -337 -51 l -337 -249 q -334 -265 -337 -261 q -317 -268 -331 -268 l -289 -268 l -289 -328 l -349 -328 q -400 -312 -385 -328 q -415 -267 -415 -297 l -415 -50 q -399 -1 -415 -17 q -350 14 -382 14 l -282 14 m -150 14 l -72 14 l -72 -306 l -121 -306 q -136 -310 -132 -306 q -140 -326 -140 -314 l -140 -340 q -136 -356 -140 -353 q -121 -360 -132 -360 l -50 -360 l -50 -418 l -151 -418 q -203 -403 -187 -418 q -218 -357 -218 -387 l -218 -312 q -203 -266 -218 -281 q -153 -251 -189 -251 l -150 -251 l -150 14 z "},"ॣ":{"ha":0,"x_min":-425,"x_max":-31,"o":"m -31 -385 l -31 -443 l -136 -443 q -188 -427 -171 -443 q -206 -378 -206 -411 l -206 -340 q -198 -315 -206 -324 q -178 -306 -190 -307 l -178 -304 q -198 -294 -190 -301 q -206 -269 -206 -286 l -206 -222 q -192 -181 -206 -196 q -151 -165 -179 -165 l -150 -165 l -150 -43 l -192 -43 q -208 -47 -204 -43 q -212 -64 -212 -51 l -212 -167 l -290 -167 l -290 -64 q -294 -47 -290 -51 q -311 -43 -297 -43 l -326 -43 q -344 -47 -340 -43 q -347 -64 -347 -51 l -347 -247 q -344 -264 -347 -260 q -326 -268 -340 -268 l -299 -268 l -299 -326 l -358 -326 q -410 -311 -394 -326 q -425 -265 -425 -296 l -425 -51 q -408 -1 -425 -17 q -360 14 -392 14 l -286 14 q -251 -14 -254 14 l -250 -14 q -239 6 -247 -1 q -215 14 -231 14 l -72 14 l -72 -221 l -107 -221 q -124 -225 -119 -221 q -129 -242 -129 -229 l -129 -254 q -124 -271 -129 -267 q -107 -275 -119 -275 l -74 -275 l -74 -332 l -107 -332 q -124 -336 -119 -332 q -129 -353 -129 -340 l -129 -365 q -124 -381 -129 -378 q -107 -385 -119 -385 l -31 -385 z "},"़":{"ha":0,"x_min":-190,"x_max":-75,"o":"m -190 -86 l -75 -86 l -75 -218 l -190 -218 l -190 -86 z "},"ृ":{"ha":0,"x_min":-312,"x_max":-18,"o":"m -72 3 l -72 -96 l -144 -96 q -179 -103 -171 -96 q -187 -139 -187 -111 l -187 -181 q -179 -215 -187 -207 q -144 -224 -171 -224 l -18 -224 l -18 -322 l -187 -322 q -281 -292 -250 -322 q -312 -197 -312 -262 l -312 -121 q -281 -27 -312 -57 q -187 3 -250 3 l -72 3 z "},"ॄ":{"ha":0,"x_min":-308,"x_max":-12,"o":"m -308 -112 q -276 -25 -308 -53 q -186 3 -244 3 l -72 3 l -72 -96 l -142 -96 q -174 -103 -165 -96 q -182 -136 -182 -110 l -182 -183 q -174 -216 -182 -208 q -142 -224 -165 -224 l -75 -224 l -75 -322 l -142 -322 q -174 -329 -165 -322 q -182 -362 -182 -336 l -182 -410 q -174 -442 -182 -435 q -142 -450 -165 -450 l -12 -450 l -12 -547 l -174 -547 q -275 -518 -242 -547 q -308 -424 -308 -489 l -308 -343 q -293 -294 -308 -311 q -253 -276 -278 -278 l -253 -272 q -293 -253 -278 -269 q -308 -204 -308 -237 l -308 -112 z "},"ु":{"ha":0,"x_min":-468,"x_max":58,"o":"m -67 3 q 27 -27 -4 3 q 58 -121 58 -57 l 58 -197 q 27 -291 58 -261 q -67 -321 -4 -321 l -217 -321 q -306 -312 -271 -321 q -367 -281 -342 -304 q -418 -212 -392 -257 l -468 -128 l -319 -128 l -286 -183 q -254 -215 -272 -206 q -211 -224 -236 -224 l -110 -224 q -74 -215 -82 -224 q -67 -181 -67 -207 l -67 -137 q -74 -102 -67 -110 q -110 -94 -82 -94 l -197 -94 l -197 3 l -67 3 z "},"ॆ":{"ha":0,"x_min":-465,"x_max":-72,"o":"m -465 1071 l -465 1071 l -465 1140 l -340 1140 l -340 1100 q -331 1063 -340 1071 q -294 1056 -322 1056 l -186 1056 q -72 942 -72 1056 l -72 818 l -197 818 l -197 913 q -206 949 -197 940 q -242 957 -215 957 l -351 957 q -465 1071 -465 957 z "},"ू":{"ha":0,"x_min":-322,"x_max":242,"o":"m -83 3 q 2 -6 -31 3 q 58 -38 35 -15 q 107 -103 82 -61 l 242 -319 l 93 -319 l -19 -140 q -48 -107 -33 -118 q -87 -96 -62 -96 l -153 -96 q -187 -103 -179 -96 q -196 -139 -196 -111 l -196 -181 q -187 -215 -196 -207 q -153 -224 -179 -224 l -79 -224 l -79 -322 l -197 -322 q -291 -292 -260 -322 q -322 -197 -322 -262 l -322 -121 q -291 -27 -322 -57 q -197 3 -260 3 l -83 3 z "},"ः":{"ha":244,"x_min":64,"x_max":181,"o":"m 64 218 l 181 218 l 181 86 l 64 86 l 64 218 m 64 689 l 181 689 l 181 557 l 64 557 l 64 689 z "},"´":{"ha":585,"x_min":164,"x_max":417,"o":"m 164 721 l 278 904 l 417 904 l 271 721 l 164 721 z "},"˘":{"ha":585,"x_min":92,"x_max":493,"o":"m 376 904 l 493 904 l 493 844 q 462 752 493 783 q 363 721 431 721 l 283 721 l 283 811 l 335 811 q 369 819 361 811 q 376 851 376 826 l 376 904 m 92 904 l 208 904 l 208 851 q 217 819 208 826 q 250 811 225 811 l 301 811 l 301 721 l 222 721 q 123 752 154 721 q 92 844 92 783 l 92 904 z "},"ˇ":{"ha":585,"x_min":89,"x_max":494,"o":"m 222 721 l 89 904 l 219 904 l 292 792 l 365 904 l 494 904 l 363 721 l 222 721 z "},"¸":{"ha":585,"x_min":185,"x_max":404,"o":"m 286 -117 l 286 -69 l 404 -69 l 404 -126 q 368 -226 404 -193 q 264 -260 332 -260 l 185 -260 l 185 -162 l 240 -162 q 276 -151 267 -162 q 286 -117 286 -140 z "},"ˆ":{"ha":585,"x_min":89,"x_max":494,"o":"m 89 721 l 222 904 l 363 904 l 494 721 l 365 721 l 292 833 l 219 721 l 89 721 z "},"¨":{"ha":585,"x_min":90,"x_max":494,"o":"m 90 751 l 90 882 l 232 882 l 232 751 l 90 751 m 354 751 l 354 882 l 494 882 l 494 751 l 354 751 z "},"˙":{"ha":585,"x_min":218,"x_max":367,"o":"m 218 746 l 218 879 l 367 879 l 367 746 l 218 746 z "},"`":{"ha":585,"x_min":161,"x_max":414,"o":"m 300 904 l 414 721 l 307 721 l 161 904 l 300 904 z "},"˝":{"ha":585,"x_min":90,"x_max":494,"o":"m 256 721 l 369 904 l 494 904 l 347 721 l 256 721 m 90 721 l 204 904 l 329 904 l 182 721 l 90 721 z "},"¯":{"ha":585,"x_min":106,"x_max":479,"o":"m 106 765 l 106 860 l 479 860 l 479 765 l 106 765 z "},"˛":{"ha":585,"x_min":167,"x_max":421,"o":"m 167 -150 q 195 -62 167 -92 q 286 -32 224 -32 l 396 -32 l 396 -119 l 308 -119 q 276 -126 285 -119 q 268 -157 268 -132 l 268 -187 q 276 -217 268 -210 q 308 -225 285 -225 l 421 -225 l 421 -312 l 286 -312 q 195 -283 224 -312 q 167 -196 167 -253 l 167 -150 m 396 -37 l 297 -37 l 297 15 l 396 15 l 396 -37 z "},"˚":{"ha":585,"x_min":146,"x_max":439,"o":"m 439 825 l 439 801 q 415 728 439 753 q 338 704 392 704 l 247 704 q 170 728 194 704 q 146 801 146 753 l 146 825 q 170 898 146 874 q 247 922 194 922 l 338 922 q 415 898 392 922 q 439 825 439 874 m 351 808 l 351 818 q 345 846 351 839 q 315 853 339 853 l 269 853 q 240 846 246 853 q 233 818 233 839 l 233 808 q 240 781 233 788 q 269 774 246 774 l 315 774 q 345 781 339 774 q 351 808 351 788 z "},"˜":{"ha":585,"x_min":97,"x_max":486,"o":"m 369 742 q 312 755 338 742 q 267 781 286 768 q 229 794 247 794 q 206 763 206 794 l 206 742 l 97 742 l 97 772 q 121 853 97 824 q 206 883 144 883 l 218 883 q 274 870 249 883 q 318 844 299 857 q 353 831 338 831 q 374 837 368 831 q 379 864 379 843 l 379 883 l 486 883 l 486 851 q 464 771 486 800 q 379 742 442 742 l 369 742 z "},"ʼ":{"ha":231,"x_min":44,"x_max":185,"o":"m 44 869 l 185 869 l 185 779 l 88 506 l 44 506 l 44 869 z "},"ˉ":{"ha":585,"x_min":106,"x_max":479,"o":"m 106 765 l 106 860 l 479 860 l 479 765 l 106 765 z "}}}
